NotoSerifGeorgian-CondensedBold.ufo
<glyph name="acutecomb" format="2">
  <unicode hex="0301"/>
  <anchor x="-50" y="536" name="_top"/>
  <anchor x="-20" y="766" name="top"/>
  <outline>
    <contour>
      <point x="-125" y="606" type="line"/>
      <point x="-50" y="606" type="line"/>
      <point x="9" y="644"/>
      <point x="103" y="721"/>
      <point x="124" y="756" type="curve"/>
      <point x="124" y="766" type="line"/>
      <point x="-38" y="766" type="line"/>
      <point x="-55" y="721"/>
      <point x="-100" y="660"/>
      <point x="-125" y="619" type="curve"/>
    </contour>
  </outline>
</glyph>
<glyph name="circumflexcomb" format="2">
  <unicode hex="0302"/>
  <anchor x="0" y="536" name="_top"/>
  <anchor x="0" y="766" name="top"/>
  <outline>
    <contour>
      <point x="-167" y="606" type="line"/>
      <point x="-91" y="606" type="line"/>
      <point x="-73" y="631"/>
      <point x="-26" y="673"/>
      <point x="-1" y="700" type="curve"/>
      <point x="24" y="673"/>
      <point x="72" y="631"/>
      <point x="90" y="606" type="curve"/>
      <point x="166" y="606" type="line"/>
      <point x="166" y="619" type="line"/>
      <point x="140" y="657"/>
      <point x="86" y="721"/>
      <point x="68" y="766" type="curve"/>
      <point x="-69" y="766" type="line"/>
      <point x="-87" y="721"/>
      <point x="-141" y="657"/>
      <point x="-167" y="619" type="curve"/>
    </contour>
  </outline>
</glyph>
<glyph name="macroncomb" format="2">
  <unicode hex="0304"/>
  <anchor x="0" y="536" name="_top"/>
  <anchor x="0" y="687" name="top"/>
  <outline>
    <contour>
      <point x="-121" y="614" type="line"/>
      <point x="121" y="614" type="line"/>
      <point x="121" y="697" type="line"/>
      <point x="-121" y="697" type="line"/>
    </contour>
  </outline>
</glyph>
<glyph name="dieresiscomb" format="2">
  <unicode hex="0308"/>
  <anchor x="0" y="536" name="_top"/>
  <anchor x="0" y="758" name="top"/>
  <outline>
    <contour>
      <point x="92" y="598" type="curve" smooth="yes"/>
      <point x="121" y="598"/>
      <point x="153" y="616"/>
      <point x="153" y="666" type="curve" smooth="yes"/>
      <point x="153" y="717"/>
      <point x="121" y="735"/>
      <point x="92" y="735" type="curve" smooth="yes"/>
      <point x="59" y="735"/>
      <point x="29" y="717"/>
      <point x="29" y="666" type="curve" smooth="yes"/>
      <point x="29" y="616"/>
      <point x="59" y="598"/>
    </contour>
    <contour>
      <point x="-92" y="598" type="curve" smooth="yes"/>
      <point x="-61" y="598"/>
      <point x="-29" y="616"/>
      <point x="-29" y="666" type="curve" smooth="yes"/>
      <point x="-29" y="717"/>
      <point x="-61" y="735"/>
      <point x="-92" y="735" type="curve" smooth="yes"/>
      <point x="-123" y="735"/>
      <point x="-153" y="717"/>
      <point x="-153" y="666" type="curve" smooth="yes"/>
      <point x="-153" y="616"/>
      <point x="-123" y="598"/>
    </contour>
  </outline>
</glyph>
<glyph name="An-oldgeorgian" format="2">
  <advance width="606"/>
  <unicode hex="10A0"/>
  <note>
uni10A0
</note>
  <outline>
    <contour>
      <point x="356" y="-14" type="curve" smooth="yes"/>
      <point x="504" y="-14"/>
      <point x="572" y="49"/>
      <point x="572" y="113" type="curve" smooth="yes"/>
      <point x="572" y="164"/>
      <point x="531" y="208"/>
      <point x="444" y="208" type="curve"/>
      <point x="444" y="140"/>
      <point x="423" y="53"/>
      <point x="357" y="53" type="curve" smooth="yes"/>
      <point x="270" y="53"/>
      <point x="227" y="153"/>
      <point x="227" y="331" type="curve" smooth="yes"/>
      <point x="227" y="467"/>
      <point x="258" y="632"/>
      <point x="371" y="632" type="curve" smooth="yes"/>
      <point x="411" y="632"/>
      <point x="442" y="617"/>
      <point x="442" y="567" type="curve"/>
      <point x="503" y="567"/>
      <point x="559" y="601"/>
      <point x="559" y="653" type="curve" smooth="yes"/>
      <point x="559" y="695"/>
      <point x="525" y="728"/>
      <point x="468" y="728" type="curve" smooth="yes"/>
      <point x="416" y="728"/>
      <point x="370" y="713"/>
      <point x="328" y="697" type="curve" smooth="yes"/>
      <point x="284" y="680"/>
      <point x="245" y="665"/>
      <point x="206" y="665" type="curve" smooth="yes"/>
      <point x="172" y="665"/>
      <point x="158" y="683"/>
      <point x="158" y="724" type="curve"/>
      <point x="87" y="724"/>
      <point x="45" y="697"/>
      <point x="45" y="653" type="curve" smooth="yes"/>
      <point x="45" y="613"/>
      <point x="75" y="590"/>
      <point x="113" y="590" type="curve" smooth="yes"/>
      <point x="153" y="590"/>
      <point x="187" y="595"/>
      <point x="206" y="601" type="curve"/>
      <point x="105" y="534"/>
      <point x="51" y="431"/>
      <point x="51" y="308" type="curve" smooth="yes"/>
      <point x="51" y="133"/>
      <point x="152" y="-14"/>
    </contour>
  </outline>
</glyph>
<glyph name="Ban-oldgeorgian" format="2">
  <advance width="809"/>
  <unicode hex="10A1"/>
  <note>
uni10A1
</note>
  <outline>
    <contour>
      <point x="685" y="-140" type="curve"/>
      <point x="760" y="-140"/>
      <point x="799" y="-100"/>
      <point x="799" y="-41" type="curve" smooth="yes"/>
      <point x="799" y="36"/>
      <point x="715" y="68"/>
      <point x="608" y="68" type="curve" smooth="yes"/>
      <point x="575" y="68" type="line"/>
      <point x="575" y="600" type="line" smooth="yes"/>
      <point x="575" y="643"/>
      <point x="587" y="658"/>
      <point x="617" y="658" type="curve" smooth="yes"/>
      <point x="633" y="658" type="line"/>
      <point x="633" y="714" type="line"/>
      <point x="352" y="714" type="line"/>
      <point x="352" y="658" type="line"/>
      <point x="366" y="658" type="line" smooth="yes"/>
      <point x="390" y="658"/>
      <point x="408" y="643"/>
      <point x="408" y="601" type="curve" smooth="yes"/>
      <point x="408" y="418" type="line" smooth="yes"/>
      <point x="408" y="372"/>
      <point x="379" y="311"/>
      <point x="300" y="311" type="curve" smooth="yes"/>
      <point x="221" y="311"/>
      <point x="204" y="360"/>
      <point x="204" y="474" type="curve" smooth="yes"/>
      <point x="204" y="599"/>
      <point x="225" y="648"/>
      <point x="280" y="658" type="curve"/>
      <point x="280" y="683"/>
      <point x="271" y="720"/>
      <point x="214" y="720" type="curve" smooth="yes"/>
      <point x="116" y="720"/>
      <point x="34" y="638"/>
      <point x="34" y="486" type="curve" smooth="yes"/>
      <point x="34" y="314"/>
      <point x="125" y="230"/>
      <point x="247" y="230" type="curve" smooth="yes"/>
      <point x="324" y="230"/>
      <point x="372" y="254"/>
      <point x="408" y="302" type="curve"/>
      <point x="412" y="302" type="line"/>
      <point x="409" y="278"/>
      <point x="408" y="254"/>
      <point x="408" y="230" type="curve" smooth="yes"/>
      <point x="408" y="0" type="line"/>
      <point x="570" y="0" type="line" smooth="yes"/>
      <point x="649" y="0"/>
      <point x="685" y="-32"/>
    </contour>
  </outline>
</glyph>
<glyph name="Gan-oldgeorgian" format="2">
  <advance width="798"/>
  <unicode hex="10A2"/>
  <note>
uni10A2
</note>
  <outline>
    <contour>
      <point x="597" y="68" type="curve" smooth="yes"/>
      <point x="564" y="68" type="line"/>
      <point x="564" y="600" type="line" smooth="yes"/>
      <point x="564" y="643"/>
      <point x="576" y="658"/>
      <point x="606" y="658" type="curve" smooth="yes"/>
      <point x="622" y="658" type="line"/>
      <point x="622" y="714" type="line"/>
      <point x="18" y="714" type="line"/>
      <point x="18" y="658" type="line"/>
      <point x="34" y="658" type="line" smooth="yes"/>
      <point x="64" y="658"/>
      <point x="76" y="643"/>
      <point x="76" y="600" type="curve" smooth="yes"/>
      <point x="76" y="433" type="line" smooth="yes"/>
      <point x="76" y="390"/>
      <point x="64" y="375"/>
      <point x="34" y="375" type="curve" smooth="yes"/>
      <point x="18" y="375" type="line"/>
      <point x="18" y="319" type="line"/>
      <point x="243" y="319" type="line"/>
      <point x="243" y="640" type="line"/>
      <point x="397" y="640" type="line"/>
      <point x="397" y="0" type="line"/>
      <point x="559" y="0" type="line" smooth="yes"/>
      <point x="638" y="0"/>
      <point x="674" y="-32"/>
      <point x="674" y="-140" type="curve"/>
      <point x="749" y="-140"/>
      <point x="788" y="-100"/>
      <point x="788" y="-41" type="curve" smooth="yes"/>
      <point x="788" y="36"/>
      <point x="704" y="68"/>
    </contour>
  </outline>
</glyph>
<glyph name="Don-oldgeorgian" format="2">
  <advance width="684"/>
  <unicode hex="10A3"/>
  <note>
uni10A3
</note>
  <outline>
    <contour>
      <point x="343" y="-14" type="curve" smooth="yes"/>
      <point x="533" y="-14"/>
      <point x="639" y="102"/>
      <point x="639" y="280" type="curve" smooth="yes"/>
      <point x="639" y="437"/>
      <point x="554" y="545"/>
      <point x="401" y="566" type="curve"/>
      <point x="401" y="638" type="line"/>
      <point x="424" y="642"/>
      <point x="444" y="647"/>
      <point x="461" y="647" type="curve" smooth="yes"/>
      <point x="514" y="647"/>
      <point x="532" y="627"/>
      <point x="532" y="577" type="curve"/>
      <point x="593" y="577"/>
      <point x="649" y="601"/>
      <point x="649" y="653" type="curve" smooth="yes"/>
      <point x="649" y="695"/>
      <point x="615" y="728"/>
      <point x="558" y="728" type="curve" smooth="yes"/>
      <point x="507" y="728"/>
      <point x="447" y="712"/>
      <point x="387" y="692" type="curve" smooth="yes"/>
      <point x="328" y="672"/>
      <point x="272" y="665"/>
      <point x="235" y="665" type="curve" smooth="yes"/>
      <point x="192" y="665"/>
      <point x="168" y="683"/>
      <point x="168" y="724" type="curve"/>
      <point x="97" y="724"/>
      <point x="55" y="692"/>
      <point x="55" y="658" type="curve" smooth="yes"/>
      <point x="55" y="624"/>
      <point x="69" y="590"/>
      <point x="146" y="590" type="curve" smooth="yes"/>
      <point x="171" y="590"/>
      <point x="233" y="597"/>
      <point x="286" y="610" type="curve"/>
      <point x="286" y="567" type="line"/>
      <point x="123" y="546"/>
      <point x="45" y="438"/>
      <point x="45" y="281" type="curve" smooth="yes"/>
      <point x="45" y="102"/>
      <point x="142" y="-14"/>
    </contour>
    <contour>
      <point x="343" y="54" type="curve" smooth="yes"/>
      <point x="254" y="54"/>
      <point x="221" y="136"/>
      <point x="221" y="280" type="curve" smooth="yes"/>
      <point x="221" y="420"/>
      <point x="254" y="502"/>
      <point x="344" y="502" type="curve" smooth="yes"/>
      <point x="432" y="502"/>
      <point x="464" y="420"/>
      <point x="464" y="280" type="curve" smooth="yes"/>
      <point x="464" y="136"/>
      <point x="432" y="54"/>
    </contour>
  </outline>
</glyph>
<glyph name="En-oldgeorgian" format="2">
  <advance width="640"/>
  <unicode hex="10A4"/>
  <note>
uni10A4
</note>
  <outline>
    <contour>
      <point x="397" y="0" type="line"/>
      <point x="564" y="0" type="line"/>
      <point x="564" y="600" type="line" smooth="yes"/>
      <point x="564" y="643"/>
      <point x="576" y="658"/>
      <point x="606" y="658" type="curve" smooth="yes"/>
      <point x="622" y="658" type="line"/>
      <point x="622" y="714" type="line"/>
      <point x="18" y="714" type="line"/>
      <point x="18" y="658" type="line"/>
      <point x="34" y="658" type="line" smooth="yes"/>
      <point x="64" y="658"/>
      <point x="76" y="643"/>
      <point x="76" y="600" type="curve" smooth="yes"/>
      <point x="76" y="433" type="line" smooth="yes"/>
      <point x="76" y="390"/>
      <point x="64" y="375"/>
      <point x="34" y="375" type="curve" smooth="yes"/>
      <point x="18" y="375" type="line"/>
      <point x="18" y="319" type="line"/>
      <point x="243" y="319" type="line"/>
      <point x="243" y="640" type="line"/>
      <point x="397" y="640" type="line"/>
    </contour>
  </outline>
</glyph>
<glyph name="Vin-oldgeorgian" format="2">
  <advance width="798"/>
  <unicode hex="10A5"/>
  <note>
uni10A5
</note>
  <outline>
    <contour>
      <point x="573" y="428" type="curve" smooth="yes"/>
      <point x="564" y="428" type="line"/>
      <point x="564" y="600" type="line" smooth="yes"/>
      <point x="564" y="643"/>
      <point x="576" y="658"/>
      <point x="606" y="658" type="curve" smooth="yes"/>
      <point x="622" y="658" type="line"/>
      <point x="622" y="714" type="line"/>
      <point x="18" y="714" type="line"/>
      <point x="18" y="658" type="line"/>
      <point x="34" y="658" type="line" smooth="yes"/>
      <point x="64" y="658"/>
      <point x="76" y="643"/>
      <point x="76" y="600" type="curve" smooth="yes"/>
      <point x="76" y="433" type="line" smooth="yes"/>
      <point x="76" y="390"/>
      <point x="64" y="375"/>
      <point x="34" y="375" type="curve" smooth="yes"/>
      <point x="18" y="375" type="line"/>
      <point x="18" y="319" type="line"/>
      <point x="243" y="319" type="line"/>
      <point x="243" y="640" type="line"/>
      <point x="397" y="640" type="line"/>
      <point x="397" y="0" type="line"/>
      <point x="564" y="0" type="line"/>
      <point x="564" y="360" type="line"/>
      <point x="582" y="360" type="line" smooth="yes"/>
      <point x="638" y="360"/>
      <point x="674" y="328"/>
      <point x="674" y="220" type="curve"/>
      <point x="749" y="220"/>
      <point x="788" y="260"/>
      <point x="788" y="319" type="curve" smooth="yes"/>
      <point x="788" y="396"/>
      <point x="704" y="428"/>
    </contour>
  </outline>
</glyph>
<glyph name="Zen-oldgeorgian" format="2">
  <advance width="672"/>
  <unicode hex="10A6"/>
  <note>
uni10A6
</note>
  <outline>
    <contour>
      <point x="407" y="-14" type="curve" smooth="yes"/>
      <point x="571" y="-14"/>
      <point x="648" y="94"/>
      <point x="648" y="282" type="curve" smooth="yes"/>
      <point x="648" y="452"/>
      <point x="586" y="550"/>
      <point x="468" y="550" type="curve" smooth="yes"/>
      <point x="412" y="550"/>
      <point x="378" y="536"/>
      <point x="342" y="478" type="curve"/>
      <point x="338" y="478" type="line"/>
      <point x="341" y="502"/>
      <point x="342" y="526"/>
      <point x="342" y="550" type="curve" smooth="yes"/>
      <point x="342" y="714" type="line"/>
      <point x="10" y="714" type="line"/>
      <point x="10" y="650" type="line"/>
      <point x="175" y="650" type="line"/>
      <point x="175" y="269" type="line" smooth="yes"/>
      <point x="175" y="88"/>
      <point x="230" y="-14"/>
    </contour>
    <contour>
      <point x="402" y="48" type="curve" smooth="yes"/>
      <point x="362" y="48"/>
      <point x="342" y="97"/>
      <point x="342" y="281" type="curve" smooth="yes"/>
      <point x="342" y="397"/>
      <point x="363" y="464"/>
      <point x="402" y="464" type="curve" smooth="yes"/>
      <point x="444" y="464"/>
      <point x="469" y="440"/>
      <point x="469" y="268" type="curve" smooth="yes"/>
      <point x="469" y="102"/>
      <point x="439" y="48"/>
    </contour>
  </outline>
</glyph>
<glyph name="Tan-oldgeorgian" format="2">
  <advance width="814"/>
  <unicode hex="10A7"/>
  <note>
uni10A7
</note>
  <outline>
    <contour>
      <point x="589" y="428" type="curve" smooth="yes"/>
      <point x="580" y="428" type="line"/>
      <point x="580" y="601" type="line" smooth="yes"/>
      <point x="580" y="643"/>
      <point x="595" y="658"/>
      <point x="619" y="658" type="curve" smooth="yes"/>
      <point x="656" y="658" type="line"/>
      <point x="656" y="714" type="line"/>
      <point x="366" y="714" type="line" smooth="yes"/>
      <point x="173" y="714"/>
      <point x="54" y="600"/>
      <point x="54" y="373" type="curve" smooth="yes"/>
      <point x="54" y="154"/>
      <point x="162" y="0"/>
      <point x="366" y="0" type="curve" smooth="yes"/>
      <point x="656" y="0" type="line"/>
      <point x="656" y="56" type="line"/>
      <point x="612" y="56" type="line" smooth="yes"/>
      <point x="592" y="56"/>
      <point x="580" y="77"/>
      <point x="580" y="114" type="curve" smooth="yes"/>
      <point x="580" y="360" type="line"/>
      <point x="598" y="360" type="line" smooth="yes"/>
      <point x="654" y="360"/>
      <point x="690" y="328"/>
      <point x="690" y="220" type="curve"/>
      <point x="765" y="220"/>
      <point x="804" y="260"/>
      <point x="804" y="319" type="curve" smooth="yes"/>
      <point x="804" y="396"/>
      <point x="720" y="428"/>
    </contour>
    <contour>
      <point x="413" y="65" type="line"/>
      <point x="386" y="65" type="line" smooth="yes"/>
      <point x="286" y="65"/>
      <point x="231" y="184"/>
      <point x="231" y="373" type="curve" smooth="yes"/>
      <point x="231" y="563"/>
      <point x="286" y="650"/>
      <point x="386" y="650" type="curve" smooth="yes"/>
      <point x="413" y="650" type="line"/>
    </contour>
  </outline>
</glyph>
<glyph name="In-oldgeorgian" format="2">
  <advance width="428"/>
  <unicode hex="10A8"/>
  <note>
uni10A8
</note>
  <outline>
    <contour>
      <point x="402" y="714" type="line"/>
      <point x="10" y="714" type="line"/>
      <point x="10" y="650" type="line"/>
      <point x="175" y="650" type="line"/>
      <point x="175" y="0" type="line"/>
      <point x="344" y="0" type="line"/>
      <point x="344" y="600" type="line" smooth="yes"/>
      <point x="344" y="643"/>
      <point x="356" y="658"/>
      <point x="386" y="658" type="curve" smooth="yes"/>
      <point x="402" y="658" type="line"/>
    </contour>
  </outline>
</glyph>
<glyph name="Kan-oldgeorgian" format="2">
  <advance width="637"/>
  <unicode hex="10A9"/>
  <note>
uni10A9
</note>
  <outline>
    <contour>
      <point x="336" y="0" type="line"/>
      <point x="617" y="0" type="line"/>
      <point x="617" y="56" type="line"/>
      <point x="601" y="56" type="line" smooth="yes"/>
      <point x="571" y="56"/>
      <point x="559" y="71"/>
      <point x="559" y="114" type="curve" smooth="yes"/>
      <point x="559" y="345" type="line" smooth="yes"/>
      <point x="559" y="482"/>
      <point x="501" y="575"/>
      <point x="383" y="575" type="curve" smooth="yes"/>
      <point x="327" y="575"/>
      <point x="293" y="561"/>
      <point x="253" y="503" type="curve"/>
      <point x="249" y="503" type="line"/>
      <point x="252" y="527"/>
      <point x="253" y="551"/>
      <point x="253" y="575" type="curve" smooth="yes"/>
      <point x="253" y="600" type="line" smooth="yes"/>
      <point x="253" y="643"/>
      <point x="265" y="658"/>
      <point x="295" y="658" type="curve" smooth="yes"/>
      <point x="311" y="658" type="line"/>
      <point x="311" y="714" type="line"/>
      <point x="30" y="714" type="line"/>
      <point x="30" y="658" type="line"/>
      <point x="44" y="658" type="line" smooth="yes"/>
      <point x="68" y="658"/>
      <point x="86" y="643"/>
      <point x="86" y="601" type="curve" smooth="yes"/>
      <point x="86" y="345" type="line" smooth="yes"/>
      <point x="86" y="208"/>
      <point x="143" y="115"/>
      <point x="261" y="115" type="curve" smooth="yes"/>
      <point x="317" y="115"/>
      <point x="351" y="129"/>
      <point x="392" y="187" type="curve"/>
      <point x="396" y="187" type="line"/>
      <point x="393" y="163"/>
      <point x="392" y="139"/>
      <point x="392" y="115" type="curve" smooth="yes"/>
      <point x="392" y="101" type="line" smooth="yes"/>
      <point x="392" y="71"/>
      <point x="374" y="56"/>
      <point x="350" y="56" type="curve" smooth="yes"/>
      <point x="336" y="56" type="line"/>
    </contour>
    <contour>
      <point x="326" y="201" type="curve" smooth="yes"/>
      <point x="278" y="201"/>
      <point x="253" y="230"/>
      <point x="253" y="345" type="curve" smooth="yes"/>
      <point x="253" y="417"/>
      <point x="274" y="489"/>
      <point x="319" y="489" type="curve" smooth="yes"/>
      <point x="367" y="489"/>
      <point x="392" y="460"/>
      <point x="392" y="345" type="curve" smooth="yes"/>
      <point x="392" y="273"/>
      <point x="371" y="201"/>
    </contour>
  </outline>
</glyph>
<glyph name="Las-oldgeorgian" format="2">
  <advance width="844"/>
  <unicode hex="10AA"/>
  <note>
uni10AA
</note>
  <outline>
    <contour>
      <point x="579" y="-14" type="curve" smooth="yes"/>
      <point x="743" y="-14"/>
      <point x="820" y="94"/>
      <point x="820" y="282" type="curve" smooth="yes"/>
      <point x="820" y="452"/>
      <point x="758" y="550"/>
      <point x="640" y="550" type="curve" smooth="yes"/>
      <point x="584" y="550"/>
      <point x="550" y="536"/>
      <point x="514" y="478" type="curve"/>
      <point x="510" y="478" type="line"/>
      <point x="513" y="502"/>
      <point x="514" y="526"/>
      <point x="514" y="550" type="curve" smooth="yes"/>
      <point x="514" y="600" type="line" smooth="yes"/>
      <point x="514" y="643"/>
      <point x="526" y="658"/>
      <point x="556" y="658" type="curve" smooth="yes"/>
      <point x="572" y="658" type="line"/>
      <point x="572" y="714" type="line"/>
      <point x="18" y="714" type="line"/>
      <point x="18" y="658" type="line"/>
      <point x="34" y="658" type="line" smooth="yes"/>
      <point x="64" y="658"/>
      <point x="76" y="643"/>
      <point x="76" y="600" type="curve" smooth="yes"/>
      <point x="76" y="433" type="line" smooth="yes"/>
      <point x="76" y="390"/>
      <point x="64" y="375"/>
      <point x="34" y="375" type="curve" smooth="yes"/>
      <point x="18" y="375" type="line"/>
      <point x="18" y="319" type="line"/>
      <point x="243" y="319" type="line"/>
      <point x="243" y="640" type="line"/>
      <point x="347" y="640" type="line"/>
      <point x="347" y="269" type="line" smooth="yes"/>
      <point x="347" y="88"/>
      <point x="402" y="-14"/>
    </contour>
    <contour>
      <point x="574" y="48" type="curve" smooth="yes"/>
      <point x="534" y="48"/>
      <point x="514" y="97"/>
      <point x="514" y="281" type="curve" smooth="yes"/>
      <point x="514" y="397"/>
      <point x="535" y="464"/>
      <point x="579" y="464" type="curve" smooth="yes"/>
      <point x="616" y="464"/>
      <point x="641" y="440"/>
      <point x="641" y="268" type="curve" smooth="yes"/>
      <point x="641" y="102"/>
      <point x="611" y="48"/>
    </contour>
  </outline>
</glyph>
<glyph name="Man-oldgeorgian" format="2">
  <advance width="631"/>
  <unicode hex="10AB"/>
  <note>
uni10AB
</note>
  <outline>
    <contour>
      <point x="277" y="-14" type="curve" smooth="yes"/>
      <point x="431" y="-14"/>
      <point x="526" y="50"/>
      <point x="526" y="218" type="curve" smooth="yes"/>
      <point x="526" y="381" type="line"/>
      <point x="613" y="381" type="line"/>
      <point x="613" y="447" type="line"/>
      <point x="526" y="447" type="line"/>
      <point x="526" y="619" type="line" smooth="yes"/>
      <point x="526" y="648"/>
      <point x="542" y="658"/>
      <point x="567" y="658" type="curve" smooth="yes"/>
      <point x="583" y="658" type="line"/>
      <point x="583" y="714" type="line"/>
      <point x="79" y="714" type="line"/>
      <point x="79" y="650" type="line"/>
      <point x="359" y="650" type="line"/>
      <point x="359" y="447" type="line"/>
      <point x="301" y="447" type="line" smooth="yes"/>
      <point x="116" y="447"/>
      <point x="42" y="387"/>
      <point x="42" y="223" type="curve" smooth="yes"/>
      <point x="42" y="79"/>
      <point x="106" y="-14"/>
    </contour>
    <contour>
      <point x="279" y="60" type="curve" smooth="yes"/>
      <point x="234" y="60"/>
      <point x="209" y="110"/>
      <point x="209" y="225" type="curve" smooth="yes"/>
      <point x="209" y="343"/>
      <point x="235" y="381"/>
      <point x="303" y="381" type="curve" smooth="yes"/>
      <point x="359" y="381" type="line"/>
      <point x="359" y="218" type="line" smooth="yes"/>
      <point x="359" y="97"/>
      <point x="336" y="60"/>
    </contour>
  </outline>
</glyph>
<glyph name="Nar-oldgeorgian" format="2">
  <advance width="669"/>
  <unicode hex="10AC"/>
  <note>
uni10AC
</note>
  <outline>
    <contour>
      <point x="18" y="0" type="line"/>
      <point x="322" y="0" type="line"/>
      <point x="322" y="56" type="line"/>
      <point x="291" y="56" type="line" smooth="yes"/>
      <point x="271" y="56"/>
      <point x="262" y="76"/>
      <point x="262" y="111" type="curve" smooth="yes"/>
      <point x="262" y="296" type="line" smooth="yes"/>
      <point x="262" y="345"/>
      <point x="285" y="388"/>
      <point x="334" y="388" type="curve" smooth="yes"/>
      <point x="384" y="388"/>
      <point x="405" y="352"/>
      <point x="405" y="292" type="curve" smooth="yes"/>
      <point x="405" y="0" type="line"/>
      <point x="651" y="0" type="line"/>
      <point x="651" y="56" type="line"/>
      <point x="617" y="56" type="line" smooth="yes"/>
      <point x="588" y="56"/>
      <point x="575" y="75"/>
      <point x="575" y="112" type="curve" smooth="yes"/>
      <point x="575" y="294" type="line" smooth="yes"/>
      <point x="575" y="428"/>
      <point x="508" y="484"/>
      <point x="403" y="484" type="curve" smooth="yes"/>
      <point x="348" y="484"/>
      <point x="300" y="460"/>
      <point x="264" y="412" type="curve"/>
      <point x="260" y="412" type="line"/>
      <point x="263" y="436"/>
      <point x="264" y="460"/>
      <point x="264" y="484" type="curve" smooth="yes"/>
      <point x="264" y="650" type="line"/>
      <point x="555" y="650" type="line"/>
      <point x="555" y="714" type="line"/>
      <point x="24" y="714" type="line"/>
      <point x="24" y="658" type="line"/>
      <point x="50" y="658" type="line" smooth="yes"/>
      <point x="80" y="658"/>
      <point x="94" y="651"/>
      <point x="94" y="599" type="curve" smooth="yes"/>
      <point x="94" y="111" type="line" smooth="yes"/>
      <point x="94" y="76"/>
      <point x="81" y="56"/>
      <point x="62" y="56" type="curve" smooth="yes"/>
      <point x="18" y="56" type="line"/>
    </contour>
  </outline>
</glyph>
<glyph name="On-oldgeorgian" format="2">
  <advance width="764"/>
  <unicode hex="10AD"/>
  <note>
uni10AD
</note>
  <outline>
    <contour>
      <point x="716" y="219" type="curve" smooth="yes"/>
      <point x="682" y="219"/>
      <point x="662" y="213"/>
      <point x="652" y="205" type="curve"/>
      <point x="667" y="186"/>
      <point x="670" y="170"/>
      <point x="670" y="145" type="curve" smooth="yes"/>
      <point x="670" y="110"/>
      <point x="648" y="81"/>
      <point x="608" y="81" type="curve" smooth="yes"/>
      <point x="590" y="81"/>
      <point x="575" y="84"/>
      <point x="560" y="90" type="curve"/>
      <point x="615" y="161"/>
      <point x="639" y="260"/>
      <point x="639" y="358" type="curve" smooth="yes"/>
      <point x="639" y="583"/>
      <point x="542" y="728"/>
      <point x="344" y="728" type="curve" smooth="yes"/>
      <point x="142" y="728"/>
      <point x="45" y="583"/>
      <point x="45" y="359" type="curve" smooth="yes"/>
      <point x="45" y="133"/>
      <point x="142" y="-14"/>
      <point x="343" y="-14" type="curve" smooth="yes"/>
      <point x="407" y="-14"/>
      <point x="459" y="3"/>
      <point x="501" y="32" type="curve"/>
      <point x="539" y="7"/>
      <point x="582" y="-14"/>
      <point x="632" y="-14" type="curve" smooth="yes"/>
      <point x="700" y="-14"/>
      <point x="782" y="30"/>
      <point x="782" y="109" type="curve" smooth="yes"/>
      <point x="782" y="176"/>
      <point x="755" y="219"/>
    </contour>
    <contour>
      <point x="343" y="54" type="curve" smooth="yes"/>
      <point x="254" y="54"/>
      <point x="221" y="165"/>
      <point x="221" y="358" type="curve" smooth="yes"/>
      <point x="221" y="550"/>
      <point x="254" y="660"/>
      <point x="344" y="660" type="curve" smooth="yes"/>
      <point x="432" y="660"/>
      <point x="464" y="550"/>
      <point x="464" y="358" type="curve" smooth="yes"/>
      <point x="464" y="165"/>
      <point x="432" y="54"/>
    </contour>
  </outline>
</glyph>
<glyph name="Par-oldgeorgian" format="2">
  <advance width="761"/>
  <unicode hex="10AE"/>
  <note>
uni10AE
</note>
  <outline>
    <contour>
      <point x="741" y="714" type="line"/>
      <point x="460" y="714" type="line"/>
      <point x="460" y="658" type="line"/>
      <point x="474" y="658" type="line" smooth="yes"/>
      <point x="498" y="658"/>
      <point x="516" y="643"/>
      <point x="516" y="601" type="curve" smooth="yes"/>
      <point x="516" y="216" type="line" smooth="yes"/>
      <point x="516" y="107"/>
      <point x="483" y="60"/>
      <point x="432" y="60" type="curve" smooth="yes"/>
      <point x="368" y="60"/>
      <point x="342" y="95"/>
      <point x="342" y="210" type="curve" smooth="yes"/>
      <point x="342" y="714" type="line"/>
      <point x="10" y="714" type="line"/>
      <point x="10" y="650" type="line"/>
      <point x="175" y="650" type="line"/>
      <point x="175" y="218" type="line" smooth="yes"/>
      <point x="175" y="50"/>
      <point x="273" y="-14"/>
      <point x="433" y="-14" type="curve" smooth="yes"/>
      <point x="616" y="-14"/>
      <point x="683" y="76"/>
      <point x="683" y="214" type="curve" smooth="yes"/>
      <point x="683" y="600" type="line" smooth="yes"/>
      <point x="683" y="643"/>
      <point x="695" y="658"/>
      <point x="725" y="658" type="curve" smooth="yes"/>
      <point x="741" y="658" type="line"/>
    </contour>
  </outline>
</glyph>
<glyph name="Zhar-oldgeorgian" format="2">
  <advance width="723"/>
  <unicode hex="10AF"/>
  <note>
uni10AF
</note>
  <outline>
    <contour>
      <point x="637" y="114" type="curve" smooth="yes"/>
      <point x="637" y="600" type="line" smooth="yes"/>
      <point x="637" y="643"/>
      <point x="646" y="658"/>
      <point x="676" y="658" type="curve" smooth="yes"/>
      <point x="692" y="658" type="line"/>
      <point x="692" y="714" type="line"/>
      <point x="411" y="714" type="line"/>
      <point x="411" y="658" type="line"/>
      <point x="425" y="658" type="line" smooth="yes"/>
      <point x="449" y="658"/>
      <point x="467" y="643"/>
      <point x="467" y="601" type="curve" smooth="yes"/>
      <point x="467" y="418" type="line" smooth="yes"/>
      <point x="467" y="372"/>
      <point x="438" y="311"/>
      <point x="370" y="311" type="curve" smooth="yes"/>
      <point x="280" y="311"/>
      <point x="263" y="360"/>
      <point x="263" y="474" type="curve" smooth="yes"/>
      <point x="263" y="599"/>
      <point x="279" y="658"/>
      <point x="329" y="658" type="curve"/>
      <point x="329" y="714" type="line"/>
      <point x="10" y="714" type="line"/>
      <point x="10" y="650" type="line"/>
      <point x="150" y="650" type="line"/>
      <point x="112" y="610"/>
      <point x="93" y="551"/>
      <point x="93" y="472" type="curve" smooth="yes"/>
      <point x="93" y="310"/>
      <point x="184" y="230"/>
      <point x="328" y="230" type="curve" smooth="yes"/>
      <point x="383" y="230"/>
      <point x="431" y="254"/>
      <point x="467" y="302" type="curve"/>
      <point x="471" y="302" type="line"/>
      <point x="468" y="278"/>
      <point x="467" y="254"/>
      <point x="467" y="230" type="curve" smooth="yes"/>
      <point x="467" y="113" type="line" smooth="yes"/>
      <point x="467" y="71"/>
      <point x="449" y="56"/>
      <point x="425" y="56" type="curve" smooth="yes"/>
      <point x="411" y="56" type="line"/>
      <point x="411" y="0" type="line"/>
      <point x="692" y="0" type="line"/>
      <point x="692" y="56" type="line"/>
      <point x="676" y="56" type="line" smooth="yes"/>
      <point x="649" y="56"/>
      <point x="637" y="71"/>
    </contour>
  </outline>
</glyph>
<glyph name="Rae-oldgeorgian" format="2">
  <advance width="861"/>
  <unicode hex="10B0"/>
  <note>
uni10B0
</note>
  <outline>
    <contour>
      <point x="292" y="-14" type="curve" smooth="yes"/>
      <point x="433" y="-14"/>
      <point x="532" y="50"/>
      <point x="532" y="218" type="curve" smooth="yes"/>
      <point x="532" y="329" type="line" smooth="yes"/>
      <point x="532" y="378"/>
      <point x="550" y="411"/>
      <point x="587" y="411" type="curve" smooth="yes"/>
      <point x="627" y="411"/>
      <point x="643" y="381"/>
      <point x="643" y="327" type="curve" smooth="yes"/>
      <point x="643" y="289"/>
      <point x="635" y="255"/>
      <point x="610" y="215" type="curve"/>
      <point x="631" y="204"/>
      <point x="656" y="199"/>
      <point x="681" y="199" type="curve" smooth="yes"/>
      <point x="761" y="199"/>
      <point x="810" y="252"/>
      <point x="810" y="353" type="curve" smooth="yes"/>
      <point x="810" y="450"/>
      <point x="740" y="507"/>
      <point x="653" y="507" type="curve" smooth="yes"/>
      <point x="598" y="507"/>
      <point x="561" y="483"/>
      <point x="532" y="445" type="curve"/>
      <point x="528" y="445" type="line"/>
      <point x="531" y="469"/>
      <point x="532" y="493"/>
      <point x="532" y="517" type="curve" smooth="yes"/>
      <point x="532" y="600" type="line" smooth="yes"/>
      <point x="532" y="643"/>
      <point x="544" y="658"/>
      <point x="574" y="658" type="curve" smooth="yes"/>
      <point x="590" y="658" type="line"/>
      <point x="590" y="714" type="line"/>
      <point x="309" y="714" type="line"/>
      <point x="309" y="658" type="line"/>
      <point x="323" y="658" type="line" smooth="yes"/>
      <point x="347" y="658"/>
      <point x="365" y="643"/>
      <point x="365" y="601" type="curve"/>
      <point x="365" y="210" type="line"/>
      <point x="365" y="95"/>
      <point x="339" y="60"/>
      <point x="293" y="60" type="curve" smooth="yes"/>
      <point x="244" y="60"/>
      <point x="221" y="107"/>
      <point x="221" y="216" type="curve" smooth="yes"/>
      <point x="221" y="263"/>
      <point x="229" y="307"/>
      <point x="254" y="347" type="curve"/>
      <point x="233" y="358"/>
      <point x="208" y="363"/>
      <point x="183" y="363" type="curve" smooth="yes"/>
      <point x="96" y="363"/>
      <point x="54" y="303"/>
      <point x="54" y="214" type="curve" smooth="yes"/>
      <point x="54" y="76"/>
      <point x="111" y="-14"/>
    </contour>
  </outline>
</glyph>
<glyph name="San-oldgeorgian" format="2">
  <advance width="622"/>
  <unicode hex="10B1"/>
  <note>
uni10B1
</note>
  <outline>
    <contour>
      <point x="333" y="-14" type="curve" smooth="yes"/>
      <point x="514" y="-14"/>
      <point x="571" y="76"/>
      <point x="571" y="214" type="curve" smooth="yes"/>
      <point x="571" y="303"/>
      <point x="529" y="363"/>
      <point x="442" y="363" type="curve" smooth="yes"/>
      <point x="417" y="363"/>
      <point x="392" y="358"/>
      <point x="371" y="347" type="curve"/>
      <point x="396" y="307"/>
      <point x="404" y="263"/>
      <point x="404" y="216" type="curve" smooth="yes"/>
      <point x="404" y="107"/>
      <point x="381" y="60"/>
      <point x="332" y="60" type="curve" smooth="yes"/>
      <point x="286" y="60"/>
      <point x="260" y="95"/>
      <point x="260" y="210" type="curve" smooth="yes"/>
      <point x="260" y="714" type="line"/>
      <point x="14" y="714" type="line"/>
      <point x="14" y="658" type="line"/>
      <point x="38" y="658" type="line" smooth="yes"/>
      <point x="78" y="658"/>
      <point x="92" y="653"/>
      <point x="92" y="599" type="curve" smooth="yes"/>
      <point x="92" y="218" type="line" smooth="yes"/>
      <point x="92" y="50"/>
      <point x="192" y="-14"/>
    </contour>
  </outline>
</glyph>
<glyph name="Tar-oldgeorgian" format="2">
  <advance width="583"/>
  <unicode hex="10B2"/>
  <note>
uni10B2
</note>
  <outline>
    <contour>
      <point x="401" y="-140" type="curve"/>
      <point x="476" y="-140"/>
      <point x="515" y="-100"/>
      <point x="515" y="-41" type="curve" smooth="yes"/>
      <point x="515" y="36"/>
      <point x="451" y="68"/>
      <point x="320" y="68" type="curve" smooth="yes"/>
      <point x="262" y="68" type="line"/>
      <point x="262" y="271" type="line"/>
      <point x="280" y="271" type="line" smooth="yes"/>
      <point x="477" y="271"/>
      <point x="551" y="371"/>
      <point x="551" y="501" type="curve" smooth="yes"/>
      <point x="551" y="642"/>
      <point x="472" y="714"/>
      <point x="298" y="714" type="curve" smooth="yes"/>
      <point x="18" y="714" type="line"/>
      <point x="18" y="658" type="line"/>
      <point x="55" y="658" type="line" smooth="yes"/>
      <point x="74" y="658"/>
      <point x="94" y="651"/>
      <point x="94" y="599" type="curve" smooth="yes"/>
      <point x="94" y="0" type="line"/>
      <point x="309" y="0" type="line" smooth="yes"/>
      <point x="365" y="0"/>
      <point x="401" y="-32"/>
    </contour>
    <contour>
      <point x="261" y="332" type="line"/>
      <point x="261" y="652" type="line"/>
      <point x="284" y="652" type="line" smooth="yes"/>
      <point x="347" y="652"/>
      <point x="377" y="603"/>
      <point x="377" y="497" type="curve" smooth="yes"/>
      <point x="377" y="379"/>
      <point x="345" y="332"/>
      <point x="272" y="332" type="curve" smooth="yes"/>
    </contour>
  </outline>
</glyph>
<glyph name="Un-oldgeorgian" format="2">
  <advance width="684"/>
  <unicode hex="10B3"/>
  <note>
uni10B3
</note>
  <outline>
    <contour>
      <point x="477" y="-189" type="curve" smooth="yes"/>
      <point x="594" y="-189"/>
      <point x="667" y="-130"/>
      <point x="667" y="-38" type="curve" smooth="yes"/>
      <point x="667" y="35"/>
      <point x="632" y="79"/>
      <point x="571" y="99" type="curve"/>
      <point x="616" y="163"/>
      <point x="639" y="250"/>
      <point x="639" y="358" type="curve" smooth="yes"/>
      <point x="639" y="583"/>
      <point x="539" y="728"/>
      <point x="344" y="728" type="curve" smooth="yes"/>
      <point x="142" y="728"/>
      <point x="45" y="583"/>
      <point x="45" y="359" type="curve" smooth="yes"/>
      <point x="45" y="133"/>
      <point x="142" y="-14"/>
      <point x="343" y="-14" type="curve" smooth="yes"/>
      <point x="407" y="-14"/>
      <point x="462" y="3"/>
      <point x="506" y="34" type="curve"/>
      <point x="517" y="18"/>
      <point x="524" y="-6"/>
      <point x="524" y="-33" type="curve" smooth="yes"/>
      <point x="524" y="-93"/>
      <point x="492" y="-111"/>
      <point x="462" y="-111" type="curve" smooth="yes"/>
      <point x="432" y="-111"/>
      <point x="420" y="-99"/>
      <point x="410" y="-63" type="curve"/>
      <point x="350" y="-63"/>
      <point x="327" y="-88"/>
      <point x="327" y="-110" type="curve" smooth="yes"/>
      <point x="327" y="-164"/>
      <point x="383" y="-189"/>
    </contour>
    <contour>
      <point x="343" y="54" type="curve" smooth="yes"/>
      <point x="254" y="54"/>
      <point x="221" y="165"/>
      <point x="221" y="358" type="curve" smooth="yes"/>
      <point x="221" y="550"/>
      <point x="254" y="660"/>
      <point x="344" y="660" type="curve" smooth="yes"/>
      <point x="432" y="660"/>
      <point x="464" y="550"/>
      <point x="464" y="358" type="curve" smooth="yes"/>
      <point x="464" y="165"/>
      <point x="432" y="54"/>
    </contour>
  </outline>
</glyph>
<glyph name="Phar-oldgeorgian" format="2">
  <advance width="716"/>
  <unicode hex="10B4"/>
  <note>
uni10B4
</note>
  <outline>
    <contour>
      <point x="282" y="0" type="line"/>
      <point x="435" y="0" type="line"/>
      <point x="435" y="218" type="line"/>
      <point x="603" y="238"/>
      <point x="692" y="326"/>
      <point x="692" y="474" type="curve" smooth="yes"/>
      <point x="692" y="645"/>
      <point x="591" y="728"/>
      <point x="359" y="728" type="curve" smooth="yes"/>
      <point x="117" y="728"/>
      <point x="24" y="639"/>
      <point x="24" y="474" type="curve" smooth="yes"/>
      <point x="24" y="324"/>
      <point x="112" y="238"/>
      <point x="282" y="218" type="curve"/>
    </contour>
    <contour>
      <point x="282" y="279" type="line"/>
      <point x="202" y="299"/>
      <point x="176" y="344"/>
      <point x="176" y="471" type="curve" smooth="yes"/>
      <point x="176" y="579"/>
      <point x="201" y="643"/>
      <point x="282" y="667" type="curve"/>
    </contour>
    <contour>
      <point x="435" y="279" type="curve"/>
      <point x="435" y="667" type="line"/>
      <point x="513" y="647"/>
      <point x="539" y="584"/>
      <point x="539" y="471" type="curve" smooth="yes"/>
      <point x="539" y="349"/>
      <point x="513" y="299"/>
    </contour>
  </outline>
</glyph>
<glyph name="Khar-oldgeorgian" format="2">
  <advance width="626"/>
  <unicode hex="10B5"/>
  <note>
uni10B5
</note>
  <outline>
    <contour>
      <point x="519" y="524" type="curve" smooth="yes"/>
      <point x="481" y="524"/>
      <point x="438" y="516"/>
      <point x="393" y="501" type="curve"/>
      <point x="393" y="600" type="line" smooth="yes"/>
      <point x="393" y="643"/>
      <point x="402" y="658"/>
      <point x="432" y="658" type="curve" smooth="yes"/>
      <point x="448" y="658" type="line"/>
      <point x="448" y="714" type="line"/>
      <point x="167" y="714" type="line"/>
      <point x="167" y="658" type="line"/>
      <point x="181" y="658" type="line" smooth="yes"/>
      <point x="205" y="658"/>
      <point x="223" y="643"/>
      <point x="223" y="601" type="curve" smooth="yes"/>
      <point x="223" y="467" type="line"/>
      <point x="213" y="465"/>
      <point x="204" y="463"/>
      <point x="182" y="463" type="curve" smooth="yes"/>
      <point x="147" y="463"/>
      <point x="129" y="483"/>
      <point x="129" y="524" type="curve"/>
      <point x="58" y="524"/>
      <point x="16" y="492"/>
      <point x="16" y="458" type="curve" smooth="yes"/>
      <point x="16" y="424"/>
      <point x="30" y="390"/>
      <point x="107" y="390" type="curve" smooth="yes"/>
      <point x="128" y="390"/>
      <point x="176" y="395"/>
      <point x="223" y="405" type="curve"/>
      <point x="223" y="0" type="line"/>
      <point x="393" y="0" type="line"/>
      <point x="393" y="439" type="line"/>
      <point x="403" y="440"/>
      <point x="420" y="443"/>
      <point x="444" y="443" type="curve" smooth="yes"/>
      <point x="475" y="443"/>
      <point x="493" y="423"/>
      <point x="493" y="373" type="curve"/>
      <point x="554" y="373"/>
      <point x="610" y="397"/>
      <point x="610" y="449" type="curve" smooth="yes"/>
      <point x="610" y="491"/>
      <point x="576" y="524"/>
    </contour>
  </outline>
</glyph>
<glyph name="Ghan-oldgeorgian" format="2">
  <advance width="664"/>
  <unicode hex="10B6"/>
  <note>
uni10B6
</note>
  <outline>
    <contour>
      <point x="629" y="55" type="line" smooth="yes"/>
      <point x="605" y="55"/>
      <point x="586" y="70"/>
      <point x="586" y="112" type="curve" smooth="yes"/>
      <point x="586" y="500" type="line" smooth="yes"/>
      <point x="586" y="664"/>
      <point x="487" y="728"/>
      <point x="327" y="728" type="curve" smooth="yes"/>
      <point x="144" y="728"/>
      <point x="78" y="638"/>
      <point x="78" y="504" type="curve" smooth="yes"/>
      <point x="78" y="112" type="line" smooth="yes"/>
      <point x="78" y="70"/>
      <point x="60" y="55"/>
      <point x="36" y="55" type="curve" smooth="yes"/>
      <point x="22" y="55" type="line"/>
      <point x="22" y="-1" type="line"/>
      <point x="290" y="-1" type="line"/>
      <point x="290" y="55" type="line"/>
      <point x="284" y="55" type="line" smooth="yes"/>
      <point x="254" y="55"/>
      <point x="245" y="70"/>
      <point x="245" y="113" type="curve" smooth="yes"/>
      <point x="245" y="502" type="line" smooth="yes"/>
      <point x="245" y="607"/>
      <point x="278" y="654"/>
      <point x="329" y="654" type="curve" smooth="yes"/>
      <point x="393" y="654"/>
      <point x="419" y="619"/>
      <point x="419" y="508" type="curve" smooth="yes"/>
      <point x="419" y="92" type="line" smooth="yes"/>
      <point x="419" y="65"/>
      <point x="405" y="55"/>
      <point x="381" y="55" type="curve" smooth="yes"/>
      <point x="375" y="55" type="line"/>
      <point x="375" y="-1" type="line"/>
      <point x="643" y="-1" type="line"/>
      <point x="643" y="55" type="line"/>
    </contour>
  </outline>
</glyph>
<glyph name="Qar-oldgeorgian" format="2">
  <advance width="672"/>
  <unicode hex="10B7"/>
  <note>
uni10B7
</note>
  <outline>
    <contour>
      <point x="351" y="-1" type="line"/>
      <point x="621" y="-1" type="line"/>
      <point x="621" y="55" type="line"/>
      <point x="615" y="55" type="line" smooth="yes"/>
      <point x="585" y="55"/>
      <point x="575" y="70"/>
      <point x="575" y="113" type="curve" smooth="yes"/>
      <point x="575" y="600" type="line" smooth="yes"/>
      <point x="575" y="643"/>
      <point x="587" y="658"/>
      <point x="617" y="658" type="curve" smooth="yes"/>
      <point x="633" y="658" type="line"/>
      <point x="633" y="714" type="line"/>
      <point x="352" y="714" type="line"/>
      <point x="352" y="658" type="line"/>
      <point x="366" y="658" type="line" smooth="yes"/>
      <point x="390" y="658"/>
      <point x="408" y="643"/>
      <point x="408" y="601" type="curve" smooth="yes"/>
      <point x="408" y="418" type="line" smooth="yes"/>
      <point x="408" y="372"/>
      <point x="379" y="311"/>
      <point x="300" y="311" type="curve" smooth="yes"/>
      <point x="221" y="311"/>
      <point x="204" y="360"/>
      <point x="204" y="474" type="curve" smooth="yes"/>
      <point x="204" y="599"/>
      <point x="225" y="648"/>
      <point x="280" y="658" type="curve"/>
      <point x="280" y="683"/>
      <point x="271" y="720"/>
      <point x="214" y="720" type="curve" smooth="yes"/>
      <point x="116" y="720"/>
      <point x="34" y="638"/>
      <point x="34" y="486" type="curve" smooth="yes"/>
      <point x="34" y="314"/>
      <point x="125" y="230"/>
      <point x="247" y="230" type="curve" smooth="yes"/>
      <point x="324" y="230"/>
      <point x="372" y="254"/>
      <point x="408" y="302" type="curve"/>
      <point x="412" y="302" type="line"/>
      <point x="409" y="278"/>
      <point x="408" y="254"/>
      <point x="408" y="230" type="curve" smooth="yes"/>
      <point x="408" y="112" type="line" smooth="yes"/>
      <point x="408" y="70"/>
      <point x="389" y="55"/>
      <point x="365" y="55" type="curve" smooth="yes"/>
      <point x="351" y="55" type="line"/>
    </contour>
  </outline>
</glyph>
<glyph name="Shin-oldgeorgian" format="2">
  <advance width="645"/>
  <unicode hex="10B8"/>
  <note>
uni10B8
</note>
  <outline>
    <contour>
      <point x="341" y="714" type="line"/>
      <point x="341" y="658" type="line"/>
      <point x="355" y="658" type="line" smooth="yes"/>
      <point x="379" y="658"/>
      <point x="397" y="643"/>
      <point x="397" y="601" type="curve" smooth="yes"/>
      <point x="397" y="478" type="line" smooth="yes"/>
      <point x="397" y="432"/>
      <point x="366" y="386"/>
      <point x="321" y="386" type="curve" smooth="yes"/>
      <point x="271" y="386"/>
      <point x="256" y="422"/>
      <point x="256" y="482" type="curve" smooth="yes"/>
      <point x="256" y="714" type="line"/>
      <point x="16" y="714" type="line"/>
      <point x="16" y="658" type="line"/>
      <point x="32" y="658" type="line" smooth="yes"/>
      <point x="62" y="658"/>
      <point x="86" y="641"/>
      <point x="86" y="589" type="curve" smooth="yes"/>
      <point x="86" y="480" type="line" smooth="yes"/>
      <point x="86" y="346"/>
      <point x="153" y="290"/>
      <point x="258" y="290" type="curve" smooth="yes"/>
      <point x="313" y="290"/>
      <point x="361" y="314"/>
      <point x="397" y="362" type="curve"/>
      <point x="401" y="362" type="line"/>
      <point x="398" y="338"/>
      <point x="397" y="314"/>
      <point x="397" y="290" type="curve" smooth="yes"/>
      <point x="397" y="176" type="line" smooth="yes"/>
      <point x="397" y="95"/>
      <point x="378" y="60"/>
      <point x="324" y="60" type="curve" smooth="yes"/>
      <point x="281" y="60"/>
      <point x="256" y="105"/>
      <point x="256" y="152" type="curve" smooth="yes"/>
      <point x="256" y="184"/>
      <point x="263" y="194"/>
      <point x="266" y="200" type="curve"/>
      <point x="246" y="215"/>
      <point x="218" y="223"/>
      <point x="191" y="223" type="curve" smooth="yes"/>
      <point x="138" y="223"/>
      <point x="86" y="194"/>
      <point x="86" y="132" type="curve" smooth="yes"/>
      <point x="86" y="66"/>
      <point x="148" y="-14"/>
      <point x="322" y="-14" type="curve" smooth="yes"/>
      <point x="473" y="-14"/>
      <point x="567" y="50"/>
      <point x="567" y="214" type="curve" smooth="yes"/>
      <point x="567" y="600" type="line" smooth="yes"/>
      <point x="567" y="643"/>
      <point x="576" y="658"/>
      <point x="606" y="658" type="curve" smooth="yes"/>
      <point x="622" y="658" type="line"/>
      <point x="622" y="714" type="line"/>
    </contour>
  </outline>
</glyph>
<glyph name="Chin-oldgeorgian" format="2">
  <advance width="656"/>
  <unicode hex="10B9"/>
  <note>
uni10B9
</note>
  <outline>
    <contour>
      <point x="598" y="55" type="line" smooth="yes"/>
      <point x="579" y="55"/>
      <point x="566" y="74"/>
      <point x="566" y="111" type="curve" smooth="yes"/>
      <point x="566" y="438" type="line"/>
      <point x="252" y="438" type="line"/>
      <point x="252" y="601" type="line" smooth="yes"/>
      <point x="252" y="643"/>
      <point x="271" y="658"/>
      <point x="295" y="658" type="curve" smooth="yes"/>
      <point x="309" y="658" type="line"/>
      <point x="309" y="714" type="line"/>
      <point x="33" y="714" type="line"/>
      <point x="33" y="658" type="line"/>
      <point x="45" y="658" type="line" smooth="yes"/>
      <point x="75" y="658"/>
      <point x="84" y="643"/>
      <point x="84" y="600" type="curve" smooth="yes"/>
      <point x="84" y="110" type="line" smooth="yes"/>
      <point x="84" y="75"/>
      <point x="71" y="55"/>
      <point x="48" y="55" type="curve" smooth="yes"/>
      <point x="18" y="55" type="line"/>
      <point x="18" y="-1" type="line"/>
      <point x="312" y="-1" type="line"/>
      <point x="312" y="55" type="line"/>
      <point x="281" y="55" type="line" smooth="yes"/>
      <point x="261" y="55"/>
      <point x="252" y="75"/>
      <point x="252" y="110" type="curve" smooth="yes"/>
      <point x="252" y="374" type="line"/>
      <point x="398" y="374" type="line"/>
      <point x="398" y="-1" type="line"/>
      <point x="642" y="-1" type="line"/>
      <point x="642" y="55" type="line"/>
    </contour>
  </outline>
</glyph>
<glyph name="Can-oldgeorgian" format="2">
  <advance width="591"/>
  <unicode hex="10BA"/>
  <note>
uni10BA
</note>
  <outline>
    <contour>
      <point x="319" y="-214" type="curve" smooth="yes"/>
      <point x="355" y="-214"/>
      <point x="419" y="-191"/>
      <point x="475" y="-116" type="curve" smooth="yes"/>
      <point x="528" y="-45"/>
      <point x="555" y="45"/>
      <point x="555" y="128" type="curve" smooth="yes"/>
      <point x="555" y="143"/>
      <point x="550" y="163"/>
      <point x="542" y="172" type="curve"/>
      <point x="514" y="126"/>
      <point x="467" y="71"/>
      <point x="378" y="71" type="curve" smooth="yes"/>
      <point x="261" y="71"/>
      <point x="221" y="157"/>
      <point x="221" y="358" type="curve" smooth="yes"/>
      <point x="221" y="552"/>
      <point x="248" y="661"/>
      <point x="339" y="661" type="curve" smooth="yes"/>
      <point x="406" y="661"/>
      <point x="426" y="587"/>
      <point x="426" y="520" type="curve"/>
      <point x="513" y="520"/>
      <point x="554" y="559"/>
      <point x="554" y="610" type="curve" smooth="yes"/>
      <point x="554" y="675"/>
      <point x="486" y="728"/>
      <point x="348" y="728" type="curve" smooth="yes"/>
      <point x="149" y="728"/>
      <point x="45" y="579"/>
      <point x="45" y="358" type="curve" smooth="yes"/>
      <point x="45" y="137"/>
      <point x="146" y="-10"/>
      <point x="349" y="-10" type="curve" smooth="yes"/>
      <point x="391" y="-10"/>
      <point x="430" y="0"/>
      <point x="457" y="12" type="curve"/>
      <point x="429" y="-59"/>
      <point x="383" y="-96"/>
      <point x="343" y="-96" type="curve" smooth="yes"/>
      <point x="318" y="-96"/>
      <point x="292" y="-88"/>
      <point x="273" y="-73" type="curve"/>
      <point x="252" y="-99"/>
      <point x="241" y="-120"/>
      <point x="241" y="-148" type="curve" smooth="yes"/>
      <point x="241" y="-186"/>
      <point x="267" y="-214"/>
    </contour>
  </outline>
</glyph>
<glyph name="Jil-oldgeorgian" format="2">
  <advance width="893"/>
  <unicode hex="10BB"/>
  <note>
uni10BB
</note>
  <outline>
    <contour>
      <point x="279" y="-14" type="curve" smooth="yes"/>
      <point x="432" y="-14"/>
      <point x="526" y="50"/>
      <point x="526" y="218" type="curve" smooth="yes"/>
      <point x="526" y="379" type="line"/>
      <point x="635" y="379" type="line"/>
      <point x="635" y="-1" type="line"/>
      <point x="879" y="-1" type="line"/>
      <point x="879" y="55" type="line"/>
      <point x="835" y="55" type="line" smooth="yes"/>
      <point x="816" y="55"/>
      <point x="803" y="74"/>
      <point x="803" y="111" type="curve" smooth="yes"/>
      <point x="803" y="445" type="line"/>
      <point x="526" y="445" type="line"/>
      <point x="526" y="600" type="line" smooth="yes"/>
      <point x="526" y="643"/>
      <point x="536" y="658"/>
      <point x="566" y="658" type="curve" smooth="yes"/>
      <point x="578" y="658" type="line"/>
      <point x="578" y="714" type="line"/>
      <point x="302" y="714" type="line"/>
      <point x="302" y="658" type="line"/>
      <point x="316" y="658" type="line" smooth="yes"/>
      <point x="340" y="658"/>
      <point x="359" y="643"/>
      <point x="359" y="601" type="curve" smooth="yes"/>
      <point x="359" y="445" type="line"/>
      <point x="297" y="445" type="line" smooth="yes"/>
      <point x="110" y="445"/>
      <point x="42" y="355"/>
      <point x="42" y="223" type="curve" smooth="yes"/>
      <point x="42" y="79"/>
      <point x="110" y="-14"/>
    </contour>
    <contour>
      <point x="281" y="60" type="curve" smooth="yes"/>
      <point x="237" y="60"/>
      <point x="209" y="110"/>
      <point x="209" y="225" type="curve" smooth="yes"/>
      <point x="209" y="341"/>
      <point x="234" y="379"/>
      <point x="294" y="379" type="curve" smooth="yes"/>
      <point x="359" y="379" type="line"/>
      <point x="359" y="218" type="line" smooth="yes"/>
      <point x="359" y="97"/>
      <point x="337" y="60"/>
    </contour>
  </outline>
</glyph>
<glyph name="Cil-oldgeorgian" format="2">
  <advance width="553"/>
  <unicode hex="10BC"/>
  <note>
uni10BC
</note>
  <outline>
    <contour>
      <point x="94" y="0" type="line"/>
      <point x="262" y="0" type="line"/>
      <point x="262" y="170" type="line"/>
      <point x="289" y="170" type="line" smooth="yes"/>
      <point x="325" y="170"/>
      <point x="361" y="153"/>
      <point x="361" y="64" type="curve"/>
      <point x="436" y="64"/>
      <point x="475" y="92"/>
      <point x="475" y="143" type="curve" smooth="yes"/>
      <point x="475" y="210"/>
      <point x="411" y="238"/>
      <point x="300" y="238" type="curve" smooth="yes"/>
      <point x="262" y="238" type="line"/>
      <point x="262" y="291" type="line"/>
      <point x="280" y="291" type="line" smooth="yes"/>
      <point x="477" y="291"/>
      <point x="551" y="381"/>
      <point x="551" y="511" type="curve" smooth="yes"/>
      <point x="551" y="652"/>
      <point x="472" y="714"/>
      <point x="298" y="714" type="curve" smooth="yes"/>
      <point x="18" y="714" type="line"/>
      <point x="18" y="658" type="line"/>
      <point x="55" y="658" type="line" smooth="yes"/>
      <point x="74" y="658"/>
      <point x="94" y="651"/>
      <point x="94" y="599" type="curve" smooth="yes"/>
    </contour>
    <contour>
      <point x="261" y="352" type="line"/>
      <point x="261" y="652" type="line"/>
      <point x="284" y="652" type="line" smooth="yes"/>
      <point x="347" y="652"/>
      <point x="377" y="613"/>
      <point x="377" y="507" type="curve" smooth="yes"/>
      <point x="377" y="389"/>
      <point x="345" y="352"/>
      <point x="272" y="352" type="curve" smooth="yes"/>
    </contour>
  </outline>
</glyph>
<glyph name="Xan-oldgeorgian" format="2">
  <advance width="659"/>
  <unicode hex="10BE"/>
  <note>
uni10BE
</note>
  <outline>
    <contour>
      <point x="18" y="0" type="line"/>
      <point x="576" y="0" type="line"/>
      <point x="576" y="56" type="line"/>
      <point x="262" y="56" type="line"/>
      <point x="262" y="289" type="line"/>
      <point x="566" y="289" type="line"/>
      <point x="566" y="602" type="line"/>
      <point x="566" y="639"/>
      <point x="579" y="658"/>
      <point x="598" y="658" type="curve" smooth="yes"/>
      <point x="642" y="658" type="line"/>
      <point x="642" y="714" type="line"/>
      <point x="398" y="714" type="line"/>
      <point x="398" y="353" type="line"/>
      <point x="262" y="353" type="line"/>
      <point x="262" y="603" type="line" smooth="yes"/>
      <point x="262" y="638"/>
      <point x="271" y="658"/>
      <point x="291" y="658" type="curve" smooth="yes"/>
      <point x="322" y="658" type="line"/>
      <point x="322" y="714" type="line"/>
      <point x="18" y="714" type="line"/>
      <point x="18" y="658" type="line"/>
      <point x="62" y="658" type="line" smooth="yes"/>
      <point x="81" y="658"/>
      <point x="94" y="638"/>
      <point x="94" y="603" type="curve" smooth="yes"/>
      <point x="94" y="113" type="line" smooth="yes"/>
      <point x="94" y="71"/>
      <point x="76" y="56"/>
      <point x="54" y="56" type="curve" smooth="yes"/>
      <point x="18" y="56" type="line"/>
    </contour>
  </outline>
</glyph>
<glyph name="Jhan-oldgeorgian" format="2">
  <advance width="650"/>
  <unicode hex="10BF"/>
  <note>
uni10BF
</note>
  <outline>
    <contour>
      <point x="9" y="0" type="line"/>
      <point x="28" y="0" type="line" smooth="yes"/>
      <point x="99" y="0"/>
      <point x="123" y="33"/>
      <point x="157" y="87" type="curve" smooth="yes"/>
      <point x="287" y="293" type="line"/>
      <point x="360" y="158" type="line" smooth="yes"/>
      <point x="383" y="115"/>
      <point x="387" y="104"/>
      <point x="387" y="89" type="curve" smooth="yes"/>
      <point x="387" y="67"/>
      <point x="370" y="56"/>
      <point x="337" y="56" type="curve" smooth="yes"/>
      <point x="333" y="56" type="line"/>
      <point x="333" y="0" type="line"/>
      <point x="645" y="0" type="line"/>
      <point x="645" y="56" type="line"/>
      <point x="634" y="56" type="line" smooth="yes"/>
      <point x="613" y="56"/>
      <point x="590" y="69"/>
      <point x="568" y="109" type="curve" smooth="yes"/>
      <point x="414" y="389" type="line"/>
      <point x="577" y="658" type="line"/>
      <point x="577" y="714" type="line"/>
      <point x="31" y="714" type="line"/>
      <point x="31" y="658" type="line"/>
      <point x="85" y="658" type="line"/>
      <point x="252" y="352" type="line"/>
      <point x="101" y="125" type="line" smooth="yes"/>
      <point x="74" y="84"/>
      <point x="54" y="56"/>
      <point x="14" y="56" type="curve" smooth="yes"/>
      <point x="9" y="56" type="line"/>
    </contour>
    <contour>
      <point x="380" y="450" type="line"/>
      <point x="266" y="658" type="line"/>
      <point x="425" y="658" type="line" smooth="yes"/>
      <point x="451" y="658"/>
      <point x="471" y="653"/>
      <point x="471" y="629" type="curve" smooth="yes"/>
      <point x="471" y="611"/>
      <point x="456" y="585"/>
      <point x="447" y="568" type="curve" smooth="yes"/>
    </contour>
  </outline>
</glyph>
<glyph name="Hae-oldgeorgian" format="2">
  <advance width="885"/>
  <unicode hex="10C0"/>
  <note>
uni10C0
</note>
  <outline>
    <contour>
      <point x="606" y="-14" type="curve" smooth="yes"/>
      <point x="789" y="-14"/>
      <point x="856" y="76"/>
      <point x="856" y="214" type="curve" smooth="yes"/>
      <point x="856" y="300"/>
      <point x="817" y="363"/>
      <point x="727" y="363" type="curve" smooth="yes"/>
      <point x="702" y="363"/>
      <point x="677" y="358"/>
      <point x="656" y="347" type="curve"/>
      <point x="681" y="307"/>
      <point x="689" y="263"/>
      <point x="689" y="216" type="curve" smooth="yes"/>
      <point x="689" y="107"/>
      <point x="656" y="60"/>
      <point x="605" y="60" type="curve" smooth="yes"/>
      <point x="541" y="60"/>
      <point x="515" y="95"/>
      <point x="515" y="210" type="curve" smooth="yes"/>
      <point x="515" y="619" type="line" smooth="yes"/>
      <point x="515" y="648"/>
      <point x="531" y="658"/>
      <point x="556" y="658" type="curve" smooth="yes"/>
      <point x="572" y="658" type="line"/>
      <point x="572" y="714" type="line"/>
      <point x="18" y="714" type="line"/>
      <point x="18" y="658" type="line"/>
      <point x="34" y="658" type="line" smooth="yes"/>
      <point x="64" y="658"/>
      <point x="76" y="643"/>
      <point x="76" y="600" type="curve" smooth="yes"/>
      <point x="76" y="433" type="line" smooth="yes"/>
      <point x="76" y="390"/>
      <point x="64" y="375"/>
      <point x="34" y="375" type="curve" smooth="yes"/>
      <point x="18" y="375" type="line"/>
      <point x="18" y="319" type="line"/>
      <point x="243" y="319" type="line"/>
      <point x="243" y="640" type="line"/>
      <point x="347" y="640" type="line"/>
      <point x="347" y="218" type="line" smooth="yes"/>
      <point x="347" y="50"/>
      <point x="446" y="-14"/>
    </contour>
  </outline>
</glyph>
<glyph name="He-oldgeorgian" format="2">
  <advance width="712"/>
  <unicode hex="10C1"/>
  <note>
uni10C1
</note>
  <outline>
    <contour>
      <point x="86" y="0" type="line"/>
      <point x="256" y="0" type="line"/>
      <point x="256" y="362" type="line" smooth="yes"/>
      <point x="256" y="408"/>
      <point x="287" y="454"/>
      <point x="332" y="454" type="curve" smooth="yes"/>
      <point x="382" y="454"/>
      <point x="397" y="418"/>
      <point x="397" y="358" type="curve" smooth="yes"/>
      <point x="397" y="244" type="line"/>
      <point x="702" y="244" type="line"/>
      <point x="702" y="308" type="line"/>
      <point x="567" y="308" type="line"/>
      <point x="567" y="360" type="line" smooth="yes"/>
      <point x="567" y="494"/>
      <point x="500" y="550"/>
      <point x="395" y="550" type="curve" smooth="yes"/>
      <point x="340" y="550"/>
      <point x="292" y="526"/>
      <point x="256" y="478" type="curve"/>
      <point x="252" y="478" type="line"/>
      <point x="255" y="502"/>
      <point x="256" y="526"/>
      <point x="256" y="550" type="curve" smooth="yes"/>
      <point x="256" y="714" type="line"/>
      <point x="16" y="714" type="line"/>
      <point x="16" y="658" type="line"/>
      <point x="42" y="658" type="line" smooth="yes"/>
      <point x="72" y="658"/>
      <point x="86" y="651"/>
      <point x="86" y="599" type="curve" smooth="yes"/>
    </contour>
  </outline>
</glyph>
<glyph name="Hie-oldgeorgian" format="2">
  <advance width="591"/>
  <unicode hex="10C2"/>
  <note>
uni10C2
</note>
  <outline>
    <contour>
      <point x="243" y="-14" type="curve" smooth="yes"/>
      <point x="442" y="-14"/>
      <point x="546" y="120"/>
      <point x="546" y="291" type="curve" smooth="yes"/>
      <point x="546" y="451"/>
      <point x="463" y="592"/>
      <point x="283" y="592" type="curve" smooth="yes"/>
      <point x="273" y="592" type="line"/>
      <point x="273" y="714" type="line"/>
      <point x="28" y="714" type="line"/>
      <point x="28" y="658" type="line"/>
      <point x="63" y="658" type="line" smooth="yes"/>
      <point x="96" y="658"/>
      <point x="105" y="651"/>
      <point x="105" y="595" type="curve" smooth="yes"/>
      <point x="105" y="522" type="line"/>
      <point x="205" y="522" type="line" smooth="yes"/>
      <point x="329" y="522"/>
      <point x="370" y="441"/>
      <point x="370" y="290" type="curve" smooth="yes"/>
      <point x="370" y="147"/>
      <point x="343" y="53"/>
      <point x="252" y="53" type="curve" smooth="yes"/>
      <point x="186" y="53"/>
      <point x="165" y="140"/>
      <point x="165" y="208" type="curve"/>
      <point x="78" y="208"/>
      <point x="37" y="164"/>
      <point x="37" y="113" type="curve" smooth="yes"/>
      <point x="37" y="49"/>
      <point x="105" y="-14"/>
    </contour>
  </outline>
</glyph>
<glyph name="We-oldgeorgian" format="2">
  <advance width="644"/>
  <unicode hex="10C3"/>
  <note>
uni10C3
</note>
  <outline>
    <contour>
      <point x="332" y="714" type="line"/>
      <point x="332" y="658" type="line"/>
      <point x="346" y="658" type="line" smooth="yes"/>
      <point x="370" y="658"/>
      <point x="388" y="643"/>
      <point x="388" y="601" type="curve" smooth="yes"/>
      <point x="388" y="428" type="line" smooth="yes"/>
      <point x="388" y="360"/>
      <point x="350" y="311"/>
      <point x="291" y="311" type="curve" smooth="yes"/>
      <point x="231" y="311"/>
      <point x="204" y="364"/>
      <point x="204" y="432" type="curve" smooth="yes"/>
      <point x="204" y="488"/>
      <point x="210" y="526"/>
      <point x="230" y="558" type="curve"/>
      <point x="211" y="569"/>
      <point x="187" y="575"/>
      <point x="163" y="575" type="curve" smooth="yes"/>
      <point x="101" y="575"/>
      <point x="34" y="533"/>
      <point x="34" y="417" type="curve" smooth="yes"/>
      <point x="34" y="292"/>
      <point x="128" y="230"/>
      <point x="224" y="230" type="curve" smooth="yes"/>
      <point x="298" y="230"/>
      <point x="352" y="254"/>
      <point x="388" y="302" type="curve"/>
      <point x="392" y="302" type="line"/>
      <point x="389" y="278"/>
      <point x="388" y="254"/>
      <point x="388" y="230" type="curve" smooth="yes"/>
      <point x="388" y="0" type="line"/>
      <point x="558" y="0" type="line"/>
      <point x="558" y="600" type="line" smooth="yes"/>
      <point x="558" y="643"/>
      <point x="567" y="658"/>
      <point x="597" y="658" type="curve" smooth="yes"/>
      <point x="613" y="658" type="line"/>
      <point x="613" y="714" type="line"/>
    </contour>
  </outline>
</glyph>
<glyph name="Har-oldgeorgian" format="2">
  <advance width="645"/>
  <unicode hex="10C4"/>
  <note>
uni10C4
</note>
  <outline>
    <contour>
      <point x="355" y="714" type="line"/>
      <point x="355" y="658" type="line"/>
      <point x="359" y="658" type="line" smooth="yes"/>
      <point x="383" y="658"/>
      <point x="397" y="643"/>
      <point x="397" y="601" type="curve" smooth="yes"/>
      <point x="397" y="450" type="line" smooth="yes"/>
      <point x="397" y="339"/>
      <point x="378" y="304"/>
      <point x="324" y="304" type="curve" smooth="yes"/>
      <point x="281" y="304"/>
      <point x="256" y="341"/>
      <point x="256" y="426" type="curve" smooth="yes"/>
      <point x="256" y="600" type="line" smooth="yes"/>
      <point x="256" y="643"/>
      <point x="265" y="658"/>
      <point x="291" y="658" type="curve" smooth="yes"/>
      <point x="297" y="658" type="line"/>
      <point x="297" y="714" type="line"/>
      <point x="30" y="714" type="line"/>
      <point x="30" y="658" type="line"/>
      <point x="44" y="658" type="line" smooth="yes"/>
      <point x="68" y="658"/>
      <point x="86" y="643"/>
      <point x="86" y="601" type="curve" smooth="yes"/>
      <point x="86" y="424" type="line" smooth="yes"/>
      <point x="86" y="329"/>
      <point x="127" y="260"/>
      <point x="242" y="238" type="curve"/>
      <point x="242" y="0" type="line"/>
      <point x="412" y="0" type="line"/>
      <point x="412" y="239" type="line"/>
      <point x="508" y="262"/>
      <point x="567" y="331"/>
      <point x="567" y="458" type="curve" smooth="yes"/>
      <point x="567" y="600" type="line" smooth="yes"/>
      <point x="567" y="643"/>
      <point x="576" y="658"/>
      <point x="606" y="658" type="curve" smooth="yes"/>
      <point x="622" y="658" type="line"/>
      <point x="622" y="714" type="line"/>
    </contour>
  </outline>
</glyph>
<glyph name="Hoe-oldgeorgian" format="2">
  <advance width="704"/>
  <unicode hex="10C5"/>
  <note>
uni10C5
</note>
  <outline>
    <contour>
      <point x="201" y="-14" type="curve" smooth="yes"/>
      <point x="333" y="-14"/>
      <point x="413" y="42"/>
      <point x="413" y="130" type="curve" smooth="yes"/>
      <point x="413" y="199" type="line"/>
      <point x="440" y="199" type="line" smooth="yes"/>
      <point x="496" y="199"/>
      <point x="528" y="182"/>
      <point x="528" y="93" type="curve"/>
      <point x="603" y="93"/>
      <point x="642" y="121"/>
      <point x="642" y="172" type="curve" smooth="yes"/>
      <point x="642" y="239"/>
      <point x="582" y="263"/>
      <point x="471" y="263" type="curve" smooth="yes"/>
      <point x="413" y="263" type="line"/>
      <point x="413" y="319" type="line"/>
      <point x="431" y="319" type="line" smooth="yes"/>
      <point x="628" y="319"/>
      <point x="702" y="408"/>
      <point x="702" y="524" type="curve" smooth="yes"/>
      <point x="702" y="650"/>
      <point x="623" y="714"/>
      <point x="449" y="714" type="curve" smooth="yes"/>
      <point x="169" y="714" type="line"/>
      <point x="169" y="658" type="line"/>
      <point x="206" y="658" type="line" smooth="yes"/>
      <point x="225" y="658"/>
      <point x="245" y="651"/>
      <point x="245" y="599" type="curve" smooth="yes"/>
      <point x="245" y="263" type="line"/>
      <point x="202" y="263" type="line" smooth="yes"/>
      <point x="90" y="263"/>
      <point x="10" y="229"/>
      <point x="10" y="132" type="curve" smooth="yes"/>
      <point x="10" y="38"/>
      <point x="64" y="-14"/>
    </contour>
    <contour>
      <point x="200" y="49" type="curve" smooth="yes"/>
      <point x="175" y="49"/>
      <point x="162" y="71"/>
      <point x="162" y="124" type="curve" smooth="yes"/>
      <point x="162" y="175"/>
      <point x="176" y="199"/>
      <point x="216" y="199" type="curve" smooth="yes"/>
      <point x="245" y="199" type="line"/>
      <point x="245" y="131" type="line" smooth="yes"/>
      <point x="245" y="66"/>
      <point x="228" y="49"/>
    </contour>
    <contour>
      <point x="412" y="380" type="line"/>
      <point x="412" y="652" type="line"/>
      <point x="435" y="652" type="line" smooth="yes"/>
      <point x="498" y="652"/>
      <point x="528" y="610"/>
      <point x="528" y="520" type="curve" smooth="yes"/>
      <point x="528" y="420"/>
      <point x="496" y="380"/>
      <point x="423" y="380" type="curve" smooth="yes"/>
    </contour>
  </outline>
</glyph>
<glyph name="Yn-oldgeorgian" format="2">
  <advance width="504"/>
  <unicode hex="10C7"/>
  <outline>
    <contour>
      <point x="258" y="-14" type="curve" smooth="yes"/>
      <point x="447" y="-14"/>
      <point x="484" y="70"/>
      <point x="484" y="128" type="curve" smooth="yes"/>
      <point x="484" y="205"/>
      <point x="429" y="229"/>
      <point x="373" y="229" type="curve"/>
      <point x="373" y="104"/>
      <point x="307" y="48"/>
      <point x="248" y="48" type="curve" smooth="yes"/>
      <point x="190" y="48"/>
      <point x="158" y="100"/>
      <point x="158" y="155" type="curve" smooth="yes"/>
      <point x="158" y="224"/>
      <point x="214" y="258"/>
      <point x="305" y="302" type="curve" smooth="yes"/>
      <point x="431" y="363"/>
      <point x="466" y="432"/>
      <point x="466" y="526" type="curve" smooth="yes"/>
      <point x="466" y="646"/>
      <point x="390" y="728"/>
      <point x="256" y="728" type="curve" smooth="yes"/>
      <point x="106" y="728"/>
      <point x="48" y="661"/>
      <point x="48" y="601" type="curve" smooth="yes"/>
      <point x="48" y="553"/>
      <point x="79" y="519"/>
      <point x="169" y="519" type="curve"/>
      <point x="169" y="586"/>
      <point x="202" y="665"/>
      <point x="261" y="665" type="curve" smooth="yes"/>
      <point x="302" y="665"/>
      <point x="334" y="632"/>
      <point x="334" y="574" type="curve" smooth="yes"/>
      <point x="334" y="526"/>
      <point x="311" y="486"/>
      <point x="187" y="429" type="curve" smooth="yes"/>
      <point x="60" y="370"/>
      <point x="24" y="304"/>
      <point x="24" y="206" type="curve" smooth="yes"/>
      <point x="24" y="67"/>
      <point x="97" y="-14"/>
    </contour>
  </outline>
</glyph>
<glyph name="Aen-oldgeorgian" format="2">
  <advance width="601"/>
  <unicode hex="10CD"/>
  <outline>
    <contour>
      <point x="38" y="0" type="line"/>
      <point x="559" y="0" type="line"/>
      <point x="563" y="214" type="line"/>
      <point x="490" y="214" type="line"/>
      <point x="486" y="169" type="line" smooth="yes"/>
      <point x="481" y="117"/>
      <point x="467" y="64"/>
      <point x="385" y="64" type="curve" smooth="yes"/>
      <point x="227" y="64" type="line"/>
      <point x="541" y="661" type="line"/>
      <point x="541" y="714" type="line"/>
      <point x="59" y="714" type="line"/>
      <point x="54" y="500" type="line"/>
      <point x="127" y="500" type="line"/>
      <point x="131" y="557" type="line" smooth="yes"/>
      <point x="135" y="614"/>
      <point x="144" y="650"/>
      <point x="200" y="650" type="curve" smooth="yes"/>
      <point x="351" y="650" type="line"/>
      <point x="38" y="52" type="line"/>
    </contour>
  </outline>
</glyph>
<glyph name="an-georgian" format="2">
  <advance width="502"/>
  <unicode hex="10D0"/>
  <note>
uni10D0
</note>
  <anchor x="255" y="536" name="top"/>
  <outline>
    <contour>
      <point x="246" y="-14" type="curve" smooth="yes"/>
      <point x="370" y="-14"/>
      <point x="468" y="49"/>
      <point x="468" y="178" type="curve" smooth="yes"/>
      <point x="468" y="273"/>
      <point x="420" y="321"/>
      <point x="378" y="366" type="curve" smooth="yes"/>
      <point x="346" y="401"/>
      <point x="316" y="433"/>
      <point x="316" y="483" type="curve" smooth="yes"/>
      <point x="316" y="499"/>
      <point x="320" y="517"/>
      <point x="328" y="531" type="curve"/>
      <point x="313" y="543"/>
      <point x="295" y="550"/>
      <point x="264" y="550" type="curve" smooth="yes"/>
      <point x="211" y="550"/>
      <point x="174" y="515"/>
      <point x="174" y="465" type="curve" smooth="yes"/>
      <point x="174" y="400"/>
      <point x="206" y="363"/>
      <point x="237" y="325" type="curve" smooth="yes"/>
      <point x="269" y="285"/>
      <point x="302" y="245"/>
      <point x="302" y="170" type="curve" smooth="yes"/>
      <point x="302" y="94"/>
      <point x="285" y="53"/>
      <point x="245" y="53" type="curve" smooth="yes"/>
      <point x="208" y="53"/>
      <point x="192" y="94"/>
      <point x="192" y="170" type="curve" smooth="yes"/>
      <point x="192" y="199"/>
      <point x="195" y="229"/>
      <point x="205" y="254" type="curve"/>
      <point x="185" y="268"/>
      <point x="158" y="275"/>
      <point x="138" y="275" type="curve" smooth="yes"/>
      <point x="76" y="275"/>
      <point x="29" y="232"/>
      <point x="29" y="157" type="curve" smooth="yes"/>
      <point x="29" y="83"/>
      <point x="71" y="-14"/>
    </contour>
  </outline>
</glyph>
<glyph name="ban-georgian" format="2">
  <advance width="534"/>
  <unicode hex="10D1"/>
  <note>
uni10D1
</note>
  <outline>
    <contour>
      <point x="344" y="535" type="curve"/>
      <point x="352" y="550"/>
      <point x="358" y="567"/>
      <point x="358" y="586" type="curve" smooth="yes"/>
      <point x="358" y="621"/>
      <point x="339" y="644"/>
      <point x="319" y="662" type="curve" smooth="yes"/>
      <point x="298" y="681"/>
      <point x="280" y="701"/>
      <point x="280" y="721" type="curve" smooth="yes"/>
      <point x="280" y="732"/>
      <point x="282" y="742"/>
      <point x="287" y="752" type="curve"/>
      <point x="268" y="766"/>
      <point x="247" y="774"/>
      <point x="214" y="774" type="curve" smooth="yes"/>
      <point x="177" y="774"/>
      <point x="135" y="751"/>
      <point x="135" y="704" type="curve" smooth="yes"/>
      <point x="135" y="672"/>
      <point x="156" y="650"/>
      <point x="180" y="629" type="curve" smooth="yes"/>
      <point x="197" y="614"/>
      <point x="211" y="595"/>
      <point x="211" y="568" type="curve" smooth="yes"/>
      <point x="211" y="558"/>
      <point x="209" y="548"/>
      <point x="207" y="540" type="curve"/>
      <point x="93" y="518"/>
      <point x="34" y="431"/>
      <point x="34" y="270" type="curve" smooth="yes"/>
      <point x="34" y="78"/>
      <point x="121" y="-14"/>
      <point x="265" y="-14" type="curve" smooth="yes"/>
      <point x="419" y="-14"/>
      <point x="500" y="78"/>
      <point x="500" y="270" type="curve" smooth="yes"/>
      <point x="500" y="422"/>
      <point x="442" y="508"/>
    </contour>
    <contour>
      <point x="267" y="52" type="curve" smooth="yes"/>
      <point x="217" y="52"/>
      <point x="200" y="126"/>
      <point x="200" y="270" type="curve" smooth="yes"/>
      <point x="200" y="411"/>
      <point x="216" y="483"/>
      <point x="266" y="483" type="curve" smooth="yes"/>
      <point x="316" y="483"/>
      <point x="334" y="411"/>
      <point x="334" y="270" type="curve" smooth="yes"/>
      <point x="334" y="126"/>
      <point x="317" y="52"/>
    </contour>
  </outline>
</glyph>
<glyph name="gan-georgian" format="2">
  <advance width="524"/>
  <unicode hex="10D2"/>
  <note>
uni10D2
</note>
  <outline>
    <contour>
      <point x="260" y="-254" type="curve" smooth="yes"/>
      <point x="414" y="-254"/>
      <point x="495" y="-162"/>
      <point x="495" y="30" type="curve" smooth="yes"/>
      <point x="495" y="182"/>
      <point x="438" y="270"/>
      <point x="331" y="293" type="curve"/>
      <point x="331" y="297" type="line"/>
      <point x="398" y="313"/>
      <point x="448" y="355"/>
      <point x="448" y="416" type="curve" smooth="yes"/>
      <point x="448" y="504"/>
      <point x="359" y="550"/>
      <point x="254" y="550" type="curve" smooth="yes"/>
      <point x="141" y="550"/>
      <point x="63" y="504"/>
      <point x="63" y="428" type="curve" smooth="yes"/>
      <point x="63" y="388"/>
      <point x="100" y="352"/>
      <point x="153" y="352" type="curve" smooth="yes"/>
      <point x="175" y="352"/>
      <point x="202" y="357"/>
      <point x="223" y="365" type="curve"/>
      <point x="218" y="377"/>
      <point x="213" y="397"/>
      <point x="213" y="424" type="curve" smooth="yes"/>
      <point x="213" y="460"/>
      <point x="227" y="485"/>
      <point x="255" y="485" type="curve" smooth="yes"/>
      <point x="283" y="485"/>
      <point x="298" y="460"/>
      <point x="298" y="421" type="curve" smooth="yes"/>
      <point x="298" y="376"/>
      <point x="295" y="332"/>
      <point x="231" y="313" type="curve" smooth="yes"/>
      <point x="96" y="273"/>
      <point x="29" y="208"/>
      <point x="29" y="30" type="curve" smooth="yes"/>
      <point x="29" y="-162"/>
      <point x="116" y="-254"/>
    </contour>
    <contour>
      <point x="262" y="-188" type="curve" smooth="yes"/>
      <point x="212" y="-188"/>
      <point x="195" y="-114"/>
      <point x="195" y="30" type="curve" smooth="yes"/>
      <point x="195" y="171"/>
      <point x="211" y="243"/>
      <point x="261" y="243" type="curve" smooth="yes"/>
      <point x="311" y="243"/>
      <point x="329" y="171"/>
      <point x="329" y="30" type="curve" smooth="yes"/>
      <point x="329" y="-114"/>
      <point x="312" y="-188"/>
    </contour>
  </outline>
</glyph>
<glyph name="don-georgian" format="2">
  <advance width="769"/>
  <unicode hex="10D3"/>
  <note>
uni10D3
</note>
  <outline>
    <contour>
      <point x="515" y="7" type="curve" smooth="yes"/>
      <point x="649" y="7"/>
      <point x="735" y="100"/>
      <point x="735" y="278" type="curve" smooth="yes"/>
      <point x="735" y="457"/>
      <point x="656" y="550"/>
      <point x="523" y="550" type="curve" smooth="yes"/>
      <point x="453" y="550"/>
      <point x="400" y="513"/>
      <point x="378" y="449" type="curve"/>
      <point x="373" y="449" type="line"/>
      <point x="351" y="513"/>
      <point x="297" y="550"/>
      <point x="235" y="550" type="curve" smooth="yes"/>
      <point x="122" y="550"/>
      <point x="34" y="458"/>
      <point x="34" y="278" type="curve" smooth="yes"/>
      <point x="34" y="98"/>
      <point x="113" y="-26"/>
      <point x="244" y="-81" type="curve"/>
      <point x="244" y="-85" type="line"/>
      <point x="205" y="-92"/>
      <point x="171" y="-106"/>
      <point x="146" y="-124" type="curve"/>
      <point x="175" y="-170" type="line"/>
      <point x="213" y="-149"/>
      <point x="264" y="-129"/>
      <point x="331" y="-129" type="curve" smooth="yes"/>
      <point x="429" y="-129"/>
      <point x="504" y="-181"/>
      <point x="504" y="-254" type="curve"/>
      <point x="564" y="-254"/>
      <point x="607" y="-240"/>
      <point x="607" y="-185" type="curve" smooth="yes"/>
      <point x="607" y="-108"/>
      <point x="525" y="-69"/>
      <point x="415" y="-34" type="curve" smooth="yes"/>
      <point x="280" y="9"/>
      <point x="199" y="93"/>
      <point x="199" y="278" type="curve" smooth="yes"/>
      <point x="199" y="429"/>
      <point x="213" y="483"/>
      <point x="248" y="483" type="curve" smooth="yes"/>
      <point x="280" y="483"/>
      <point x="295" y="451"/>
      <point x="295" y="350" type="curve" smooth="yes"/>
      <point x="295" y="278" type="line" smooth="yes"/>
      <point x="295" y="100"/>
      <point x="375" y="7"/>
    </contour>
    <contour>
      <point x="513" y="483" type="curve" smooth="yes"/>
      <point x="557" y="483"/>
      <point x="570" y="429"/>
      <point x="570" y="278" type="curve" smooth="yes"/>
      <point x="570" y="132"/>
      <point x="557" y="74"/>
      <point x="513" y="74" type="curve" smooth="yes"/>
      <point x="473" y="74"/>
      <point x="456" y="132"/>
      <point x="456" y="278" type="curve" smooth="yes"/>
      <point x="456" y="430"/>
      <point x="473" y="483"/>
    </contour>
  </outline>
</glyph>
<glyph name="en-georgian" format="2">
  <advance width="530"/>
  <unicode hex="10D4"/>
  <note>
uni10D4
</note>
  <anchor x="265" y="536" name="top"/>
  <outline>
    <contour>
      <point x="250" y="-254" type="curve" smooth="yes"/>
      <point x="392" y="-254"/>
      <point x="475" y="-169"/>
      <point x="475" y="3" type="curve" smooth="yes"/>
      <point x="475" y="316" type="line" smooth="yes"/>
      <point x="475" y="483"/>
      <point x="384" y="550"/>
      <point x="256" y="550" type="curve" smooth="yes"/>
      <point x="134" y="550"/>
      <point x="45" y="485"/>
      <point x="45" y="379" type="curve" smooth="yes"/>
      <point x="45" y="308"/>
      <point x="88" y="261"/>
      <point x="149" y="261" type="curve" smooth="yes"/>
      <point x="168" y="261"/>
      <point x="191" y="264"/>
      <point x="214" y="271" type="curve"/>
      <point x="207" y="298"/>
      <point x="203" y="330"/>
      <point x="203" y="365" type="curve" smooth="yes"/>
      <point x="203" y="430"/>
      <point x="219" y="483"/>
      <point x="259" y="483" type="curve" smooth="yes"/>
      <point x="296" y="483"/>
      <point x="312" y="445"/>
      <point x="312" y="358" type="curve" smooth="yes"/>
      <point x="312" y="-57" type="line" smooth="yes"/>
      <point x="312" y="-138"/>
      <point x="295" y="-187"/>
      <point x="250" y="-187" type="curve" smooth="yes"/>
      <point x="208" y="-187"/>
      <point x="192" y="-138"/>
      <point x="192" y="-58" type="curve" smooth="yes"/>
      <point x="192" y="11"/>
      <point x="202" y="50"/>
      <point x="212" y="74" type="curve"/>
      <point x="198" y="87"/>
      <point x="173" y="96"/>
      <point x="146" y="96" type="curve" smooth="yes"/>
      <point x="92" y="96"/>
      <point x="29" y="60"/>
      <point x="29" y="-49" type="curve" smooth="yes"/>
      <point x="29" y="-181"/>
      <point x="100" y="-254"/>
    </contour>
  </outline>
</glyph>
<glyph name="vin-georgian" format="2">
  <advance width="528"/>
  <unicode hex="10D5"/>
  <note>
uni10D5
</note>
  <outline>
    <contour>
      <point x="260" y="-254" type="curve" smooth="yes"/>
      <point x="402" y="-254"/>
      <point x="499" y="-181"/>
      <point x="499" y="-24" type="curve" smooth="yes"/>
      <point x="499" y="115"/>
      <point x="407" y="173"/>
      <point x="331" y="189" type="curve"/>
      <point x="331" y="192" type="line"/>
      <point x="409" y="216"/>
      <point x="472" y="273"/>
      <point x="472" y="369" type="curve" smooth="yes"/>
      <point x="472" y="473"/>
      <point x="384" y="550"/>
      <point x="256" y="550" type="curve" smooth="yes"/>
      <point x="138" y="550"/>
      <point x="45" y="483"/>
      <point x="45" y="399" type="curve" smooth="yes"/>
      <point x="45" y="328"/>
      <point x="88" y="296"/>
      <point x="149" y="296" type="curve" smooth="yes"/>
      <point x="168" y="296"/>
      <point x="191" y="299"/>
      <point x="214" y="306" type="curve"/>
      <point x="207" y="329"/>
      <point x="203" y="352"/>
      <point x="203" y="385" type="curve" smooth="yes"/>
      <point x="203" y="437"/>
      <point x="219" y="483"/>
      <point x="259" y="483" type="curve" smooth="yes"/>
      <point x="294" y="483"/>
      <point x="312" y="445"/>
      <point x="312" y="358" type="curve" smooth="yes"/>
      <point x="312" y="253"/>
      <point x="280" y="227"/>
      <point x="242" y="227" type="curve" smooth="yes"/>
      <point x="203" y="227" type="line"/>
      <point x="203" y="153" type="line"/>
      <point x="242" y="153" type="line" smooth="yes"/>
      <point x="307" y="153"/>
      <point x="333" y="97"/>
      <point x="333" y="-24" type="curve" smooth="yes"/>
      <point x="333" y="-141"/>
      <point x="307" y="-187"/>
      <point x="260" y="-187" type="curve" smooth="yes"/>
      <point x="218" y="-187"/>
      <point x="192" y="-141"/>
      <point x="192" y="-65" type="curve" smooth="yes"/>
      <point x="192" y="-11"/>
      <point x="202" y="25"/>
      <point x="212" y="49" type="curve"/>
      <point x="198" y="62"/>
      <point x="173" y="71"/>
      <point x="146" y="71" type="curve" smooth="yes"/>
      <point x="92" y="71"/>
      <point x="29" y="35"/>
      <point x="29" y="-69" type="curve" smooth="yes"/>
      <point x="29" y="-181"/>
      <point x="110" y="-254"/>
    </contour>
  </outline>
</glyph>
<glyph name="zen-georgian" format="2">
  <advance width="549"/>
  <unicode hex="10D6"/>
  <note>
uni10D6
</note>
  <outline>
    <contour>
      <point x="280" y="-14" type="curve" smooth="yes"/>
      <point x="434" y="-14"/>
      <point x="515" y="78"/>
      <point x="515" y="261" type="curve" smooth="yes"/>
      <point x="515" y="397"/>
      <point x="456" y="491"/>
      <point x="358" y="516" type="curve" smooth="yes"/>
      <point x="354" y="517"/>
      <point x="350" y="518"/>
      <point x="346" y="519" type="curve"/>
      <point x="345" y="521" type="line"/>
      <point x="372" y="548"/>
      <point x="386" y="580"/>
      <point x="386" y="620" type="curve" smooth="yes"/>
      <point x="386" y="718"/>
      <point x="295" y="774"/>
      <point x="194" y="774" type="curve" smooth="yes"/>
      <point x="88" y="774"/>
      <point x="0" y="719"/>
      <point x="0" y="617" type="curve" smooth="yes"/>
      <point x="0" y="542"/>
      <point x="49" y="485"/>
      <point x="127" y="469" type="curve"/>
      <point x="127" y="466" type="line"/>
      <point x="79" y="425"/>
      <point x="49" y="361"/>
      <point x="49" y="261" type="curve" smooth="yes"/>
      <point x="49" y="78"/>
      <point x="136" y="-14"/>
    </contour>
    <contour>
      <point x="282" y="52" type="curve" smooth="yes"/>
      <point x="232" y="52"/>
      <point x="215" y="126"/>
      <point x="215" y="261" type="curve" smooth="yes"/>
      <point x="215" y="397"/>
      <point x="231" y="469"/>
      <point x="281" y="469" type="curve" smooth="yes"/>
      <point x="331" y="469"/>
      <point x="349" y="397"/>
      <point x="349" y="261" type="curve" smooth="yes"/>
      <point x="349" y="126"/>
      <point x="332" y="52"/>
    </contour>
    <contour>
      <point x="193" y="518" type="curve" smooth="yes"/>
      <point x="163" y="518"/>
      <point x="150" y="562"/>
      <point x="150" y="617" type="curve" smooth="yes"/>
      <point x="150" y="675"/>
      <point x="163" y="716"/>
      <point x="193" y="716" type="curve" smooth="yes"/>
      <point x="225" y="716"/>
      <point x="236" y="675"/>
      <point x="236" y="617" type="curve" smooth="yes"/>
      <point x="236" y="562"/>
      <point x="224" y="518"/>
    </contour>
  </outline>
</glyph>
<glyph name="tan-georgian" format="2">
  <advance width="769"/>
  <unicode hex="10D7"/>
  <note>
uni10D7
</note>
  <outline>
    <contour>
      <point x="254" y="-14" type="curve" smooth="yes"/>
      <point x="394" y="-14"/>
      <point x="474" y="79"/>
      <point x="474" y="270" type="curve" smooth="yes"/>
      <point x="474" y="350" type="line" smooth="yes"/>
      <point x="474" y="451"/>
      <point x="490" y="483"/>
      <point x="522" y="483" type="curve" smooth="yes"/>
      <point x="557" y="483"/>
      <point x="570" y="429"/>
      <point x="570" y="270" type="curve" smooth="yes"/>
      <point x="570" y="152"/>
      <point x="548" y="69"/>
      <point x="515" y="50" type="curve"/>
      <point x="515" y="17"/>
      <point x="527" y="-9"/>
      <point x="576" y="-9" type="curve" smooth="yes"/>
      <point x="655" y="-9"/>
      <point x="735" y="94"/>
      <point x="735" y="270" type="curve" smooth="yes"/>
      <point x="735" y="458"/>
      <point x="647" y="550"/>
      <point x="534" y="550" type="curve" smooth="yes"/>
      <point x="472" y="550"/>
      <point x="418" y="513"/>
      <point x="396" y="449" type="curve"/>
      <point x="391" y="449" type="line"/>
      <point x="369" y="513"/>
      <point x="316" y="550"/>
      <point x="246" y="550" type="curve" smooth="yes"/>
      <point x="113" y="550"/>
      <point x="34" y="457"/>
      <point x="34" y="270" type="curve" smooth="yes"/>
      <point x="34" y="79"/>
      <point x="120" y="-14"/>
    </contour>
    <contour>
      <point x="256" y="53" type="curve" smooth="yes"/>
      <point x="212" y="53"/>
      <point x="199" y="111"/>
      <point x="199" y="270" type="curve" smooth="yes"/>
      <point x="199" y="429"/>
      <point x="212" y="483"/>
      <point x="256" y="483" type="curve" smooth="yes"/>
      <point x="296" y="483"/>
      <point x="313" y="429"/>
      <point x="313" y="270" type="curve" smooth="yes"/>
      <point x="313" y="111"/>
      <point x="296" y="53"/>
    </contour>
  </outline>
</glyph>
<glyph name="in-georgian" format="2">
  <advance width="524"/>
  <unicode hex="10D8"/>
  <note>
uni10D8
</note>
  <anchor x="262" y="536" name="top"/>
  <outline>
    <contour>
      <point x="181" y="-9" type="curve" smooth="yes"/>
      <point x="227" y="-9"/>
      <point x="243" y="14"/>
      <point x="243" y="50" type="curve"/>
      <point x="209" y="65"/>
      <point x="200" y="146"/>
      <point x="200" y="270" type="curve" smooth="yes"/>
      <point x="200" y="417"/>
      <point x="216" y="483"/>
      <point x="261" y="483" type="curve" smooth="yes"/>
      <point x="306" y="483"/>
      <point x="324" y="417"/>
      <point x="324" y="270" type="curve" smooth="yes"/>
      <point x="324" y="152"/>
      <point x="314" y="65"/>
      <point x="281" y="50" type="curve"/>
      <point x="281" y="17"/>
      <point x="303" y="-9"/>
      <point x="348" y="-9" type="curve" smooth="yes"/>
      <point x="421" y="-9"/>
      <point x="490" y="101"/>
      <point x="490" y="270" type="curve" smooth="yes"/>
      <point x="490" y="458"/>
      <point x="401" y="550"/>
      <point x="263" y="550" type="curve" smooth="yes"/>
      <point x="114" y="550"/>
      <point x="34" y="458"/>
      <point x="34" y="270" type="curve" smooth="yes"/>
      <point x="34" y="101"/>
      <point x="105" y="-9"/>
    </contour>
  </outline>
</glyph>
<glyph name="kan-georgian" format="2">
  <advance width="513"/>
  <unicode hex="10D9"/>
  <note>
uni10D9
</note>
  <outline>
    <contour>
      <point x="251" y="-254" type="curve" smooth="yes"/>
      <point x="387" y="-254"/>
      <point x="484" y="-181"/>
      <point x="484" y="-14" type="curve" smooth="yes"/>
      <point x="484" y="135"/>
      <point x="394" y="193"/>
      <point x="316" y="209" type="curve"/>
      <point x="316" y="212" type="line"/>
      <point x="394" y="230"/>
      <point x="457" y="277"/>
      <point x="457" y="369" type="curve" smooth="yes"/>
      <point x="457" y="473"/>
      <point x="367" y="543"/>
      <point x="229" y="543" type="curve"/>
      <point x="229" y="483" type="line"/>
      <point x="274" y="483"/>
      <point x="297" y="445"/>
      <point x="297" y="364" type="curve" smooth="yes"/>
      <point x="297" y="273"/>
      <point x="265" y="247"/>
      <point x="221" y="247" type="curve" smooth="yes"/>
      <point x="188" y="247" type="line"/>
      <point x="188" y="173" type="line"/>
      <point x="221" y="173" type="line" smooth="yes"/>
      <point x="292" y="173"/>
      <point x="318" y="117"/>
      <point x="318" y="-14" type="curve" smooth="yes"/>
      <point x="318" y="-141"/>
      <point x="299" y="-187"/>
      <point x="251" y="-187" type="curve" smooth="yes"/>
      <point x="203" y="-187"/>
      <point x="187" y="-141"/>
      <point x="187" y="-65" type="curve" smooth="yes"/>
      <point x="187" y="-11"/>
      <point x="197" y="25"/>
      <point x="207" y="49" type="curve"/>
      <point x="193" y="62"/>
      <point x="168" y="71"/>
      <point x="141" y="71" type="curve" smooth="yes"/>
      <point x="87" y="71"/>
      <point x="24" y="35"/>
      <point x="24" y="-69" type="curve" smooth="yes"/>
      <point x="24" y="-181"/>
      <point x="95" y="-254"/>
    </contour>
  </outline>
</glyph>
<glyph name="las-georgian" format="2">
  <advance width="979"/>
  <unicode hex="10DA"/>
  <note>
uni10DA
</note>
  <outline>
    <contour>
      <point x="757" y="550" type="curve" smooth="yes"/>
      <point x="690" y="550"/>
      <point x="638" y="517"/>
      <point x="616" y="449" type="curve"/>
      <point x="611" y="449" type="line"/>
      <point x="599" y="517"/>
      <point x="551" y="550"/>
      <point x="492" y="550" type="curve" smooth="yes"/>
      <point x="434" y="550"/>
      <point x="381" y="517"/>
      <point x="369" y="449" type="curve"/>
      <point x="364" y="449" type="line"/>
      <point x="342" y="517"/>
      <point x="288" y="550"/>
      <point x="232" y="550" type="curve" smooth="yes"/>
      <point x="108" y="550"/>
      <point x="34" y="458"/>
      <point x="34" y="281" type="curve" smooth="yes"/>
      <point x="34" y="98"/>
      <point x="146" y="-15"/>
      <point x="277" y="-70" type="curve"/>
      <point x="277" y="-74" type="line"/>
      <point x="225" y="-81"/>
      <point x="175" y="-100"/>
      <point x="145" y="-129" type="curve"/>
      <point x="177" y="-175" type="line"/>
      <point x="221" y="-144"/>
      <point x="281" y="-129"/>
      <point x="363" y="-129" type="curve" smooth="yes"/>
      <point x="481" y="-129"/>
      <point x="594" y="-176"/>
      <point x="594" y="-254" type="curve"/>
      <point x="654" y="-254"/>
      <point x="697" y="-240"/>
      <point x="697" y="-185" type="curve" smooth="yes"/>
      <point x="697" y="-108"/>
      <point x="591" y="-51"/>
      <point x="457" y="-18" type="curve" smooth="yes"/>
      <point x="312" y="18"/>
      <point x="200" y="86"/>
      <point x="200" y="281" type="curve" smooth="yes"/>
      <point x="200" y="441"/>
      <point x="214" y="483"/>
      <point x="249" y="483" type="curve" smooth="yes"/>
      <point x="277" y="483"/>
      <point x="288" y="441"/>
      <point x="288" y="340" type="curve" smooth="yes"/>
      <point x="288" y="181" type="line"/>
      <point x="449" y="181" type="line"/>
      <point x="449" y="360" type="line" smooth="yes"/>
      <point x="449" y="456"/>
      <point x="465" y="483"/>
      <point x="492" y="483" type="curve" smooth="yes"/>
      <point x="520" y="483"/>
      <point x="531" y="456"/>
      <point x="531" y="360" type="curve" smooth="yes"/>
      <point x="531" y="181" type="line"/>
      <point x="692" y="181" type="line"/>
      <point x="692" y="340" type="line" smooth="yes"/>
      <point x="692" y="441"/>
      <point x="708" y="483"/>
      <point x="735" y="483" type="curve" smooth="yes"/>
      <point x="766" y="483"/>
      <point x="780" y="441"/>
      <point x="780" y="280" type="curve" smooth="yes"/>
      <point x="780" y="169"/>
      <point x="758" y="86"/>
      <point x="725" y="67" type="curve"/>
      <point x="725" y="34"/>
      <point x="737" y="8"/>
      <point x="786" y="8" type="curve" smooth="yes"/>
      <point x="865" y="8"/>
      <point x="945" y="111"/>
      <point x="945" y="280" type="curve" smooth="yes"/>
      <point x="945" y="458"/>
      <point x="860" y="550"/>
    </contour>
  </outline>
</glyph>
<glyph name="man-georgian" format="2">
  <advance width="547"/>
  <unicode hex="10DB"/>
  <note>
uni10DB
</note>
  <outline>
    <contour>
      <point x="258" y="-10" type="curve" smooth="yes"/>
      <point x="404" y="-10"/>
      <point x="487" y="75"/>
      <point x="487" y="257" type="curve" smooth="yes"/>
      <point x="487" y="560" type="line" smooth="yes"/>
      <point x="487" y="707"/>
      <point x="392" y="774"/>
      <point x="264" y="774" type="curve" smooth="yes"/>
      <point x="132" y="774"/>
      <point x="58" y="717"/>
      <point x="58" y="652" type="curve" smooth="yes"/>
      <point x="58" y="619"/>
      <point x="82" y="576"/>
      <point x="147" y="576" type="curve" smooth="yes"/>
      <point x="166" y="576"/>
      <point x="189" y="580"/>
      <point x="215" y="588" type="curve"/>
      <point x="211" y="604"/>
      <point x="209" y="619"/>
      <point x="209" y="634" type="curve" smooth="yes"/>
      <point x="209" y="677"/>
      <point x="228" y="710"/>
      <point x="264" y="710" type="curve" smooth="yes"/>
      <point x="301" y="710"/>
      <point x="324" y="670"/>
      <point x="324" y="602" type="curve" smooth="yes"/>
      <point x="324" y="558" type="line" smooth="yes"/>
      <point x="324" y="519"/>
      <point x="324" y="476"/>
      <point x="325" y="446" type="curve"/>
      <point x="321" y="446" type="line"/>
      <point x="298" y="487"/>
      <point x="265" y="518"/>
      <point x="204" y="518" type="curve" smooth="yes"/>
      <point x="98" y="518"/>
      <point x="34" y="430"/>
      <point x="34" y="257" type="curve" smooth="yes"/>
      <point x="34" y="75"/>
      <point x="108" y="-10"/>
    </contour>
    <contour>
      <point x="258" y="56" type="curve" smooth="yes"/>
      <point x="216" y="56"/>
      <point x="200" y="123"/>
      <point x="200" y="258" type="curve" smooth="yes"/>
      <point x="200" y="371"/>
      <point x="216" y="444"/>
      <point x="259" y="444" type="curve" smooth="yes"/>
      <point x="309" y="444"/>
      <point x="324" y="371"/>
      <point x="324" y="259" type="curve" smooth="yes"/>
      <point x="324" y="126"/>
      <point x="309" y="56"/>
    </contour>
  </outline>
</glyph>
<glyph name="nar-georgian" format="2">
  <advance width="523"/>
  <unicode hex="10DC"/>
  <note>
uni10DC
</note>
  <outline>
    <contour>
      <point x="265" y="-10" type="curve" smooth="yes"/>
      <point x="415" y="-10"/>
      <point x="489" y="75"/>
      <point x="489" y="257" type="curve" smooth="yes"/>
      <point x="489" y="430"/>
      <point x="425" y="518"/>
      <point x="319" y="518" type="curve" smooth="yes"/>
      <point x="258" y="518"/>
      <point x="225" y="487"/>
      <point x="202" y="446" type="curve"/>
      <point x="198" y="446" type="line"/>
      <point x="199" y="476"/>
      <point x="199" y="519"/>
      <point x="199" y="558" type="curve" smooth="yes"/>
      <point x="199" y="602" type="line" smooth="yes"/>
      <point x="199" y="670"/>
      <point x="222" y="705"/>
      <point x="273" y="705" type="curve" smooth="yes"/>
      <point x="293" y="705"/>
      <point x="323" y="689"/>
      <point x="344" y="675" type="curve" smooth="yes"/>
      <point x="361" y="664"/>
      <point x="383" y="653"/>
      <point x="405" y="653" type="curve" smooth="yes"/>
      <point x="437" y="653"/>
      <point x="464" y="676"/>
      <point x="464" y="713" type="curve" smooth="yes"/>
      <point x="464" y="747"/>
      <point x="448" y="765"/>
      <point x="426" y="774" type="curve"/>
      <point x="414" y="758"/>
      <point x="394" y="748"/>
      <point x="367" y="748" type="curve" smooth="yes"/>
      <point x="348" y="748"/>
      <point x="326" y="752"/>
      <point x="305" y="759" type="curve" smooth="yes"/>
      <point x="283" y="766"/>
      <point x="263" y="769"/>
      <point x="227" y="769" type="curve" smooth="yes"/>
      <point x="131" y="769"/>
      <point x="36" y="707"/>
      <point x="36" y="560" type="curve" smooth="yes"/>
      <point x="36" y="257" type="line" smooth="yes"/>
      <point x="36" y="75"/>
      <point x="119" y="-10"/>
    </contour>
    <contour>
      <point x="265" y="56" type="curve" smooth="yes"/>
      <point x="214" y="56"/>
      <point x="199" y="126"/>
      <point x="199" y="259" type="curve" smooth="yes"/>
      <point x="199" y="371"/>
      <point x="214" y="444"/>
      <point x="264" y="444" type="curve" smooth="yes"/>
      <point x="307" y="444"/>
      <point x="323" y="371"/>
      <point x="323" y="258" type="curve" smooth="yes"/>
      <point x="323" y="123"/>
      <point x="307" y="56"/>
    </contour>
  </outline>
</glyph>
<glyph name="on-georgian" format="2">
  <advance width="752"/>
  <unicode hex="10DD"/>
  <note>
uni10DD
</note>
  <anchor x="376" y="536" name="top"/>
  <outline>
    <contour>
      <point x="200" y="-9" type="curve" smooth="yes"/>
      <point x="242" y="-9"/>
      <point x="261" y="14"/>
      <point x="261" y="50" type="curve"/>
      <point x="223" y="65"/>
      <point x="200" y="146"/>
      <point x="200" y="270" type="curve" smooth="yes"/>
      <point x="200" y="441"/>
      <point x="216" y="483"/>
      <point x="251" y="483" type="curve" smooth="yes"/>
      <point x="284" y="483"/>
      <point x="296" y="441"/>
      <point x="296" y="340" type="curve" smooth="yes"/>
      <point x="296" y="181" type="line"/>
      <point x="457" y="181" type="line"/>
      <point x="457" y="340" type="line" smooth="yes"/>
      <point x="457" y="441"/>
      <point x="473" y="483"/>
      <point x="505" y="483" type="curve" smooth="yes"/>
      <point x="536" y="483"/>
      <point x="553" y="441"/>
      <point x="553" y="270" type="curve" smooth="yes"/>
      <point x="553" y="152"/>
      <point x="531" y="69"/>
      <point x="498" y="50" type="curve"/>
      <point x="498" y="17"/>
      <point x="510" y="-9"/>
      <point x="559" y="-9" type="curve" smooth="yes"/>
      <point x="638" y="-9"/>
      <point x="718" y="94"/>
      <point x="718" y="270" type="curve" smooth="yes"/>
      <point x="718" y="458"/>
      <point x="630" y="550"/>
      <point x="517" y="550" type="curve" smooth="yes"/>
      <point x="455" y="550"/>
      <point x="401" y="513"/>
      <point x="379" y="449" type="curve"/>
      <point x="374" y="449" type="line"/>
      <point x="352" y="513"/>
      <point x="299" y="550"/>
      <point x="238" y="550" type="curve" smooth="yes"/>
      <point x="114" y="550"/>
      <point x="34" y="458"/>
      <point x="34" y="270" type="curve" smooth="yes"/>
      <point x="34" y="91"/>
      <point x="123" y="-9"/>
    </contour>
  </outline>
</glyph>
<glyph name="par-georgian" format="2">
  <advance width="514"/>
  <unicode hex="10DE"/>
  <note>
uni10DE
</note>
  <outline>
    <contour>
      <point x="251" y="-14" type="curve" smooth="yes"/>
      <point x="410" y="-14"/>
      <point x="480" y="99"/>
      <point x="480" y="196" type="curve" smooth="yes"/>
      <point x="480" y="315"/>
      <point x="421" y="375"/>
      <point x="345" y="394" type="curve"/>
      <point x="345" y="396" type="line"/>
      <point x="421" y="416"/>
      <point x="459" y="454"/>
      <point x="459" y="510" type="curve" smooth="yes"/>
      <point x="459" y="575"/>
      <point x="415" y="609"/>
      <point x="375" y="638" type="curve" smooth="yes"/>
      <point x="342" y="662"/>
      <point x="312" y="685"/>
      <point x="312" y="718" type="curve" smooth="yes"/>
      <point x="312" y="730"/>
      <point x="314" y="741"/>
      <point x="320" y="755" type="curve"/>
      <point x="305" y="767"/>
      <point x="287" y="774"/>
      <point x="256" y="774" type="curve" smooth="yes"/>
      <point x="203" y="774"/>
      <point x="170" y="739"/>
      <point x="170" y="696" type="curve" smooth="yes"/>
      <point x="170" y="651"/>
      <point x="205" y="619"/>
      <point x="241" y="590" type="curve" smooth="yes"/>
      <point x="270" y="567"/>
      <point x="295" y="539"/>
      <point x="295" y="494" type="curve" smooth="yes"/>
      <point x="295" y="459"/>
      <point x="270" y="431"/>
      <point x="225" y="431" type="curve" smooth="yes"/>
      <point x="193" y="431" type="line"/>
      <point x="193" y="357" type="line"/>
      <point x="225" y="357" type="line" smooth="yes"/>
      <point x="273" y="357"/>
      <point x="316" y="317"/>
      <point x="316" y="196" type="curve" smooth="yes"/>
      <point x="316" y="99"/>
      <point x="291" y="53"/>
      <point x="250" y="53" type="curve" smooth="yes"/>
      <point x="211" y="53"/>
      <point x="192" y="94"/>
      <point x="192" y="170" type="curve" smooth="yes"/>
      <point x="192" y="199"/>
      <point x="195" y="229"/>
      <point x="205" y="254" type="curve"/>
      <point x="185" y="268"/>
      <point x="158" y="275"/>
      <point x="138" y="275" type="curve" smooth="yes"/>
      <point x="76" y="275"/>
      <point x="29" y="232"/>
      <point x="29" y="157" type="curve" smooth="yes"/>
      <point x="29" y="83"/>
      <point x="89" y="-14"/>
    </contour>
  </outline>
</glyph>
<glyph name="zhar-georgian" format="2">
  <advance width="607"/>
  <unicode hex="10DF"/>
  <note>
uni10DF
</note>
  <outline>
    <contour>
      <point x="317" y="-254" type="curve" smooth="yes"/>
      <point x="453" y="-254"/>
      <point x="547" y="-181"/>
      <point x="547" y="-14" type="curve" smooth="yes"/>
      <point x="547" y="536" type="line"/>
      <point x="384" y="536" type="line"/>
      <point x="323" y="504"/>
      <point x="251" y="485"/>
      <point x="173" y="472" type="curve"/>
      <point x="173" y="395" type="line"/>
      <point x="198" y="379"/>
      <point x="211" y="358"/>
      <point x="211" y="294" type="curve" smooth="yes"/>
      <point x="211" y="242"/>
      <point x="201" y="222"/>
      <point x="181" y="222" type="curve" smooth="yes"/>
      <point x="162" y="222"/>
      <point x="153" y="247"/>
      <point x="153" y="278" type="curve" smooth="yes"/>
      <point x="153" y="297"/>
      <point x="154" y="317"/>
      <point x="160" y="332" type="curve"/>
      <point x="141" y="342"/>
      <point x="122" y="345"/>
      <point x="107" y="345" type="curve" smooth="yes"/>
      <point x="52" y="345"/>
      <point x="29" y="304"/>
      <point x="29" y="273" type="curve" smooth="yes"/>
      <point x="29" y="212"/>
      <point x="84" y="164"/>
      <point x="181" y="164" type="curve" smooth="yes"/>
      <point x="277" y="164"/>
      <point x="341" y="217"/>
      <point x="341" y="295" type="curve" smooth="yes"/>
      <point x="341" y="338"/>
      <point x="323" y="392"/>
      <point x="273" y="420" type="curve"/>
      <point x="273" y="423" type="line"/>
      <point x="317" y="430"/>
      <point x="354" y="442"/>
      <point x="384" y="460" type="curve"/>
      <point x="390" y="460" type="line"/>
      <point x="386" y="440"/>
      <point x="384" y="419"/>
      <point x="384" y="389" type="curve" smooth="yes"/>
      <point x="384" y="-14" type="line" smooth="yes"/>
      <point x="384" y="-141"/>
      <point x="365" y="-187"/>
      <point x="317" y="-187" type="curve" smooth="yes"/>
      <point x="269" y="-187"/>
      <point x="253" y="-141"/>
      <point x="253" y="-65" type="curve" smooth="yes"/>
      <point x="253" y="-11"/>
      <point x="263" y="25"/>
      <point x="273" y="49" type="curve"/>
      <point x="259" y="62"/>
      <point x="234" y="71"/>
      <point x="207" y="71" type="curve" smooth="yes"/>
      <point x="153" y="71"/>
      <point x="90" y="35"/>
      <point x="90" y="-69" type="curve" smooth="yes"/>
      <point x="90" y="-181"/>
      <point x="161" y="-254"/>
    </contour>
  </outline>
</glyph>
<glyph name="rae-georgian" format="2">
  <advance width="749"/>
  <unicode hex="10E0"/>
  <note>
uni10E0
</note>
  <outline>
    <contour>
      <point x="197" y="-9" type="curve" smooth="yes"/>
      <point x="239" y="-9"/>
      <point x="258" y="14"/>
      <point x="258" y="50" type="curve"/>
      <point x="220" y="65"/>
      <point x="197" y="146"/>
      <point x="197" y="270" type="curve" smooth="yes"/>
      <point x="197" y="427"/>
      <point x="213" y="469"/>
      <point x="248" y="469" type="curve" smooth="yes"/>
      <point x="281" y="469"/>
      <point x="293" y="427"/>
      <point x="293" y="326" type="curve" smooth="yes"/>
      <point x="293" y="181" type="line"/>
      <point x="454" y="181" type="line"/>
      <point x="454" y="326" type="line" smooth="yes"/>
      <point x="454" y="427"/>
      <point x="470" y="469"/>
      <point x="502" y="469" type="curve" smooth="yes"/>
      <point x="533" y="469"/>
      <point x="550" y="427"/>
      <point x="550" y="270" type="curve" smooth="yes"/>
      <point x="550" y="152"/>
      <point x="528" y="69"/>
      <point x="495" y="50" type="curve"/>
      <point x="495" y="17"/>
      <point x="507" y="-9"/>
      <point x="556" y="-9" type="curve" smooth="yes"/>
      <point x="635" y="-9"/>
      <point x="715" y="94"/>
      <point x="715" y="270" type="curve" smooth="yes"/>
      <point x="715" y="444"/>
      <point x="627" y="536"/>
      <point x="514" y="536" type="curve" smooth="yes"/>
      <point x="452" y="536"/>
      <point x="398" y="499"/>
      <point x="376" y="435" type="curve"/>
      <point x="371" y="435" type="line"/>
      <point x="349" y="499"/>
      <point x="296" y="536"/>
      <point x="235" y="536" type="curve" smooth="yes"/>
      <point x="188" y="536"/>
      <point x="139" y="515"/>
      <point x="107" y="451" type="curve"/>
      <point x="103" y="451" type="line"/>
      <point x="122" y="547"/>
      <point x="173" y="580"/>
      <point x="302" y="595" type="curve" smooth="yes"/>
      <point x="459" y="613"/>
      <point x="513" y="650"/>
      <point x="513" y="774" type="curve"/>
      <point x="461" y="774" type="line"/>
      <point x="454" y="752"/>
      <point x="442" y="747"/>
      <point x="338" y="735" type="curve" smooth="yes"/>
      <point x="93" y="707"/>
      <point x="34" y="549"/>
      <point x="34" y="335" type="curve" smooth="yes"/>
      <point x="34" y="284" type="line" smooth="yes"/>
      <point x="34" y="91"/>
      <point x="120" y="-9"/>
    </contour>
  </outline>
</glyph>
<glyph name="san-georgian" format="2">
  <advance width="572"/>
  <unicode hex="10E1"/>
  <note>
uni10E1
</note>
  <outline>
    <contour>
      <point x="302" y="-14" type="curve" smooth="yes"/>
      <point x="457" y="-14"/>
      <point x="538" y="79"/>
      <point x="538" y="194" type="curve" smooth="yes"/>
      <point x="538" y="266"/>
      <point x="513" y="314"/>
      <point x="489" y="357" type="curve" smooth="yes"/>
      <point x="469" y="394"/>
      <point x="450" y="430"/>
      <point x="450" y="483" type="curve" smooth="yes"/>
      <point x="450" y="499"/>
      <point x="454" y="517"/>
      <point x="462" y="531" type="curve"/>
      <point x="447" y="543"/>
      <point x="429" y="550"/>
      <point x="398" y="550" type="curve" smooth="yes"/>
      <point x="345" y="550"/>
      <point x="308" y="515"/>
      <point x="308" y="459" type="curve" smooth="yes"/>
      <point x="308" y="398"/>
      <point x="324" y="360"/>
      <point x="340" y="325" type="curve" smooth="yes"/>
      <point x="356" y="290"/>
      <point x="372" y="250"/>
      <point x="372" y="196" type="curve" smooth="yes"/>
      <point x="372" y="101"/>
      <point x="348" y="53"/>
      <point x="302" y="53" type="curve" smooth="yes"/>
      <point x="262" y="53"/>
      <point x="236" y="89"/>
      <point x="236" y="206" type="curve" smooth="yes"/>
      <point x="236" y="760" type="line"/>
      <point x="15" y="760" type="line"/>
      <point x="15" y="704" type="line"/>
      <point x="24" y="704" type="line" smooth="yes"/>
      <point x="58" y="704"/>
      <point x="73" y="691"/>
      <point x="73" y="642" type="curve" smooth="yes"/>
      <point x="73" y="217" type="line" smooth="yes"/>
      <point x="73" y="76"/>
      <point x="136" y="-14"/>
    </contour>
  </outline>
</glyph>
<glyph name="tar-georgian" format="2">
  <advance width="776"/>
  <unicode hex="10E2"/>
  <note>
uni10E2
</note>
  <outline>
    <contour>
      <point x="389" y="-254" type="curve" smooth="yes"/>
      <point x="611" y="-254"/>
      <point x="742" y="-96"/>
      <point x="742" y="156" type="curve" smooth="yes"/>
      <point x="742" y="359"/>
      <point x="645" y="503"/>
      <point x="461" y="540" type="curve"/>
      <point x="461" y="544" type="line"/>
      <point x="498" y="565"/>
      <point x="529" y="602"/>
      <point x="529" y="653" type="curve" smooth="yes"/>
      <point x="529" y="709"/>
      <point x="489" y="774"/>
      <point x="388" y="774" type="curve" smooth="yes"/>
      <point x="288" y="774"/>
      <point x="247" y="709"/>
      <point x="247" y="653" type="curve" smooth="yes"/>
      <point x="247" y="602"/>
      <point x="279" y="565"/>
      <point x="315" y="544" type="curve"/>
      <point x="315" y="540" type="line"/>
      <point x="124" y="503"/>
      <point x="34" y="360"/>
      <point x="34" y="157" type="curve" smooth="yes"/>
      <point x="34" y="-96"/>
      <point x="154" y="-254"/>
    </contour>
    <contour>
      <point x="389" y="-187" type="curve" smooth="yes"/>
      <point x="263" y="-187"/>
      <point x="200" y="-65"/>
      <point x="200" y="155" type="curve" smooth="yes"/>
      <point x="200" y="323"/>
      <point x="227" y="427"/>
      <point x="292" y="468" type="curve"/>
      <point x="292" y="464" type="line"/>
      <point x="269" y="440"/>
      <point x="257" y="406"/>
      <point x="257" y="370" type="curve" smooth="yes"/>
      <point x="257" y="303"/>
      <point x="300" y="242"/>
      <point x="388" y="242" type="curve" smooth="yes"/>
      <point x="476" y="242"/>
      <point x="519" y="303"/>
      <point x="519" y="370" type="curve" smooth="yes"/>
      <point x="519" y="406"/>
      <point x="506" y="440"/>
      <point x="481" y="464" type="curve"/>
      <point x="481" y="468" type="line"/>
      <point x="558" y="427"/>
      <point x="576" y="323"/>
      <point x="576" y="155" type="curve" smooth="yes"/>
      <point x="576" y="-65"/>
      <point x="515" y="-187"/>
    </contour>
    <contour>
      <point x="388" y="297" type="curve" smooth="yes"/>
      <point x="361" y="297"/>
      <point x="352" y="325"/>
      <point x="352" y="375" type="curve" smooth="yes"/>
      <point x="352" y="427"/>
      <point x="365" y="469"/>
      <point x="388" y="490" type="curve"/>
      <point x="410" y="469"/>
      <point x="424" y="427"/>
      <point x="424" y="375" type="curve" smooth="yes"/>
      <point x="424" y="325"/>
      <point x="415" y="297"/>
    </contour>
    <contour>
      <point x="388" y="550" type="curve"/>
      <point x="360" y="575"/>
      <point x="352" y="617"/>
      <point x="352" y="653" type="curve" smooth="yes"/>
      <point x="352" y="699"/>
      <point x="362" y="726"/>
      <point x="388" y="726" type="curve" smooth="yes"/>
      <point x="414" y="726"/>
      <point x="424" y="699"/>
      <point x="424" y="653" type="curve" smooth="yes"/>
      <point x="424" y="617"/>
      <point x="416" y="575"/>
    </contour>
  </outline>
</glyph>
<glyph name="un-georgian" format="2">
  <advance width="646"/>
  <unicode hex="10E3"/>
  <note>
uni10E3
</note>
  <anchor x="313" y="536" name="top"/>
  <outline>
    <contour>
      <point x="327" y="-254" type="curve" smooth="yes"/>
      <point x="512" y="-254"/>
      <point x="591" y="-131"/>
      <point x="591" y="-14" type="curve" smooth="yes"/>
      <point x="591" y="366" type="line" smooth="yes"/>
      <point x="591" y="488"/>
      <point x="529" y="550"/>
      <point x="423" y="550" type="curve" smooth="yes"/>
      <point x="353" y="550"/>
      <point x="307" y="525"/>
      <point x="287" y="472" type="curve"/>
      <point x="283" y="472" type="line"/>
      <point x="262" y="525"/>
      <point x="228" y="544"/>
      <point x="181" y="544" type="curve" smooth="yes"/>
      <point x="164" y="544"/>
      <point x="148" y="541"/>
      <point x="133" y="534" type="curve" smooth="yes"/>
      <point x="118" y="527"/>
      <point x="105" y="525"/>
      <point x="92" y="525" type="curve" smooth="yes"/>
      <point x="70" y="525"/>
      <point x="50" y="534"/>
      <point x="38" y="550" type="curve"/>
      <point x="16" y="541"/>
      <point x="0" y="523"/>
      <point x="0" y="486" type="curve" smooth="yes"/>
      <point x="0" y="447"/>
      <point x="27" y="418"/>
      <point x="65" y="418" type="curve" smooth="yes"/>
      <point x="95" y="418"/>
      <point x="115" y="429"/>
      <point x="127" y="445" type="curve" smooth="yes"/>
      <point x="142" y="464"/>
      <point x="155" y="477"/>
      <point x="174" y="477" type="curve" smooth="yes"/>
      <point x="196" y="477"/>
      <point x="202" y="461"/>
      <point x="202" y="425" type="curve" smooth="yes"/>
      <point x="202" y="226" type="line"/>
      <point x="349" y="226" type="line"/>
      <point x="349" y="409" type="line" smooth="yes"/>
      <point x="349" y="460"/>
      <point x="363" y="481"/>
      <point x="389" y="481" type="curve" smooth="yes"/>
      <point x="416" y="481"/>
      <point x="427" y="460"/>
      <point x="427" y="409" type="curve" smooth="yes"/>
      <point x="427" y="-19" type="line" smooth="yes"/>
      <point x="427" y="-131"/>
      <point x="392" y="-187"/>
      <point x="327" y="-187" type="curve" smooth="yes"/>
      <point x="268" y="-187"/>
      <point x="233" y="-138"/>
      <point x="233" y="-51" type="curve" smooth="yes"/>
      <point x="233" y="11"/>
      <point x="243" y="50"/>
      <point x="253" y="74" type="curve"/>
      <point x="239" y="87"/>
      <point x="214" y="96"/>
      <point x="187" y="96" type="curve" smooth="yes"/>
      <point x="133" y="96"/>
      <point x="70" y="51"/>
      <point x="70" y="-49" type="curve" smooth="yes"/>
      <point x="70" y="-171"/>
      <point x="160" y="-254"/>
    </contour>
  </outline>
</glyph>
<glyph name="phar-georgian" format="2">
  <advance width="769"/>
  <unicode hex="10E4"/>
  <note>
uni10E4
</note>
  <outline>
    <contour>
      <point x="468" y="-254" type="curve" smooth="yes"/>
      <point x="640" y="-254"/>
      <point x="732" y="-171"/>
      <point x="732" y="-24" type="curve" smooth="yes"/>
      <point x="732" y="85"/>
      <point x="670" y="145"/>
      <point x="594" y="161" type="curve"/>
      <point x="594" y="164" type="line"/>
      <point x="672" y="188"/>
      <point x="735" y="233"/>
      <point x="735" y="348" type="curve" smooth="yes"/>
      <point x="735" y="468"/>
      <point x="647" y="550"/>
      <point x="544" y="550" type="curve" smooth="yes"/>
      <point x="472" y="550"/>
      <point x="418" y="513"/>
      <point x="396" y="449" type="curve"/>
      <point x="391" y="449" type="line"/>
      <point x="369" y="513"/>
      <point x="316" y="550"/>
      <point x="246" y="550" type="curve" smooth="yes"/>
      <point x="113" y="550"/>
      <point x="34" y="457"/>
      <point x="34" y="308" type="curve" smooth="yes"/>
      <point x="34" y="160"/>
      <point x="120" y="67"/>
      <point x="254" y="67" type="curve" smooth="yes"/>
      <point x="394" y="67"/>
      <point x="474" y="160"/>
      <point x="474" y="308" type="curve" smooth="yes"/>
      <point x="474" y="350" type="line" smooth="yes"/>
      <point x="474" y="451"/>
      <point x="489" y="483"/>
      <point x="521" y="483" type="curve" smooth="yes"/>
      <point x="556" y="483"/>
      <point x="570" y="429"/>
      <point x="570" y="328" type="curve" smooth="yes"/>
      <point x="570" y="223"/>
      <point x="538" y="197"/>
      <point x="510" y="197" type="curve" smooth="yes"/>
      <point x="496" y="197" type="line"/>
      <point x="496" y="123" type="line"/>
      <point x="510" y="123" type="line" smooth="yes"/>
      <point x="555" y="123"/>
      <point x="566" y="67"/>
      <point x="566" y="-24" type="curve" smooth="yes"/>
      <point x="566" y="-141"/>
      <point x="535" y="-187"/>
      <point x="468" y="-187" type="curve" smooth="yes"/>
      <point x="396" y="-187"/>
      <point x="377" y="-136"/>
      <point x="377" y="-84" type="curve" smooth="yes"/>
      <point x="377" y="-68"/>
      <point x="380" y="-52"/>
      <point x="385" y="-37" type="curve"/>
      <point x="359" y="-22"/>
      <point x="334" y="-16"/>
      <point x="311" y="-16" type="curve" smooth="yes"/>
      <point x="256" y="-16"/>
      <point x="215" y="-54"/>
      <point x="215" y="-101" type="curve" smooth="yes"/>
      <point x="215" y="-185"/>
      <point x="308" y="-254"/>
    </contour>
    <contour>
      <point x="256" y="134" type="curve" smooth="yes"/>
      <point x="212" y="134"/>
      <point x="199" y="192"/>
      <point x="199" y="308" type="curve" smooth="yes"/>
      <point x="199" y="429"/>
      <point x="212" y="483"/>
      <point x="256" y="483" type="curve" smooth="yes"/>
      <point x="296" y="483"/>
      <point x="313" y="430"/>
      <point x="313" y="308" type="curve" smooth="yes"/>
      <point x="313" y="192"/>
      <point x="296" y="134"/>
    </contour>
  </outline>
</glyph>
<glyph name="khar-georgian" format="2">
  <advance width="540"/>
  <unicode hex="10E5"/>
  <note>
uni10E5
</note>
  <outline>
    <contour>
      <point x="250" y="-254" type="curve" smooth="yes"/>
      <point x="392" y="-254"/>
      <point x="475" y="-169"/>
      <point x="475" y="3" type="curve" smooth="yes"/>
      <point x="475" y="760" type="line"/>
      <point x="248" y="760" type="line"/>
      <point x="248" y="704" type="line"/>
      <point x="265" y="704" type="line" smooth="yes"/>
      <point x="291" y="704"/>
      <point x="312" y="697"/>
      <point x="312" y="653" type="curve" smooth="yes"/>
      <point x="312" y="588" type="line" smooth="yes"/>
      <point x="312" y="549"/>
      <point x="312" y="511"/>
      <point x="313" y="481" type="curve"/>
      <point x="309" y="481" type="line"/>
      <point x="286" y="522"/>
      <point x="253" y="550"/>
      <point x="192" y="550" type="curve" smooth="yes"/>
      <point x="114" y="550"/>
      <point x="45" y="485"/>
      <point x="45" y="389" type="curve" smooth="yes"/>
      <point x="45" y="308"/>
      <point x="88" y="261"/>
      <point x="149" y="261" type="curve" smooth="yes"/>
      <point x="168" y="261"/>
      <point x="191" y="264"/>
      <point x="214" y="271" type="curve"/>
      <point x="207" y="298"/>
      <point x="203" y="330"/>
      <point x="203" y="365" type="curve" smooth="yes"/>
      <point x="203" y="430"/>
      <point x="219" y="475"/>
      <point x="252" y="475" type="curve" smooth="yes"/>
      <point x="297" y="475"/>
      <point x="312" y="401"/>
      <point x="312" y="319" type="curve" smooth="yes"/>
      <point x="312" y="-57" type="line" smooth="yes"/>
      <point x="312" y="-138"/>
      <point x="295" y="-187"/>
      <point x="250" y="-187" type="curve" smooth="yes"/>
      <point x="208" y="-187"/>
      <point x="192" y="-138"/>
      <point x="192" y="-58" type="curve" smooth="yes"/>
      <point x="192" y="11"/>
      <point x="202" y="50"/>
      <point x="212" y="74" type="curve"/>
      <point x="198" y="87"/>
      <point x="173" y="96"/>
      <point x="146" y="96" type="curve" smooth="yes"/>
      <point x="92" y="96"/>
      <point x="29" y="60"/>
      <point x="29" y="-49" type="curve" smooth="yes"/>
      <point x="29" y="-181"/>
      <point x="100" y="-254"/>
    </contour>
  </outline>
</glyph>
<glyph name="ghan-georgian" format="2">
  <advance width="752"/>
  <unicode hex="10E6"/>
  <note>
uni10E6
</note>
  <outline>
    <contour>
      <point x="454" y="-254" type="curve"/>
      <point x="514" y="-254"/>
      <point x="557" y="-240"/>
      <point x="557" y="-185" type="curve" smooth="yes"/>
      <point x="557" y="-108"/>
      <point x="495" y="-69"/>
      <point x="395" y="-34" type="curve" smooth="yes"/>
      <point x="261" y="13"/>
      <point x="200" y="93"/>
      <point x="200" y="278" type="curve" smooth="yes"/>
      <point x="200" y="441"/>
      <point x="216" y="483"/>
      <point x="251" y="483" type="curve" smooth="yes"/>
      <point x="284" y="483"/>
      <point x="296" y="441"/>
      <point x="296" y="340" type="curve" smooth="yes"/>
      <point x="296" y="181" type="line"/>
      <point x="457" y="181" type="line"/>
      <point x="457" y="340" type="line" smooth="yes"/>
      <point x="457" y="441"/>
      <point x="473" y="483"/>
      <point x="505" y="483" type="curve" smooth="yes"/>
      <point x="536" y="483"/>
      <point x="553" y="441"/>
      <point x="553" y="279" type="curve" smooth="yes"/>
      <point x="553" y="169"/>
      <point x="531" y="86"/>
      <point x="498" y="67" type="curve"/>
      <point x="498" y="34"/>
      <point x="510" y="8"/>
      <point x="559" y="8" type="curve" smooth="yes"/>
      <point x="638" y="8"/>
      <point x="718" y="111"/>
      <point x="718" y="279" type="curve" smooth="yes"/>
      <point x="718" y="458"/>
      <point x="630" y="550"/>
      <point x="517" y="550" type="curve" smooth="yes"/>
      <point x="455" y="550"/>
      <point x="401" y="513"/>
      <point x="379" y="449" type="curve"/>
      <point x="374" y="449" type="line"/>
      <point x="352" y="513"/>
      <point x="299" y="550"/>
      <point x="238" y="550" type="curve" smooth="yes"/>
      <point x="114" y="550"/>
      <point x="34" y="458"/>
      <point x="34" y="278" type="curve" smooth="yes"/>
      <point x="34" y="98"/>
      <point x="102" y="-2"/>
      <point x="234" y="-74" type="curve"/>
      <point x="234" y="-78" type="line"/>
      <point x="195" y="-85"/>
      <point x="161" y="-99"/>
      <point x="136" y="-117" type="curve"/>
      <point x="165" y="-163" type="line"/>
      <point x="203" y="-142"/>
      <point x="244" y="-129"/>
      <point x="301" y="-129" type="curve" smooth="yes"/>
      <point x="399" y="-129"/>
      <point x="454" y="-181"/>
    </contour>
  </outline>
</glyph>
<glyph name="qar-georgian" format="2">
  <advance width="540"/>
  <unicode hex="10E7"/>
  <note>
uni10E7
</note>
  <outline>
    <contour>
      <point x="257" y="-254" type="curve" smooth="yes"/>
      <point x="386" y="-254"/>
      <point x="480" y="-191"/>
      <point x="480" y="-24" type="curve" smooth="yes"/>
      <point x="480" y="536" type="line"/>
      <point x="317" y="536" type="line"/>
      <point x="317" y="335" type="line" smooth="yes"/>
      <point x="317" y="280"/>
      <point x="294" y="238"/>
      <point x="260" y="238" type="curve" smooth="yes"/>
      <point x="227" y="238"/>
      <point x="201" y="283"/>
      <point x="201" y="372" type="curve" smooth="yes"/>
      <point x="201" y="452"/>
      <point x="216" y="499"/>
      <point x="232" y="531" type="curve"/>
      <point x="209" y="539"/>
      <point x="196" y="543"/>
      <point x="172" y="543" type="curve" smooth="yes"/>
      <point x="106" y="543"/>
      <point x="43" y="474"/>
      <point x="43" y="358" type="curve" smooth="yes"/>
      <point x="43" y="228"/>
      <point x="122" y="163"/>
      <point x="200" y="163" type="curve" smooth="yes"/>
      <point x="261" y="163"/>
      <point x="294" y="191"/>
      <point x="317" y="232" type="curve"/>
      <point x="323" y="232" type="line"/>
      <point x="319" y="203"/>
      <point x="317" y="175"/>
      <point x="317" y="146" type="curve" smooth="yes"/>
      <point x="317" y="-24" type="line" smooth="yes"/>
      <point x="317" y="-151"/>
      <point x="298" y="-187"/>
      <point x="257" y="-187" type="curve" smooth="yes"/>
      <point x="213" y="-187"/>
      <point x="197" y="-141"/>
      <point x="197" y="-65" type="curve" smooth="yes"/>
      <point x="197" y="-11"/>
      <point x="207" y="25"/>
      <point x="217" y="49" type="curve"/>
      <point x="203" y="62"/>
      <point x="178" y="71"/>
      <point x="151" y="71" type="curve" smooth="yes"/>
      <point x="97" y="71"/>
      <point x="34" y="35"/>
      <point x="34" y="-69" type="curve" smooth="yes"/>
      <point x="34" y="-181"/>
      <point x="105" y="-254"/>
    </contour>
  </outline>
</glyph>
<glyph name="shin-georgian" format="2">
  <advance width="557"/>
  <unicode hex="10E8"/>
  <note>
uni10E8
</note>
  <outline>
    <contour>
      <point x="268" y="-10" type="curve" smooth="yes"/>
      <point x="414" y="-10"/>
      <point x="497" y="75"/>
      <point x="497" y="247" type="curve" smooth="yes"/>
      <point x="497" y="590" type="line" smooth="yes"/>
      <point x="497" y="722"/>
      <point x="445" y="774"/>
      <point x="339" y="774" type="curve" smooth="yes"/>
      <point x="286" y="774"/>
      <point x="237" y="749"/>
      <point x="217" y="696" type="curve"/>
      <point x="213" y="696" type="line"/>
      <point x="192" y="749"/>
      <point x="153" y="774"/>
      <point x="91" y="774" type="curve" smooth="yes"/>
      <point x="13" y="774"/>
      <point x="-50" y="738"/>
      <point x="-50" y="652" type="curve" smooth="yes"/>
      <point x="-50" y="592"/>
      <point x="-7" y="554"/>
      <point x="36" y="554" type="curve" smooth="yes"/>
      <point x="58" y="554"/>
      <point x="85" y="559"/>
      <point x="106" y="567" type="curve"/>
      <point x="101" y="579"/>
      <point x="95" y="601"/>
      <point x="95" y="638" type="curve" smooth="yes"/>
      <point x="95" y="684"/>
      <point x="102" y="709"/>
      <point x="122" y="709" type="curve" smooth="yes"/>
      <point x="141" y="709"/>
      <point x="147" y="684"/>
      <point x="147" y="631" type="curve" smooth="yes"/>
      <point x="147" y="582" type="line"/>
      <point x="281" y="582" type="line"/>
      <point x="281" y="631" type="line" smooth="yes"/>
      <point x="281" y="684"/>
      <point x="289" y="705"/>
      <point x="307" y="705" type="curve" smooth="yes"/>
      <point x="326" y="705"/>
      <point x="334" y="684"/>
      <point x="334" y="631" type="curve" smooth="yes"/>
      <point x="334" y="526" type="line" smooth="yes"/>
      <point x="334" y="488"/>
      <point x="334" y="455"/>
      <point x="335" y="426" type="curve"/>
      <point x="331" y="426" type="line"/>
      <point x="308" y="467"/>
      <point x="275" y="498"/>
      <point x="214" y="498" type="curve" smooth="yes"/>
      <point x="108" y="498"/>
      <point x="44" y="410"/>
      <point x="44" y="247" type="curve" smooth="yes"/>
      <point x="44" y="75"/>
      <point x="118" y="-10"/>
    </contour>
    <contour>
      <point x="268" y="56" type="curve" smooth="yes"/>
      <point x="226" y="56"/>
      <point x="210" y="123"/>
      <point x="210" y="248" type="curve" smooth="yes"/>
      <point x="210" y="351"/>
      <point x="226" y="424"/>
      <point x="269" y="424" type="curve" smooth="yes"/>
      <point x="319" y="424"/>
      <point x="334" y="351"/>
      <point x="334" y="249" type="curve" smooth="yes"/>
      <point x="334" y="126"/>
      <point x="319" y="56"/>
    </contour>
  </outline>
</glyph>
<glyph name="chin-georgian" format="2">
  <advance width="531"/>
  <unicode hex="10E9"/>
  <note>
uni10E9
</note>
  <outline>
    <contour>
      <point x="355" y="-9" type="curve" smooth="yes"/>
      <point x="428" y="-9"/>
      <point x="497" y="101"/>
      <point x="497" y="270" type="curve" smooth="yes"/>
      <point x="497" y="420"/>
      <point x="436" y="500"/>
      <point x="338" y="500" type="curve" smooth="yes"/>
      <point x="266" y="500"/>
      <point x="223" y="451"/>
      <point x="203" y="412" type="curve"/>
      <point x="199" y="412" type="line"/>
      <point x="201" y="440"/>
      <point x="204" y="460"/>
      <point x="204" y="489" type="curve" smooth="yes"/>
      <point x="204" y="514" type="line"/>
      <point x="360" y="553"/>
      <point x="447" y="584"/>
      <point x="447" y="663" type="curve" smooth="yes"/>
      <point x="447" y="728"/>
      <point x="381" y="774"/>
      <point x="251" y="774" type="curve" smooth="yes"/>
      <point x="136" y="774"/>
      <point x="41" y="698"/>
      <point x="41" y="573" type="curve" smooth="yes"/>
      <point x="41" y="0" type="line"/>
      <point x="204" y="0" type="line"/>
      <point x="204" y="256" type="line" smooth="yes"/>
      <point x="204" y="334"/>
      <point x="220" y="409"/>
      <point x="265" y="409" type="curve" smooth="yes"/>
      <point x="305" y="409"/>
      <point x="331" y="374"/>
      <point x="331" y="262" type="curve" smooth="yes"/>
      <point x="331" y="148"/>
      <point x="320" y="65"/>
      <point x="288" y="50" type="curve"/>
      <point x="288" y="17"/>
      <point x="310" y="-9"/>
    </contour>
    <contour>
      <point x="204" y="566" type="curve"/>
      <point x="204" y="645" type="line" smooth="yes"/>
      <point x="204" y="685"/>
      <point x="222" y="710"/>
      <point x="250" y="710" type="curve" smooth="yes"/>
      <point x="278" y="710"/>
      <point x="294" y="693"/>
      <point x="294" y="659" type="curve" smooth="yes"/>
      <point x="294" y="620"/>
      <point x="282" y="587"/>
    </contour>
  </outline>
</glyph>
<glyph name="can-georgian" format="2">
  <advance width="615"/>
  <unicode hex="10EA"/>
  <note>
uni10EA
</note>
  <outline>
    <contour>
      <point x="318" y="-254" type="curve" smooth="yes"/>
      <point x="504" y="-254"/>
      <point x="586" y="-145"/>
      <point x="586" y="-37" type="curve" smooth="yes"/>
      <point x="586" y="91"/>
      <point x="527" y="151"/>
      <point x="451" y="170" type="curve"/>
      <point x="451" y="172" type="line"/>
      <point x="527" y="192"/>
      <point x="565" y="230"/>
      <point x="565" y="286" type="curve" smooth="yes"/>
      <point x="565" y="349"/>
      <point x="535" y="383"/>
      <point x="506" y="412" type="curve" smooth="yes"/>
      <point x="481" y="437"/>
      <point x="458" y="463"/>
      <point x="458" y="494" type="curve" smooth="yes"/>
      <point x="458" y="506"/>
      <point x="460" y="517"/>
      <point x="466" y="531" type="curve"/>
      <point x="451" y="543"/>
      <point x="433" y="550"/>
      <point x="402" y="550" type="curve" smooth="yes"/>
      <point x="349" y="550"/>
      <point x="316" y="515"/>
      <point x="316" y="472" type="curve" smooth="yes"/>
      <point x="316" y="421"/>
      <point x="338" y="395"/>
      <point x="364" y="366" type="curve" smooth="yes"/>
      <point x="385" y="343"/>
      <point x="401" y="315"/>
      <point x="401" y="270" type="curve" smooth="yes"/>
      <point x="401" y="235"/>
      <point x="376" y="207"/>
      <point x="331" y="207" type="curve" smooth="yes"/>
      <point x="299" y="207" type="line"/>
      <point x="299" y="133" type="line"/>
      <point x="331" y="133" type="line" smooth="yes"/>
      <point x="379" y="133"/>
      <point x="422" y="93"/>
      <point x="422" y="-37" type="curve" smooth="yes"/>
      <point x="422" y="-138"/>
      <point x="384" y="-187"/>
      <point x="320" y="-187" type="curve" smooth="yes"/>
      <point x="220" y="-187"/>
      <point x="198" y="-30"/>
      <point x="198" y="148" type="curve" smooth="yes"/>
      <point x="198" y="347"/>
      <point x="229" y="430"/>
      <point x="259" y="503" type="curve"/>
      <point x="181" y="550" type="line"/>
      <point x="106" y="476"/>
      <point x="34" y="362"/>
      <point x="34" y="148" type="curve" smooth="yes"/>
      <point x="34" y="-127"/>
      <point x="133" y="-254"/>
    </contour>
  </outline>
</glyph>
<glyph name="jil-georgian" format="2">
  <advance width="552"/>
  <unicode hex="10EB"/>
  <note>
uni10EB
</note>
  <outline>
    <contour>
      <point x="258" y="-10" type="curve" smooth="yes"/>
      <point x="404" y="-10"/>
      <point x="487" y="75"/>
      <point x="487" y="267" type="curve"/>
      <point x="487" y="760" type="line"/>
      <point x="260" y="760" type="line"/>
      <point x="260" y="704" type="line"/>
      <point x="277" y="704" type="line" smooth="yes"/>
      <point x="303" y="704"/>
      <point x="324" y="697"/>
      <point x="324" y="653" type="curve" smooth="yes"/>
      <point x="324" y="588" type="line" smooth="yes"/>
      <point x="324" y="549"/>
      <point x="324" y="506"/>
      <point x="325" y="476" type="curve"/>
      <point x="321" y="476" type="line"/>
      <point x="298" y="517"/>
      <point x="265" y="548"/>
      <point x="204" y="548" type="curve" smooth="yes"/>
      <point x="98" y="548"/>
      <point x="34" y="460"/>
      <point x="34" y="267" type="curve" smooth="yes"/>
      <point x="34" y="75"/>
      <point x="108" y="-10"/>
    </contour>
    <contour>
      <point x="258" y="56" type="curve" smooth="yes"/>
      <point x="216" y="56"/>
      <point x="200" y="123"/>
      <point x="200" y="268" type="curve" smooth="yes"/>
      <point x="200" y="401"/>
      <point x="216" y="474"/>
      <point x="259" y="474" type="curve" smooth="yes"/>
      <point x="309" y="474"/>
      <point x="324" y="401"/>
      <point x="324" y="269" type="curve" smooth="yes"/>
      <point x="324" y="126"/>
      <point x="309" y="56"/>
    </contour>
  </outline>
</glyph>
<glyph name="cil-georgian" format="2">
  <advance width="556"/>
  <unicode hex="10EC"/>
  <note>
uni10EC
</note>
  <outline>
    <contour>
      <point x="206" y="-240" type="line"/>
      <point x="349" y="-240" type="line"/>
      <point x="467" y="113" type="line" smooth="yes"/>
      <point x="491" y="184"/>
      <point x="509" y="248"/>
      <point x="509" y="301" type="curve" smooth="yes"/>
      <point x="509" y="428"/>
      <point x="450" y="498"/>
      <point x="336" y="498" type="curve" smooth="yes"/>
      <point x="265" y="498"/>
      <point x="226" y="462"/>
      <point x="203" y="406" type="curve"/>
      <point x="199" y="406" type="line"/>
      <point x="177" y="519" type="line" smooth="yes"/>
      <point x="173" y="542"/>
      <point x="166" y="596"/>
      <point x="166" y="631" type="curve" smooth="yes"/>
      <point x="166" y="684"/>
      <point x="177" y="707"/>
      <point x="196" y="707" type="curve" smooth="yes"/>
      <point x="214" y="707"/>
      <point x="222" y="686"/>
      <point x="222" y="633" type="curve" smooth="yes"/>
      <point x="222" y="584" type="line"/>
      <point x="356" y="584" type="line"/>
      <point x="356" y="633" type="line" smooth="yes"/>
      <point x="356" y="686"/>
      <point x="363" y="711"/>
      <point x="384" y="711" type="curve" smooth="yes"/>
      <point x="405" y="711"/>
      <point x="411" y="686"/>
      <point x="411" y="640" type="curve" smooth="yes"/>
      <point x="411" y="603"/>
      <point x="405" y="581"/>
      <point x="400" y="569" type="curve"/>
      <point x="421" y="561"/>
      <point x="448" y="556"/>
      <point x="470" y="556" type="curve" smooth="yes"/>
      <point x="513" y="556"/>
      <point x="556" y="594"/>
      <point x="556" y="654" type="curve" smooth="yes"/>
      <point x="556" y="740"/>
      <point x="494" y="776"/>
      <point x="416" y="776" type="curve" smooth="yes"/>
      <point x="354" y="776"/>
      <point x="311" y="751"/>
      <point x="290" y="698" type="curve"/>
      <point x="286" y="698" type="line"/>
      <point x="266" y="751"/>
      <point x="221" y="774"/>
      <point x="161" y="774" type="curve" smooth="yes"/>
      <point x="59" y="774"/>
      <point x="0" y="712"/>
      <point x="0" y="590" type="curve" smooth="yes"/>
      <point x="0" y="494"/>
      <point x="27" y="396"/>
      <point x="51" y="310" type="curve" smooth="yes"/>
    </contour>
    <contour>
      <point x="288" y="-146" type="curve"/>
      <point x="285" y="-105"/>
      <point x="275" y="-64"/>
      <point x="269" y="-22" type="curve" smooth="yes"/>
      <point x="233" y="213" type="line" smooth="yes"/>
      <point x="227" y="252"/>
      <point x="223" y="287"/>
      <point x="223" y="316" type="curve" smooth="yes"/>
      <point x="223" y="385"/>
      <point x="243" y="423"/>
      <point x="282" y="423" type="curve" smooth="yes"/>
      <point x="319" y="423"/>
      <point x="343" y="380"/>
      <point x="343" y="299" type="curve" smooth="yes"/>
      <point x="343" y="274"/>
      <point x="340" y="245"/>
      <point x="336" y="213" type="curve" smooth="yes"/>
      <point x="305" y="-22" type="line" smooth="yes"/>
      <point x="301" y="-52"/>
      <point x="293" y="-105"/>
    </contour>
  </outline>
</glyph>
<glyph name="char-georgian" format="2">
  <advance width="620"/>
  <unicode hex="10ED"/>
  <note>
uni10ED
</note>
  <outline>
    <contour>
      <point x="620" y="441" type="curve" smooth="yes"/>
      <point x="620" y="520"/>
      <point x="561" y="566"/>
      <point x="506" y="566" type="curve" smooth="yes"/>
      <point x="494" y="566"/>
      <point x="482" y="564"/>
      <point x="470" y="560" type="curve"/>
      <point x="484" y="517"/>
      <point x="489" y="483"/>
      <point x="489" y="439" type="curve" smooth="yes"/>
      <point x="489" y="354"/>
      <point x="473" y="304"/>
      <point x="427" y="279" type="curve"/>
      <point x="427" y="760" type="line"/>
      <point x="190" y="760" type="line"/>
      <point x="190" y="704" type="line"/>
      <point x="222" y="704" type="line" smooth="yes"/>
      <point x="257" y="704"/>
      <point x="266" y="696"/>
      <point x="266" y="656" type="curve" smooth="yes"/>
      <point x="266" y="516" type="line"/>
      <point x="245" y="537"/>
      <point x="214" y="550"/>
      <point x="175" y="550" type="curve" smooth="yes"/>
      <point x="84" y="550"/>
      <point x="29" y="487"/>
      <point x="29" y="396" type="curve" smooth="yes"/>
      <point x="29" y="307"/>
      <point x="95" y="214"/>
      <point x="273" y="201" type="curve"/>
      <point x="284" y="151"/>
      <point x="310" y="110"/>
      <point x="340" y="73" type="curve" smooth="yes"/>
      <point x="372" y="33"/>
      <point x="389" y="-11"/>
      <point x="389" y="-78" type="curve" smooth="yes"/>
      <point x="389" y="-143"/>
      <point x="372" y="-187"/>
      <point x="317" y="-187" type="curve" smooth="yes"/>
      <point x="262" y="-187"/>
      <point x="246" y="-141"/>
      <point x="246" y="-65" type="curve" smooth="yes"/>
      <point x="246" y="-11"/>
      <point x="256" y="25"/>
      <point x="266" y="49" type="curve"/>
      <point x="252" y="62"/>
      <point x="227" y="71"/>
      <point x="200" y="71" type="curve" smooth="yes"/>
      <point x="146" y="71"/>
      <point x="83" y="35"/>
      <point x="83" y="-69" type="curve" smooth="yes"/>
      <point x="83" y="-181"/>
      <point x="174" y="-254"/>
      <point x="317" y="-254" type="curve" smooth="yes"/>
      <point x="457" y="-254"/>
      <point x="565" y="-191"/>
      <point x="565" y="-51" type="curve" smooth="yes"/>
      <point x="565" y="11"/>
      <point x="539" y="63"/>
      <point x="500" y="108" type="curve" smooth="yes"/>
      <point x="468" y="144"/>
      <point x="449" y="176"/>
      <point x="438" y="214" type="curve"/>
      <point x="560" y="244"/>
      <point x="620" y="324"/>
    </contour>
    <contour>
      <point x="190" y="402" type="curve" smooth="yes"/>
      <point x="190" y="455"/>
      <point x="203" y="491"/>
      <point x="227" y="491" type="curve" smooth="yes"/>
      <point x="248" y="491"/>
      <point x="266" y="471"/>
      <point x="266" y="417" type="curve" smooth="yes"/>
      <point x="266" y="269" type="line"/>
      <point x="203" y="289"/>
      <point x="190" y="341"/>
    </contour>
  </outline>
</glyph>
<glyph name="xan-georgian" format="2">
  <advance width="563"/>
  <unicode hex="10EE"/>
  <note>
uni10EE
</note>
  <outline>
    <contour>
      <point x="359" y="548" type="curve" smooth="yes"/>
      <point x="298" y="548"/>
      <point x="265" y="517"/>
      <point x="242" y="476" type="curve"/>
      <point x="238" y="476" type="line"/>
      <point x="239" y="506"/>
      <point x="239" y="549"/>
      <point x="239" y="588" type="curve" smooth="yes"/>
      <point x="239" y="760" type="line"/>
      <point x="15" y="760" type="line"/>
      <point x="15" y="704" type="line"/>
      <point x="18" y="704" type="line" smooth="yes"/>
      <point x="49" y="704"/>
      <point x="76" y="694"/>
      <point x="76" y="641" type="curve" smooth="yes"/>
      <point x="76" y="267" type="line" smooth="yes"/>
      <point x="76" y="75"/>
      <point x="159" y="-10"/>
      <point x="305" y="-10" type="curve" smooth="yes"/>
      <point x="455" y="-10"/>
      <point x="529" y="75"/>
      <point x="529" y="267" type="curve" smooth="yes"/>
      <point x="529" y="460"/>
      <point x="465" y="548"/>
    </contour>
    <contour>
      <point x="305" y="56" type="curve" smooth="yes"/>
      <point x="254" y="56"/>
      <point x="239" y="126"/>
      <point x="239" y="269" type="curve" smooth="yes"/>
      <point x="239" y="401"/>
      <point x="254" y="474"/>
      <point x="304" y="474" type="curve" smooth="yes"/>
      <point x="347" y="474"/>
      <point x="363" y="401"/>
      <point x="363" y="268" type="curve" smooth="yes"/>
      <point x="363" y="123"/>
      <point x="347" y="56"/>
    </contour>
  </outline>
</glyph>
<glyph name="jhan-georgian" format="2">
  <advance width="720"/>
  <unicode hex="10EF"/>
  <note>
uni10EF
</note>
  <outline>
    <contour>
      <point x="584" y="234" type="curve" smooth="yes"/>
      <point x="561" y="234"/>
      <point x="535" y="228"/>
      <point x="510" y="217" type="curve"/>
      <point x="522" y="186"/>
      <point x="528" y="158"/>
      <point x="528" y="123" type="curve" smooth="yes"/>
      <point x="528" y="80"/>
      <point x="522" y="52"/>
      <point x="504" y="52" type="curve" smooth="yes"/>
      <point x="486" y="52"/>
      <point x="476" y="74"/>
      <point x="470" y="102" type="curve" smooth="yes"/>
      <point x="440" y="243" type="line"/>
      <point x="571" y="302"/>
      <point x="652" y="358"/>
      <point x="652" y="442" type="curve" smooth="yes"/>
      <point x="652" y="526"/>
      <point x="577" y="550"/>
      <point x="526" y="550" type="curve" smooth="yes"/>
      <point x="468" y="550"/>
      <point x="440" y="520"/>
      <point x="440" y="497" type="curve" smooth="yes"/>
      <point x="440" y="485"/>
      <point x="443" y="476"/>
      <point x="449" y="469" type="curve"/>
      <point x="457" y="474"/>
      <point x="464" y="478"/>
      <point x="478" y="478" type="curve" smooth="yes"/>
      <point x="494" y="478"/>
      <point x="510" y="462"/>
      <point x="510" y="436" type="curve" smooth="yes"/>
      <point x="510" y="389"/>
      <point x="489" y="355"/>
      <point x="424" y="320" type="curve"/>
      <point x="408" y="397" type="line" smooth="yes"/>
      <point x="391" y="477"/>
      <point x="331" y="550"/>
      <point x="206" y="550" type="curve" smooth="yes"/>
      <point x="114" y="550"/>
      <point x="18" y="499"/>
      <point x="18" y="405" type="curve" smooth="yes"/>
      <point x="18" y="350"/>
      <point x="61" y="301"/>
      <point x="125" y="301" type="curve" smooth="yes"/>
      <point x="148" y="301"/>
      <point x="174" y="308"/>
      <point x="199" y="318" type="curve"/>
      <point x="187" y="349"/>
      <point x="181" y="378"/>
      <point x="181" y="412" type="curve" smooth="yes"/>
      <point x="181" y="455"/>
      <point x="188" y="483"/>
      <point x="209" y="483" type="curve" smooth="yes"/>
      <point x="226" y="483"/>
      <point x="231" y="457"/>
      <point x="239" y="421" type="curve" smooth="yes"/>
      <point x="275" y="248" type="line"/>
      <point x="196" y="203"/>
      <point x="143" y="151"/>
      <point x="102" y="81" type="curve"/>
      <point x="102" y="14" type="line"/>
      <point x="133" y="14" type="line" smooth="yes"/>
      <point x="194" y="14"/>
      <point x="217" y="-32"/>
      <point x="217" y="-94" type="curve" smooth="yes"/>
      <point x="217" y="-157"/>
      <point x="206" y="-187"/>
      <point x="182" y="-187" type="curve" smooth="yes"/>
      <point x="156" y="-187"/>
      <point x="148" y="-153"/>
      <point x="148" y="-111" type="curve" smooth="yes"/>
      <point x="148" y="-90"/>
      <point x="149" y="-69"/>
      <point x="155" y="-50" type="curve"/>
      <point x="136" y="-41"/>
      <point x="109" y="-37"/>
      <point x="95" y="-37" type="curve" smooth="yes"/>
      <point x="27" y="-37"/>
      <point x="0" y="-84"/>
      <point x="0" y="-124" type="curve" smooth="yes"/>
      <point x="0" y="-200"/>
      <point x="61" y="-254"/>
      <point x="183" y="-254" type="curve" smooth="yes"/>
      <point x="308" y="-254"/>
      <point x="366" y="-186"/>
      <point x="366" y="-99" type="curve" smooth="yes"/>
      <point x="366" y="-22"/>
      <point x="300" y="58"/>
      <point x="183" y="62" type="curve"/>
      <point x="183" y="66" type="line"/>
      <point x="203" y="106"/>
      <point x="238" y="140"/>
      <point x="291" y="172" type="curve"/>
      <point x="297" y="143" type="line" smooth="yes"/>
      <point x="315" y="58"/>
      <point x="393" y="-13"/>
      <point x="504" y="-13" type="curve" smooth="yes"/>
      <point x="594" y="-13"/>
      <point x="691" y="36"/>
      <point x="691" y="130" type="curve" smooth="yes"/>
      <point x="691" y="185"/>
      <point x="648" y="234"/>
    </contour>
  </outline>
</glyph>
<glyph name="hae-georgian" format="2">
  <advance width="496"/>
  <unicode hex="10F0"/>
  <note>
uni10F0
</note>
  <outline>
    <contour>
      <point x="243" y="-14" type="curve" smooth="yes"/>
      <point x="379" y="-14"/>
      <point x="462" y="51"/>
      <point x="462" y="142" type="curve" smooth="yes"/>
      <point x="462" y="205"/>
      <point x="418" y="243"/>
      <point x="344" y="259" type="curve"/>
      <point x="344" y="264" type="line"/>
      <point x="408" y="269"/>
      <point x="456" y="304"/>
      <point x="456" y="356" type="curve" smooth="yes"/>
      <point x="456" y="408"/>
      <point x="408" y="449"/>
      <point x="344" y="453" type="curve"/>
      <point x="344" y="458" type="line"/>
      <point x="408" y="469"/>
      <point x="448" y="501"/>
      <point x="448" y="547" type="curve" smooth="yes"/>
      <point x="448" y="605"/>
      <point x="406" y="634"/>
      <point x="362" y="661" type="curve" smooth="yes"/>
      <point x="320" y="687"/>
      <point x="302" y="698"/>
      <point x="302" y="723" type="curve" smooth="yes"/>
      <point x="302" y="736"/>
      <point x="304" y="743"/>
      <point x="310" y="755" type="curve"/>
      <point x="295" y="767"/>
      <point x="275" y="774"/>
      <point x="244" y="774" type="curve" smooth="yes"/>
      <point x="191" y="774"/>
      <point x="160" y="739"/>
      <point x="160" y="699" type="curve" smooth="yes"/>
      <point x="160" y="654"/>
      <point x="197" y="625"/>
      <point x="235" y="600" type="curve" smooth="yes"/>
      <point x="261" y="583"/>
      <point x="284" y="561"/>
      <point x="284" y="530" type="curve" smooth="yes"/>
      <point x="284" y="500"/>
      <point x="272" y="476"/>
      <point x="231" y="476" type="curve" smooth="yes"/>
      <point x="202" y="476" type="line"/>
      <point x="202" y="410" type="line"/>
      <point x="231" y="410" type="line" smooth="yes"/>
      <point x="270" y="410"/>
      <point x="293" y="388"/>
      <point x="293" y="356" type="curve" smooth="yes"/>
      <point x="293" y="322"/>
      <point x="271" y="302"/>
      <point x="231" y="302" type="curve" smooth="yes"/>
      <point x="202" y="302" type="line"/>
      <point x="202" y="236" type="line"/>
      <point x="232" y="236" type="line" smooth="yes"/>
      <point x="276" y="236"/>
      <point x="299" y="205"/>
      <point x="299" y="141" type="curve" smooth="yes"/>
      <point x="299" y="84"/>
      <point x="277" y="53"/>
      <point x="243" y="53" type="curve" smooth="yes"/>
      <point x="208" y="53"/>
      <point x="187" y="86"/>
      <point x="187" y="129" type="curve" smooth="yes"/>
      <point x="187" y="146"/>
      <point x="189" y="160"/>
      <point x="194" y="177" type="curve"/>
      <point x="175" y="188"/>
      <point x="156" y="194"/>
      <point x="132" y="194" type="curve" smooth="yes"/>
      <point x="60" y="194"/>
      <point x="29" y="146"/>
      <point x="29" y="107" type="curve" smooth="yes"/>
      <point x="29" y="39"/>
      <point x="100" y="-14"/>
    </contour>
  </outline>
</glyph>
<glyph name="he-georgian" format="2">
  <advance width="620"/>
  <unicode hex="10F1"/>
  <note>
uni10F1
</note>
  <outline>
    <contour>
      <point x="332" y="-14" type="curve" smooth="yes"/>
      <point x="504" y="-14"/>
      <point x="586" y="65"/>
      <point x="586" y="143" type="curve" smooth="yes"/>
      <point x="586" y="206"/>
      <point x="542" y="243"/>
      <point x="468" y="259" type="curve"/>
      <point x="468" y="264" type="line"/>
      <point x="532" y="269"/>
      <point x="580" y="304"/>
      <point x="580" y="356" type="curve" smooth="yes"/>
      <point x="580" y="408"/>
      <point x="532" y="449"/>
      <point x="468" y="453" type="curve"/>
      <point x="468" y="458" type="line"/>
      <point x="532" y="469"/>
      <point x="572" y="501"/>
      <point x="572" y="547" type="curve" smooth="yes"/>
      <point x="572" y="605"/>
      <point x="532" y="638"/>
      <point x="499" y="663" type="curve" smooth="yes"/>
      <point x="475" y="681"/>
      <point x="456" y="700"/>
      <point x="456" y="723" type="curve" smooth="yes"/>
      <point x="456" y="736"/>
      <point x="458" y="743"/>
      <point x="464" y="755" type="curve"/>
      <point x="449" y="767"/>
      <point x="429" y="774"/>
      <point x="398" y="774" type="curve" smooth="yes"/>
      <point x="345" y="774"/>
      <point x="314" y="739"/>
      <point x="314" y="699" type="curve" smooth="yes"/>
      <point x="314" y="659"/>
      <point x="332" y="634"/>
      <point x="360" y="611" type="curve" smooth="yes"/>
      <point x="390" y="586"/>
      <point x="408" y="569"/>
      <point x="408" y="530" type="curve" smooth="yes"/>
      <point x="408" y="500"/>
      <point x="396" y="476"/>
      <point x="355" y="476" type="curve" smooth="yes"/>
      <point x="326" y="476" type="line"/>
      <point x="326" y="410" type="line"/>
      <point x="355" y="410" type="line" smooth="yes"/>
      <point x="394" y="410"/>
      <point x="417" y="388"/>
      <point x="417" y="356" type="curve" smooth="yes"/>
      <point x="417" y="322"/>
      <point x="395" y="302"/>
      <point x="355" y="302" type="curve" smooth="yes"/>
      <point x="326" y="302" type="line"/>
      <point x="326" y="236" type="line"/>
      <point x="346" y="236" type="line" smooth="yes"/>
      <point x="390" y="236"/>
      <point x="422" y="207"/>
      <point x="422" y="149" type="curve" smooth="yes"/>
      <point x="422" y="92"/>
      <point x="390" y="53"/>
      <point x="334" y="53" type="curve" smooth="yes"/>
      <point x="220" y="53"/>
      <point x="198" y="210"/>
      <point x="198" y="388" type="curve" smooth="yes"/>
      <point x="198" y="571"/>
      <point x="229" y="654"/>
      <point x="259" y="727" type="curve"/>
      <point x="181" y="774" type="line"/>
      <point x="106" y="700"/>
      <point x="34" y="586"/>
      <point x="34" y="388" type="curve" smooth="yes"/>
      <point x="34" y="113"/>
      <point x="133" y="-14"/>
    </contour>
  </outline>
</glyph>
<glyph name="hie-georgian" format="2">
  <advance width="524"/>
  <unicode hex="10F2"/>
  <note>
uni10F2
</note>
  <outline>
    <contour>
      <point x="88" y="-14" type="curve" smooth="yes"/>
      <point x="127" y="-14"/>
      <point x="195" y="6"/>
      <point x="261" y="42" type="curve"/>
      <point x="325" y="6"/>
      <point x="388" y="-14"/>
      <point x="429" y="-14" type="curve" smooth="yes"/>
      <point x="469" y="-14"/>
      <point x="483" y="24"/>
      <point x="483" y="52" type="curve"/>
      <point x="433" y="52"/>
      <point x="373" y="62"/>
      <point x="328" y="87" type="curve"/>
      <point x="418" y="146"/>
      <point x="490" y="210"/>
      <point x="490" y="325" type="curve" smooth="yes"/>
      <point x="490" y="458"/>
      <point x="401" y="550"/>
      <point x="263" y="550" type="curve" smooth="yes"/>
      <point x="114" y="550"/>
      <point x="34" y="458"/>
      <point x="34" y="325" type="curve" smooth="yes"/>
      <point x="34" y="211"/>
      <point x="105" y="146"/>
      <point x="192" y="88" type="curve"/>
      <point x="147" y="63"/>
      <point x="89" y="52"/>
      <point x="41" y="52" type="curve"/>
      <point x="41" y="24"/>
      <point x="53" y="-14"/>
    </contour>
    <contour>
      <point x="261" y="137" type="curve"/>
      <point x="220" y="176"/>
      <point x="200" y="246"/>
      <point x="200" y="335" type="curve" smooth="yes"/>
      <point x="200" y="417"/>
      <point x="216" y="483"/>
      <point x="261" y="483" type="curve" smooth="yes"/>
      <point x="306" y="483"/>
      <point x="324" y="417"/>
      <point x="324" y="335" type="curve" smooth="yes"/>
      <point x="324" y="247"/>
      <point x="304" y="176"/>
    </contour>
  </outline>
</glyph>
<glyph name="we-georgian" format="2">
  <advance width="528"/>
  <unicode hex="10F3"/>
  <note>
uni10F3
</note>
  <outline>
    <contour>
      <point x="260" y="-254" type="curve" smooth="yes"/>
      <point x="402" y="-254"/>
      <point x="499" y="-181"/>
      <point x="499" y="-24" type="curve" smooth="yes"/>
      <point x="499" y="147"/>
      <point x="411" y="210"/>
      <point x="300" y="218" type="curve"/>
      <point x="466" y="453" type="line"/>
      <point x="466" y="536" type="line"/>
      <point x="87" y="536" type="line"/>
      <point x="72" y="328" type="line"/>
      <point x="122" y="328" type="line"/>
      <point x="132" y="362" type="line" smooth="yes"/>
      <point x="146" y="409"/>
      <point x="151" y="425"/>
      <point x="190" y="425" type="curve" smooth="yes"/>
      <point x="354" y="425" type="line"/>
      <point x="192" y="196" type="line"/>
      <point x="192" y="155" type="line"/>
      <point x="222" y="155" type="line" smooth="yes"/>
      <point x="291" y="155"/>
      <point x="333" y="104"/>
      <point x="333" y="-24" type="curve" smooth="yes"/>
      <point x="333" y="-141"/>
      <point x="307" y="-187"/>
      <point x="260" y="-187" type="curve" smooth="yes"/>
      <point x="218" y="-187"/>
      <point x="192" y="-141"/>
      <point x="192" y="-65" type="curve" smooth="yes"/>
      <point x="192" y="-11"/>
      <point x="202" y="25"/>
      <point x="212" y="49" type="curve"/>
      <point x="198" y="62"/>
      <point x="173" y="71"/>
      <point x="146" y="71" type="curve" smooth="yes"/>
      <point x="92" y="71"/>
      <point x="29" y="35"/>
      <point x="29" y="-69" type="curve" smooth="yes"/>
      <point x="29" y="-181"/>
      <point x="110" y="-254"/>
    </contour>
  </outline>
</glyph>
<glyph name="har-georgian" format="2">
  <advance width="504"/>
  <unicode hex="10F4"/>
  <note>
uni10F4
</note>
  <outline>
    <contour>
      <point x="252" y="-254" type="curve" smooth="yes"/>
      <point x="381" y="-254"/>
      <point x="475" y="-191"/>
      <point x="475" y="-24" type="curve" smooth="yes"/>
      <point x="475" y="118"/>
      <point x="389" y="186"/>
      <point x="278" y="198" type="curve"/>
      <point x="460" y="421" type="line"/>
      <point x="460" y="497" type="line"/>
      <point x="300" y="497" type="line" smooth="yes"/>
      <point x="223" y="497"/>
      <point x="182" y="531"/>
      <point x="182" y="609" type="curve" smooth="yes"/>
      <point x="182" y="680"/>
      <point x="206" y="721"/>
      <point x="253" y="721" type="curve" smooth="yes"/>
      <point x="310" y="721"/>
      <point x="323" y="671"/>
      <point x="323" y="583" type="curve"/>
      <point x="383" y="583"/>
      <point x="429" y="603"/>
      <point x="429" y="652" type="curve" smooth="yes"/>
      <point x="429" y="716"/>
      <point x="380" y="774"/>
      <point x="253" y="774" type="curve" smooth="yes"/>
      <point x="148" y="774"/>
      <point x="40" y="707"/>
      <point x="40" y="588" type="curve" smooth="yes"/>
      <point x="40" y="446"/>
      <point x="167" y="394"/>
      <point x="263" y="394" type="curve" smooth="yes"/>
      <point x="347" y="394" type="line"/>
      <point x="170" y="176" type="line"/>
      <point x="170" y="136" type="line"/>
      <point x="200" y="136" type="line" smooth="yes"/>
      <point x="269" y="136"/>
      <point x="312" y="85"/>
      <point x="312" y="-24" type="curve" smooth="yes"/>
      <point x="312" y="-151"/>
      <point x="293" y="-187"/>
      <point x="252" y="-187" type="curve" smooth="yes"/>
      <point x="208" y="-187"/>
      <point x="192" y="-141"/>
      <point x="192" y="-75" type="curve" smooth="yes"/>
      <point x="192" y="-31"/>
      <point x="202" y="5"/>
      <point x="212" y="29" type="curve"/>
      <point x="198" y="42"/>
      <point x="173" y="51"/>
      <point x="146" y="51" type="curve" smooth="yes"/>
      <point x="92" y="51"/>
      <point x="29" y="15"/>
      <point x="29" y="-79" type="curve" smooth="yes"/>
      <point x="29" y="-181"/>
      <point x="110" y="-254"/>
    </contour>
  </outline>
</glyph>
<glyph name="hoe-georgian" format="2">
  <advance width="609"/>
  <unicode hex="10F5"/>
  <note>
uni10F5
</note>
  <outline>
    <contour>
      <point x="268" y="-14" type="curve" smooth="yes"/>
      <point x="428" y="-14"/>
      <point x="501" y="58"/>
      <point x="501" y="172" type="curve" smooth="yes"/>
      <point x="501" y="274" type="line"/>
      <point x="604" y="274" type="line"/>
      <point x="604" y="338" type="line"/>
      <point x="501" y="338" type="line"/>
      <point x="501" y="423" type="line"/>
      <point x="604" y="423" type="line"/>
      <point x="604" y="487" type="line"/>
      <point x="501" y="487" type="line"/>
      <point x="501" y="588" type="line" smooth="yes"/>
      <point x="501" y="702"/>
      <point x="428" y="774"/>
      <point x="268" y="774" type="curve" smooth="yes"/>
      <point x="125" y="774"/>
      <point x="34" y="708"/>
      <point x="34" y="591" type="curve" smooth="yes"/>
      <point x="34" y="474"/>
      <point x="123" y="423"/>
      <point x="234" y="423" type="curve" smooth="yes"/>
      <point x="338" y="423" type="line"/>
      <point x="338" y="338" type="line"/>
      <point x="234" y="338" type="line" smooth="yes"/>
      <point x="123" y="338"/>
      <point x="34" y="287"/>
      <point x="34" y="169" type="curve" smooth="yes"/>
      <point x="34" y="52"/>
      <point x="125" y="-14"/>
    </contour>
    <contour>
      <point x="273" y="50" type="curve" smooth="yes"/>
      <point x="221" y="50"/>
      <point x="200" y="88"/>
      <point x="200" y="167" type="curve" smooth="yes"/>
      <point x="200" y="248"/>
      <point x="230" y="274"/>
      <point x="276" y="274" type="curve" smooth="yes"/>
      <point x="338" y="274" type="line"/>
      <point x="338" y="166" type="line" smooth="yes"/>
      <point x="338" y="96"/>
      <point x="323" y="50"/>
    </contour>
    <contour>
      <point x="276" y="487" type="line" smooth="yes"/>
      <point x="230" y="487"/>
      <point x="200" y="512"/>
      <point x="200" y="593" type="curve" smooth="yes"/>
      <point x="200" y="672"/>
      <point x="221" y="710"/>
      <point x="273" y="710" type="curve" smooth="yes"/>
      <point x="323" y="710"/>
      <point x="338" y="664"/>
      <point x="338" y="594" type="curve" smooth="yes"/>
      <point x="338" y="487" type="line"/>
    </contour>
  </outline>
</glyph>
<glyph name="fi-georgian" format="2">
  <advance width="805"/>
  <unicode hex="10F6"/>
  <note>
uni10F6
</note>
  <outline>
    <contour>
      <point x="267" y="-254" type="curve" smooth="yes"/>
      <point x="405" y="-254"/>
      <point x="483" y="-195"/>
      <point x="483" y="-88" type="curve" smooth="yes"/>
      <point x="483" y="-30" type="line" smooth="yes"/>
      <point x="483" y="9"/>
      <point x="482" y="51"/>
      <point x="480" y="82" type="curve"/>
      <point x="485" y="82" type="line"/>
      <point x="508" y="41"/>
      <point x="542" y="6"/>
      <point x="603" y="6" type="curve" smooth="yes"/>
      <point x="708" y="6"/>
      <point x="771" y="93"/>
      <point x="771" y="268" type="curve" smooth="yes"/>
      <point x="771" y="439"/>
      <point x="708" y="530"/>
      <point x="603" y="530" type="curve" smooth="yes"/>
      <point x="542" y="530"/>
      <point x="508" y="499"/>
      <point x="485" y="458" type="curve"/>
      <point x="480" y="458" type="line"/>
      <point x="481" y="475"/>
      <point x="482" y="495"/>
      <point x="482" y="516" type="curve" smooth="yes"/>
      <point x="482" y="610" type="line" smooth="yes"/>
      <point x="482" y="672"/>
      <point x="500" y="702"/>
      <point x="528" y="702" type="curve" smooth="yes"/>
      <point x="558" y="702"/>
      <point x="570" y="660"/>
      <point x="566" y="602" type="curve"/>
      <point x="653" y="602"/>
      <point x="705" y="628"/>
      <point x="705" y="678" type="curve" smooth="yes"/>
      <point x="705" y="714"/>
      <point x="665" y="774"/>
      <point x="528" y="774" type="curve" smooth="yes"/>
      <point x="398" y="774"/>
      <point x="322" y="716"/>
      <point x="322" y="610" type="curve" smooth="yes"/>
      <point x="322" y="516" type="line" smooth="yes"/>
      <point x="322" y="496"/>
      <point x="324" y="476"/>
      <point x="325" y="456" type="curve"/>
      <point x="321" y="456" type="line"/>
      <point x="298" y="498"/>
      <point x="261" y="530"/>
      <point x="199" y="530" type="curve" smooth="yes"/>
      <point x="90" y="530"/>
      <point x="34" y="445"/>
      <point x="34" y="268" type="curve" smooth="yes"/>
      <point x="34" y="91"/>
      <point x="90" y="6"/>
      <point x="199" y="6" type="curve" smooth="yes"/>
      <point x="261" y="6"/>
      <point x="298" y="42"/>
      <point x="321" y="84" type="curve"/>
      <point x="325" y="84" type="line"/>
      <point x="323" y="53"/>
      <point x="320" y="2"/>
      <point x="320" y="-35" type="curve" smooth="yes"/>
      <point x="320" y="-90" type="line" smooth="yes"/>
      <point x="320" y="-152"/>
      <point x="302" y="-182"/>
      <point x="274" y="-182" type="curve" smooth="yes"/>
      <point x="244" y="-182"/>
      <point x="232" y="-140"/>
      <point x="236" y="-82" type="curve"/>
      <point x="149" y="-82"/>
      <point x="97" y="-108"/>
      <point x="97" y="-158" type="curve" smooth="yes"/>
      <point x="97" y="-194"/>
      <point x="137" y="-254"/>
    </contour>
    <contour>
      <point x="257" y="80" type="curve" smooth="yes"/>
      <point x="215" y="80"/>
      <point x="197" y="146"/>
      <point x="197" y="266" type="curve" smooth="yes"/>
      <point x="197" y="390"/>
      <point x="215" y="456"/>
      <point x="257" y="456" type="curve" smooth="yes"/>
      <point x="316" y="456"/>
      <point x="321" y="354"/>
      <point x="321" y="268" type="curve" smooth="yes"/>
      <point x="321" y="182"/>
      <point x="316" y="80"/>
    </contour>
    <contour>
      <point x="548" y="80" type="curve" smooth="yes"/>
      <point x="497" y="80"/>
      <point x="483" y="157"/>
      <point x="483" y="268" type="curve" smooth="yes"/>
      <point x="483" y="379"/>
      <point x="497" y="456"/>
      <point x="548" y="456" type="curve" smooth="yes"/>
      <point x="591" y="456"/>
      <point x="607" y="380"/>
      <point x="607" y="268" type="curve" smooth="yes"/>
      <point x="607" y="152"/>
      <point x="591" y="80"/>
    </contour>
  </outline>
</glyph>
<glyph name="yn-georgian" format="2">
  <advance width="482"/>
  <unicode hex="10F7"/>
  <note>
uni10F7
</note>
  <anchor x="249" y="536" name="top"/>
  <outline>
    <contour>
      <point x="234" y="-254" type="curve" smooth="yes"/>
      <point x="382" y="-254"/>
      <point x="453" y="-181"/>
      <point x="453" y="-89" type="curve" smooth="yes"/>
      <point x="453" y="-5"/>
      <point x="410" y="31"/>
      <point x="362" y="31" type="curve" smooth="yes"/>
      <point x="335" y="31"/>
      <point x="310" y="22"/>
      <point x="296" y="9" type="curve"/>
      <point x="306" y="-15"/>
      <point x="316" y="-51"/>
      <point x="316" y="-85" type="curve" smooth="yes"/>
      <point x="316" y="-151"/>
      <point x="284" y="-187"/>
      <point x="234" y="-187" type="curve" smooth="yes"/>
      <point x="186" y="-187"/>
      <point x="151" y="-141"/>
      <point x="151" y="-74" type="curve" smooth="yes"/>
      <point x="151" y="15"/>
      <point x="203" y="56"/>
      <point x="276" y="111" type="curve" smooth="yes"/>
      <point x="357" y="172"/>
      <point x="437" y="244"/>
      <point x="437" y="353" type="curve" smooth="yes"/>
      <point x="437" y="464"/>
      <point x="382" y="550"/>
      <point x="244" y="550" type="curve" smooth="yes"/>
      <point x="126" y="550"/>
      <point x="56" y="494"/>
      <point x="56" y="413" type="curve" smooth="yes"/>
      <point x="56" y="363"/>
      <point x="93" y="327"/>
      <point x="136" y="327" type="curve" smooth="yes"/>
      <point x="158" y="327"/>
      <point x="175" y="332"/>
      <point x="196" y="340" type="curve"/>
      <point x="188" y="357"/>
      <point x="183" y="374"/>
      <point x="183" y="405" type="curve" smooth="yes"/>
      <point x="183" y="459"/>
      <point x="207" y="485"/>
      <point x="245" y="485" type="curve" smooth="yes"/>
      <point x="286" y="485"/>
      <point x="314" y="457"/>
      <point x="314" y="397" type="curve" smooth="yes"/>
      <point x="314" y="320"/>
      <point x="250" y="274"/>
      <point x="187" y="227" type="curve" smooth="yes"/>
      <point x="103" y="164"/>
      <point x="29" y="90"/>
      <point x="29" y="-32" type="curve" smooth="yes"/>
      <point x="29" y="-154"/>
      <point x="94" y="-254"/>
    </contour>
  </outline>
</glyph>
<glyph name="elifi-georgian" format="2">
  <advance width="516"/>
  <unicode hex="10F8"/>
  <note>
uni10F8
</note>
  <outline>
    <contour>
      <point x="259" y="-254" type="curve" smooth="yes"/>
      <point x="411" y="-254"/>
      <point x="482" y="-181"/>
      <point x="482" y="-69" type="curve" smooth="yes"/>
      <point x="482" y="35"/>
      <point x="419" y="71"/>
      <point x="365" y="71" type="curve" smooth="yes"/>
      <point x="338" y="71"/>
      <point x="313" y="62"/>
      <point x="299" y="49" type="curve"/>
      <point x="309" y="25"/>
      <point x="319" y="-11"/>
      <point x="319" y="-65" type="curve" smooth="yes"/>
      <point x="319" y="-141"/>
      <point x="303" y="-187"/>
      <point x="259" y="-187" type="curve" smooth="yes"/>
      <point x="218" y="-187"/>
      <point x="199" y="-151"/>
      <point x="199" y="-24" type="curve" smooth="yes"/>
      <point x="199" y="146" type="line" smooth="yes"/>
      <point x="199" y="175"/>
      <point x="197" y="203"/>
      <point x="193" y="232" type="curve"/>
      <point x="199" y="232" type="line"/>
      <point x="222" y="191"/>
      <point x="255" y="163"/>
      <point x="316" y="163" type="curve" smooth="yes"/>
      <point x="394" y="163"/>
      <point x="473" y="228"/>
      <point x="473" y="358" type="curve" smooth="yes"/>
      <point x="473" y="474"/>
      <point x="410" y="543"/>
      <point x="344" y="543" type="curve" smooth="yes"/>
      <point x="320" y="543"/>
      <point x="307" y="539"/>
      <point x="284" y="531" type="curve"/>
      <point x="300" y="499"/>
      <point x="315" y="452"/>
      <point x="315" y="372" type="curve" smooth="yes"/>
      <point x="315" y="283"/>
      <point x="289" y="238"/>
      <point x="256" y="238" type="curve" smooth="yes"/>
      <point x="222" y="238"/>
      <point x="199" y="280"/>
      <point x="199" y="335" type="curve" smooth="yes"/>
      <point x="199" y="536" type="line"/>
      <point x="36" y="536" type="line"/>
      <point x="36" y="-24" type="line" smooth="yes"/>
      <point x="36" y="-191"/>
      <point x="130" y="-254"/>
    </contour>
  </outline>
</glyph>
<glyph name="turnedgan-georgian" format="2">
  <advance width="534"/>
  <unicode hex="10F9"/>
  <note>
uni10F9
</note>
  <outline>
    <contour>
      <point x="269" y="550" type="curve" smooth="yes"/>
      <point x="115" y="550"/>
      <point x="34" y="458"/>
      <point x="34" y="266" type="curve" smooth="yes"/>
      <point x="34" y="114"/>
      <point x="91" y="26"/>
      <point x="198" y="3" type="curve"/>
      <point x="198" y="-1" type="line"/>
      <point x="131" y="-17"/>
      <point x="81" y="-59"/>
      <point x="81" y="-120" type="curve" smooth="yes"/>
      <point x="81" y="-208"/>
      <point x="170" y="-254"/>
      <point x="275" y="-254" type="curve" smooth="yes"/>
      <point x="388" y="-254"/>
      <point x="466" y="-208"/>
      <point x="466" y="-132" type="curve" smooth="yes"/>
      <point x="466" y="-92"/>
      <point x="429" y="-56"/>
      <point x="376" y="-56" type="curve" smooth="yes"/>
      <point x="354" y="-56"/>
      <point x="327" y="-61"/>
      <point x="306" y="-69" type="curve"/>
      <point x="311" y="-81"/>
      <point x="316" y="-101"/>
      <point x="316" y="-128" type="curve" smooth="yes"/>
      <point x="316" y="-164"/>
      <point x="302" y="-189"/>
      <point x="274" y="-189" type="curve" smooth="yes"/>
      <point x="246" y="-189"/>
      <point x="231" y="-164"/>
      <point x="231" y="-125" type="curve" smooth="yes"/>
      <point x="231" y="-80"/>
      <point x="234" y="-36"/>
      <point x="298" y="-17" type="curve" smooth="yes"/>
      <point x="433" y="23"/>
      <point x="500" y="88"/>
      <point x="500" y="266" type="curve" smooth="yes"/>
      <point x="500" y="458"/>
      <point x="413" y="550"/>
    </contour>
    <contour>
      <point x="267" y="484" type="curve" smooth="yes"/>
      <point x="317" y="484"/>
      <point x="334" y="410"/>
      <point x="334" y="266" type="curve" smooth="yes"/>
      <point x="334" y="125"/>
      <point x="318" y="53"/>
      <point x="268" y="53" type="curve" smooth="yes"/>
      <point x="218" y="53"/>
      <point x="200" y="125"/>
      <point x="200" y="266" type="curve" smooth="yes"/>
      <point x="200" y="410"/>
      <point x="217" y="484"/>
    </contour>
  </outline>
</glyph>
<glyph name="ain-georgian" format="2">
  <advance width="461"/>
  <unicode hex="10FA"/>
  <note>
uni10FA
</note>
  <outline>
    <contour>
      <point x="73" y="-107" type="line"/>
      <point x="431" y="59" type="line"/>
      <point x="431" y="142" type="line"/>
      <point x="412" y="120"/>
      <point x="343" y="80"/>
      <point x="289" y="80" type="curve" smooth="yes"/>
      <point x="223" y="80"/>
      <point x="198" y="149"/>
      <point x="198" y="267" type="curve" smooth="yes"/>
      <point x="198" y="436"/>
      <point x="221" y="486"/>
      <point x="257" y="486" type="curve" smooth="yes"/>
      <point x="289" y="486"/>
      <point x="299" y="424"/>
      <point x="299" y="353" type="curve"/>
      <point x="415" y="353"/>
      <point x="432" y="402"/>
      <point x="432" y="444" type="curve" smooth="yes"/>
      <point x="432" y="499"/>
      <point x="388" y="550"/>
      <point x="252" y="550" type="curve" smooth="yes"/>
      <point x="130" y="550"/>
      <point x="34" y="483"/>
      <point x="34" y="272" type="curve" smooth="yes"/>
      <point x="34" y="106"/>
      <point x="94" y="31"/>
      <point x="171" y="6" type="curve"/>
      <point x="73" y="-39" type="line"/>
    </contour>
  </outline>
</glyph>
<glyph name="paragraph-georgian" format="2">
  <advance width="534"/>
  <unicode hex="10FB"/>
  <note>
uni10FB
</note>
  <outline>
    <contour>
      <point x="403" y="189" type="curve" smooth="yes"/>
      <point x="449" y="189"/>
      <point x="484" y="210"/>
      <point x="484" y="272" type="curve" smooth="yes"/>
      <point x="484" y="335"/>
      <point x="449" y="355"/>
      <point x="403" y="355" type="curve" smooth="yes"/>
      <point x="361" y="355"/>
      <point x="324" y="335"/>
      <point x="324" y="272" type="curve" smooth="yes"/>
      <point x="324" y="210"/>
      <point x="361" y="189"/>
    </contour>
    <contour>
      <point x="132" y="-10" type="curve" smooth="yes"/>
      <point x="176" y="-10"/>
      <point x="211" y="10"/>
      <point x="211" y="73" type="curve" smooth="yes"/>
      <point x="211" y="136"/>
      <point x="176" y="156"/>
      <point x="132" y="156" type="curve" smooth="yes"/>
      <point x="89" y="156"/>
      <point x="51" y="136"/>
      <point x="51" y="73" type="curve" smooth="yes"/>
      <point x="51" y="10"/>
      <point x="89" y="-10"/>
    </contour>
    <contour>
      <point x="130" y="378" type="curve" smooth="yes"/>
      <point x="175" y="378"/>
      <point x="210" y="399"/>
      <point x="210" y="461" type="curve" smooth="yes"/>
      <point x="210" y="525"/>
      <point x="175" y="545"/>
      <point x="130" y="545" type="curve" smooth="yes"/>
      <point x="88" y="545"/>
      <point x="50" y="525"/>
      <point x="50" y="461" type="curve" smooth="yes"/>
      <point x="50" y="399"/>
      <point x="88" y="378"/>
    </contour>
  </outline>
</glyph>
<glyph name="narMod-georgian" format="2">
  <advance width="344"/>
  <unicode hex="10FC"/>
  <note>
uni10FC
</note>
  <outline>
    <contour>
      <point x="178" y="381" type="curve" smooth="yes"/>
      <point x="274" y="381"/>
      <point x="329" y="452"/>
      <point x="329" y="542" type="curve" smooth="yes"/>
      <point x="329" y="636"/>
      <point x="288" y="698"/>
      <point x="221" y="698" type="curve" smooth="yes"/>
      <point x="193" y="698"/>
      <point x="166" y="685"/>
      <point x="151" y="663" type="curve"/>
      <point x="148" y="663" type="line"/>
      <point x="149" y="680"/>
      <point x="150" y="693"/>
      <point x="150" y="703" type="curve" smooth="yes"/>
      <point x="150" y="725" type="line" smooth="yes"/>
      <point x="150" y="752"/>
      <point x="156" y="767"/>
      <point x="179" y="767" type="curve" smooth="yes"/>
      <point x="222" y="767"/>
      <point x="220" y="729"/>
      <point x="270" y="729" type="curve" smooth="yes"/>
      <point x="292" y="729"/>
      <point x="315" y="750"/>
      <point x="315" y="780" type="curve" smooth="yes"/>
      <point x="315" y="803"/>
      <point x="302" y="818"/>
      <point x="290" y="824" type="curve"/>
      <point x="274" y="813"/>
      <point x="265" y="809"/>
      <point x="247" y="809" type="curve" smooth="yes"/>
      <point x="219" y="809"/>
      <point x="195" y="822"/>
      <point x="153" y="822" type="curve" smooth="yes"/>
      <point x="86" y="822"/>
      <point x="25" y="783"/>
      <point x="25" y="693" type="curve" smooth="yes"/>
      <point x="25" y="537" type="line" smooth="yes"/>
      <point x="25" y="445"/>
      <point x="78" y="381"/>
    </contour>
    <contour>
      <point x="178" y="421" type="curve" smooth="yes"/>
      <point x="156" y="421"/>
      <point x="150" y="445"/>
      <point x="150" y="534" type="curve" smooth="yes"/>
      <point x="150" y="628"/>
      <point x="155" y="653"/>
      <point x="178" y="653" type="curve" smooth="yes"/>
      <point x="196" y="653"/>
      <point x="207" y="630"/>
      <point x="207" y="534" type="curve" smooth="yes"/>
      <point x="207" y="445"/>
      <point x="197" y="421"/>
    </contour>
  </outline>
</glyph>
<glyph name="aen-georgian" format="2">
  <advance width="485"/>
  <unicode hex="10FD"/>
  <outline>
    <contour>
      <point x="248" y="-14" type="curve" smooth="yes"/>
      <point x="388" y="-14"/>
      <point x="456" y="86"/>
      <point x="456" y="208" type="curve" smooth="yes"/>
      <point x="456" y="330"/>
      <point x="381" y="406"/>
      <point x="295" y="467" type="curve" smooth="yes"/>
      <point x="232" y="512"/>
      <point x="168" y="560"/>
      <point x="168" y="627" type="curve" smooth="yes"/>
      <point x="168" y="681"/>
      <point x="196" y="709"/>
      <point x="237" y="709" type="curve" smooth="yes"/>
      <point x="275" y="709"/>
      <point x="299" y="683"/>
      <point x="299" y="635" type="curve" smooth="yes"/>
      <point x="299" y="604"/>
      <point x="294" y="587"/>
      <point x="286" y="570" type="curve"/>
      <point x="307" y="562"/>
      <point x="324" y="557"/>
      <point x="346" y="557" type="curve" smooth="yes"/>
      <point x="389" y="557"/>
      <point x="426" y="593"/>
      <point x="426" y="643" type="curve" smooth="yes"/>
      <point x="426" y="718"/>
      <point x="356" y="774"/>
      <point x="238" y="774" type="curve" smooth="yes"/>
      <point x="100" y="774"/>
      <point x="45" y="688"/>
      <point x="45" y="594" type="curve" smooth="yes"/>
      <point x="45" y="484"/>
      <point x="125" y="412"/>
      <point x="206" y="351" type="curve" smooth="yes"/>
      <point x="279" y="296"/>
      <point x="326" y="255"/>
      <point x="326" y="166" type="curve" smooth="yes"/>
      <point x="326" y="99"/>
      <point x="296" y="53"/>
      <point x="248" y="53" type="curve" smooth="yes"/>
      <point x="198" y="53"/>
      <point x="166" y="89"/>
      <point x="166" y="155" type="curve" smooth="yes"/>
      <point x="166" y="189"/>
      <point x="176" y="225"/>
      <point x="186" y="249" type="curve"/>
      <point x="172" y="262"/>
      <point x="147" y="271"/>
      <point x="120" y="271" type="curve" smooth="yes"/>
      <point x="72" y="271"/>
      <point x="29" y="235"/>
      <point x="29" y="151" type="curve" smooth="yes"/>
      <point x="29" y="59"/>
      <point x="100" y="-14"/>
    </contour>
  </outline>
</glyph>
<glyph name="hardsign-georgian" format="2">
  <advance width="524"/>
  <unicode hex="10FE"/>
  <outline>
    <contour>
      <point x="88" y="550" type="curve" smooth="yes"/>
      <point x="53" y="550"/>
      <point x="41" y="512"/>
      <point x="41" y="484" type="curve"/>
      <point x="89" y="484"/>
      <point x="147" y="473"/>
      <point x="192" y="448" type="curve"/>
      <point x="105" y="390"/>
      <point x="35" y="325"/>
      <point x="34" y="211" type="curve" smooth="yes"/>
      <point x="33" y="78"/>
      <point x="114" y="-14"/>
      <point x="263" y="-14" type="curve" smooth="yes"/>
      <point x="401" y="-14"/>
      <point x="491" y="78"/>
      <point x="490" y="211" type="curve" smooth="yes"/>
      <point x="489" y="326"/>
      <point x="418" y="390"/>
      <point x="328" y="449" type="curve"/>
      <point x="373" y="474"/>
      <point x="433" y="484"/>
      <point x="483" y="484" type="curve"/>
      <point x="483" y="512"/>
      <point x="469" y="550"/>
      <point x="429" y="550" type="curve" smooth="yes"/>
      <point x="388" y="550"/>
      <point x="325" y="530"/>
      <point x="261" y="494" type="curve"/>
      <point x="195" y="530"/>
      <point x="127" y="550"/>
    </contour>
    <contour>
      <point x="261" y="399" type="curve"/>
      <point x="304" y="360"/>
      <point x="323" y="289"/>
      <point x="324" y="201" type="curve" smooth="yes"/>
      <point x="325" y="119"/>
      <point x="306" y="53"/>
      <point x="261" y="53" type="curve" smooth="yes"/>
      <point x="216" y="53"/>
      <point x="200" y="119"/>
      <point x="200" y="201" type="curve" smooth="yes"/>
      <point x="200" y="290"/>
      <point x="220" y="360"/>
    </contour>
  </outline>
</glyph>
<glyph name="labial-georgian" format="2">
  <advance width="534"/>
  <unicode hex="10FF"/>
  <outline>
    <contour>
      <point x="265" y="-14" type="curve" smooth="yes"/>
      <point x="419" y="-14"/>
      <point x="500" y="78"/>
      <point x="500" y="270" type="curve" smooth="yes"/>
      <point x="500" y="458"/>
      <point x="411" y="550"/>
      <point x="268" y="550" type="curve" smooth="yes"/>
      <point x="114" y="550"/>
      <point x="34" y="458"/>
      <point x="34" y="270" type="curve" smooth="yes"/>
      <point x="34" y="78"/>
      <point x="121" y="-14"/>
    </contour>
    <contour>
      <point x="267" y="52" type="curve" smooth="yes"/>
      <point x="217" y="52"/>
      <point x="200" y="126"/>
      <point x="200" y="270" type="curve" smooth="yes"/>
      <point x="200" y="411"/>
      <point x="216" y="483"/>
      <point x="266" y="483" type="curve" smooth="yes"/>
      <point x="316" y="483"/>
      <point x="334" y="411"/>
      <point x="334" y="270" type="curve" smooth="yes"/>
      <point x="334" y="126"/>
      <point x="317" y="52"/>
    </contour>
  </outline>
</glyph>
<glyph name="An-georgian" format="2">
  <advance width="541"/>
  <unicode hex="1C90"/>
  <anchor x="278" y="714" name="top"/>
  <outline>
    <contour>
      <point x="267" y="-10" type="curve" smooth="yes"/>
      <point x="396" y="-10"/>
      <point x="504" y="63"/>
      <point x="504" y="219" type="curve" smooth="yes"/>
      <point x="504" y="330"/>
      <point x="452" y="408"/>
      <point x="407" y="476" type="curve" smooth="yes"/>
      <point x="372" y="529"/>
      <point x="347" y="577"/>
      <point x="347" y="631" type="curve" smooth="yes"/>
      <point x="347" y="655"/>
      <point x="352" y="684"/>
      <point x="361" y="702" type="curve"/>
      <point x="346" y="717"/>
      <point x="324" y="725"/>
      <point x="294" y="725" type="curve" smooth="yes"/>
      <point x="229" y="725"/>
      <point x="189" y="681"/>
      <point x="189" y="615" type="curve" smooth="yes"/>
      <point x="189" y="539"/>
      <point x="223" y="475"/>
      <point x="261" y="420" type="curve" smooth="yes"/>
      <point x="299" y="365"/>
      <point x="330" y="306"/>
      <point x="330" y="207" type="curve" smooth="yes"/>
      <point x="330" y="101"/>
      <point x="309" y="58"/>
      <point x="266" y="58" type="curve" smooth="yes"/>
      <point x="221" y="58"/>
      <point x="202" y="109"/>
      <point x="202" y="207" type="curve" smooth="yes"/>
      <point x="202" y="263"/>
      <point x="212" y="299"/>
      <point x="227" y="334" type="curve"/>
      <point x="205" y="349"/>
      <point x="181" y="357"/>
      <point x="152" y="357" type="curve" smooth="yes"/>
      <point x="87" y="357"/>
      <point x="32" y="298"/>
      <point x="32" y="206" type="curve" smooth="yes"/>
      <point x="32" y="61"/>
      <point x="141" y="-10"/>
    </contour>
  </outline>
</glyph>
<glyph name="Ban-georgian" format="2">
  <advance width="569"/>
  <unicode hex="1C91"/>
  <outline>
    <contour>
      <point x="284" y="-10" type="curve" smooth="yes"/>
      <point x="445" y="-10"/>
      <point x="532" y="77"/>
      <point x="532" y="254" type="curve" smooth="yes"/>
      <point x="532" y="429"/>
      <point x="467" y="513"/>
      <point x="286" y="513" type="curve" smooth="yes"/>
      <point x="111" y="513"/>
      <point x="37" y="436"/>
      <point x="37" y="254" type="curve" smooth="yes"/>
      <point x="37" y="77"/>
      <point x="131" y="-10"/>
    </contour>
    <contour>
      <point x="286" y="56" type="curve" smooth="yes"/>
      <point x="228" y="56"/>
      <point x="210" y="127"/>
      <point x="210" y="254" type="curve" smooth="yes"/>
      <point x="210" y="382"/>
      <point x="227" y="451"/>
      <point x="285" y="451" type="curve" smooth="yes"/>
      <point x="339" y="451"/>
      <point x="359" y="384"/>
      <point x="359" y="254" type="curve" smooth="yes"/>
      <point x="359" y="125"/>
      <point x="340" y="56"/>
    </contour>
    <contour>
      <point x="217" y="498" type="curve"/>
      <point x="369" y="496" type="line"/>
      <point x="383" y="514"/>
      <point x="392" y="528"/>
      <point x="392" y="551" type="curve" smooth="yes"/>
      <point x="392" y="620"/>
      <point x="302" y="628"/>
      <point x="302" y="674" type="curve" smooth="yes"/>
      <point x="302" y="683"/>
      <point x="304" y="693"/>
      <point x="309" y="702" type="curve"/>
      <point x="290" y="717"/>
      <point x="267" y="725"/>
      <point x="235" y="725" type="curve" smooth="yes"/>
      <point x="183" y="725"/>
      <point x="139" y="703"/>
      <point x="139" y="656" type="curve" smooth="yes"/>
      <point x="139" y="583"/>
      <point x="227" y="583"/>
      <point x="227" y="530" type="curve" smooth="yes"/>
      <point x="227" y="516"/>
      <point x="221" y="503"/>
    </contour>
  </outline>
</glyph>
<glyph name="Gan-georgian" format="2">
  <advance width="559"/>
  <unicode hex="1C92"/>
  <outline>
    <contour>
      <point x="279" y="-10" type="curve" smooth="yes"/>
      <point x="440" y="-10"/>
      <point x="527" y="77"/>
      <point x="527" y="254" type="curve" smooth="yes"/>
      <point x="527" y="398"/>
      <point x="465" y="465"/>
      <point x="366" y="488" type="curve"/>
      <point x="366" y="492" type="line"/>
      <point x="428" y="504"/>
      <point x="480" y="541"/>
      <point x="480" y="600" type="curve" smooth="yes"/>
      <point x="480" y="684"/>
      <point x="385" y="725"/>
      <point x="274" y="725" type="curve" smooth="yes"/>
      <point x="164" y="725"/>
      <point x="70" y="684"/>
      <point x="70" y="607" type="curve" smooth="yes"/>
      <point x="70" y="565"/>
      <point x="110" y="537"/>
      <point x="166" y="537" type="curve" smooth="yes"/>
      <point x="187" y="537"/>
      <point x="216" y="542"/>
      <point x="240" y="551" type="curve"/>
      <point x="234" y="562"/>
      <point x="228" y="583"/>
      <point x="228" y="606" type="curve" smooth="yes"/>
      <point x="228" y="638"/>
      <point x="244" y="659"/>
      <point x="275" y="659" type="curve" smooth="yes"/>
      <point x="305" y="659"/>
      <point x="322" y="638"/>
      <point x="322" y="594" type="curve" smooth="yes"/>
      <point x="322" y="557"/>
      <point x="316" y="523"/>
      <point x="250" y="511" type="curve" smooth="yes"/>
      <point x="112" y="487"/>
      <point x="32" y="416"/>
      <point x="32" y="254" type="curve" smooth="yes"/>
      <point x="32" y="77"/>
      <point x="126" y="-10"/>
    </contour>
    <contour>
      <point x="281" y="56" type="curve" smooth="yes"/>
      <point x="223" y="56"/>
      <point x="205" y="127"/>
      <point x="205" y="254" type="curve" smooth="yes"/>
      <point x="205" y="378"/>
      <point x="222" y="447"/>
      <point x="280" y="451" type="curve" smooth="yes"/>
      <point x="334" y="455"/>
      <point x="354" y="380"/>
      <point x="354" y="254" type="curve" smooth="yes"/>
      <point x="354" y="125"/>
      <point x="335" y="56"/>
    </contour>
  </outline>
</glyph>
<glyph name="Don-georgian" format="2">
  <advance width="826"/>
  <unicode hex="1C93"/>
  <outline>
    <contour>
      <point x="554" y="266" type="curve" smooth="yes"/>
      <point x="697" y="266"/>
      <point x="789" y="352"/>
      <point x="789" y="497" type="curve" smooth="yes"/>
      <point x="789" y="640"/>
      <point x="705" y="725"/>
      <point x="562" y="725" type="curve" smooth="yes"/>
      <point x="489" y="725"/>
      <point x="430" y="692"/>
      <point x="406" y="637" type="curve"/>
      <point x="401" y="637" type="line"/>
      <point x="377" y="692"/>
      <point x="318" y="725"/>
      <point x="253" y="725" type="curve" smooth="yes"/>
      <point x="131" y="725"/>
      <point x="37" y="640"/>
      <point x="37" y="481" type="curve" smooth="yes"/>
      <point x="37" y="323"/>
      <point x="122" y="205"/>
      <point x="264" y="157" type="curve"/>
      <point x="264" y="153" type="line"/>
      <point x="224" y="146"/>
      <point x="185" y="130"/>
      <point x="163" y="114" type="curve"/>
      <point x="188" y="69" type="line"/>
      <point x="229" y="87"/>
      <point x="285" y="108"/>
      <point x="356" y="108" type="curve" smooth="yes"/>
      <point x="460" y="108"/>
      <point x="543" y="58"/>
      <point x="543" y="-4" type="curve"/>
      <point x="606" y="-4"/>
      <point x="651" y="8"/>
      <point x="651" y="64" type="curve" smooth="yes"/>
      <point x="651" y="139"/>
      <point x="564" y="175"/>
      <point x="448" y="207" type="curve" smooth="yes"/>
      <point x="304" y="247"/>
      <point x="211" y="323"/>
      <point x="211" y="490" type="curve" smooth="yes"/>
      <point x="211" y="614"/>
      <point x="226" y="658"/>
      <point x="266" y="658" type="curve" smooth="yes"/>
      <point x="307" y="658"/>
      <point x="319" y="626"/>
      <point x="319" y="551" type="curve" smooth="yes"/>
      <point x="319" y="497" type="line" smooth="yes"/>
      <point x="319" y="352"/>
      <point x="404" y="266"/>
    </contour>
    <contour>
      <point x="552" y="658" type="curve" smooth="yes"/>
      <point x="601" y="658"/>
      <point x="616" y="615"/>
      <point x="616" y="497" type="curve" smooth="yes"/>
      <point x="616" y="381"/>
      <point x="601" y="333"/>
      <point x="553" y="333" type="curve" smooth="yes"/>
      <point x="507" y="333"/>
      <point x="488" y="381"/>
      <point x="488" y="497" type="curve" smooth="yes"/>
      <point x="488" y="613"/>
      <point x="507" y="658"/>
    </contour>
  </outline>
</glyph>
<glyph name="En-georgian" format="2">
  <advance width="569"/>
  <unicode hex="1C94"/>
  <anchor x="274" y="714" name="top"/>
  <outline>
    <contour>
      <point x="270" y="-10" type="curve" smooth="yes"/>
      <point x="420" y="-10"/>
      <point x="508" y="69"/>
      <point x="508" y="232" type="curve" smooth="yes"/>
      <point x="508" y="503" type="line" smooth="yes"/>
      <point x="508" y="666"/>
      <point x="411" y="725"/>
      <point x="275" y="725" type="curve" smooth="yes"/>
      <point x="146" y="725"/>
      <point x="50" y="668"/>
      <point x="50" y="567" type="curve" smooth="yes"/>
      <point x="50" y="501"/>
      <point x="95" y="456"/>
      <point x="161" y="456" type="curve" smooth="yes"/>
      <point x="182" y="456"/>
      <point x="206" y="459"/>
      <point x="228" y="465" type="curve"/>
      <point x="220" y="490"/>
      <point x="216" y="520"/>
      <point x="216" y="551" type="curve" smooth="yes"/>
      <point x="216" y="611"/>
      <point x="233" y="660"/>
      <point x="278" y="660" type="curve" smooth="yes"/>
      <point x="325" y="660"/>
      <point x="340" y="618"/>
      <point x="340" y="548" type="curve" smooth="yes"/>
      <point x="340" y="168" type="line" smooth="yes"/>
      <point x="340" y="104"/>
      <point x="324" y="56"/>
      <point x="270" y="56" type="curve" smooth="yes"/>
      <point x="222" y="56"/>
      <point x="204" y="97"/>
      <point x="204" y="169" type="curve" smooth="yes"/>
      <point x="204" y="234"/>
      <point x="215" y="270"/>
      <point x="226" y="292" type="curve"/>
      <point x="211" y="305"/>
      <point x="186" y="315"/>
      <point x="158" y="315" type="curve" smooth="yes"/>
      <point x="99" y="315"/>
      <point x="32" y="282"/>
      <point x="32" y="181" type="curve" smooth="yes"/>
      <point x="32" y="54"/>
      <point x="115" y="-10"/>
    </contour>
  </outline>
</glyph>
